{"glyphs":{"0":{"ha":804,"x_min":61,"x_max":743,"o":"m 403 -15 q 61 449 61 -15 q 403 917 61 917 q 743 449 743 917 q 662 104 743 224 q 403 -15 581 -15 m 403 81 q 484 113 456 81 q 524 223 513 144 q 536 449 536 301 q 524 676 536 597 q 484 788 513 756 q 403 821 456 821 q 322 788 350 821 q 281 676 293 756 q 269 449 269 597 q 281 222 269 300 q 322 113 293 144 q 403 81 350 81 z "},"1":{"ha":553,"x_min":58,"x_max":415,"o":"m 233 0 l 233 775 l 96 701 l 58 785 l 267 903 l 415 903 l 415 0 l 233 0 z "},"2":{"ha":672,"x_min":47,"x_max":624,"o":"m 47 143 q 197 240 113 168 q 344 416 282 311 q 407 639 407 521 q 376 777 407 740 q 275 814 346 814 q 203 799 243 814 q 135 767 164 783 q 97 746 106 751 l 78 843 q 115 864 78 844 q 204 900 153 883 q 308 917 256 917 q 534 844 457 917 q 611 651 611 771 q 508 393 611 515 q 263 174 406 271 l 624 174 l 624 0 l 47 0 l 47 143 z "},"3":{"ha":683,"x_min":49,"x_max":632,"o":"m 314 -15 q 173 7 232 -15 q 81 56 114 29 q 49 86 49 82 l 99 168 q 128 143 99 165 q 200 102 157 121 q 290 83 243 83 q 400 125 365 83 q 435 263 435 167 q 411 391 435 353 q 335 429 388 429 q 263 392 300 429 l 260 389 l 203 453 l 425 728 l 92 728 l 101 903 l 589 903 l 589 786 l 367 518 l 375 518 q 505 488 446 518 q 598 399 564 457 q 632 261 632 342 q 588 111 632 174 q 470 17 543 49 q 314 -15 397 -15 z "},"4":{"ha":740,"x_min":42,"x_max":703,"o":"m 425 221 l 51 221 l 42 303 q 167 594 103 414 q 263 925 232 774 l 439 903 q 333 615 406 757 q 163 317 260 474 l 425 317 l 475 767 l 614 767 l 614 317 l 703 317 l 703 238 l 614 221 l 614 0 l 425 0 l 425 221 z "},"5":{"ha":679,"x_min":31,"x_max":625,"o":"m 275 -15 q 146 7 200 -15 q 61 55 92 29 q 31 85 31 81 l 86 163 q 110 139 86 160 q 173 101 135 118 q 260 83 211 83 q 384 131 340 83 q 428 289 428 178 q 391 436 428 392 q 286 481 354 481 q 224 468 251 481 q 183 438 196 456 l 176 424 l 111 433 l 164 903 l 578 903 l 568 722 l 239 722 l 222 557 q 303 569 263 569 q 538 499 450 569 q 625 293 625 428 q 574 121 625 190 q 444 18 524 51 q 275 -15 364 -15 z "},"6":{"ha":736,"x_min":61,"x_max":686,"o":"m 379 -15 q 144 78 228 -15 q 61 369 61 172 q 63 441 61 404 q 68 501 65 478 q 178 817 94 718 q 392 917 263 917 q 481 905 436 917 q 555 880 525 893 q 593 863 585 867 l 569 769 q 538 785 563 774 q 477 808 513 797 q 410 819 442 819 q 290 756 329 819 q 244 528 250 692 q 399 585 317 585 q 607 510 528 585 q 686 289 686 435 q 605 65 686 146 q 379 -15 524 -15 m 379 76 q 463 126 439 76 q 488 292 488 175 q 462 449 488 401 q 376 497 436 497 q 264 432 311 497 q 260 308 260 394 q 272 169 260 219 q 309 98 283 119 q 379 76 335 76 z "},"7":{"ha":626,"x_min":50,"x_max":606,"o":"m 131 0 q 255 319 172 151 q 465 718 338 488 l 50 718 l 50 903 l 606 903 l 606 757 q 446 394 522 610 q 331 0 369 178 l 131 0 z "},"8":{"ha":744,"x_min":50,"x_max":696,"o":"m 372 -15 q 133 46 217 -15 q 50 244 50 107 q 101 378 50 326 q 231 457 153 431 q 115 532 161 481 q 68 671 68 583 q 151 853 68 789 q 372 917 235 917 q 593 852 510 917 q 676 669 676 788 q 510 460 676 522 q 642 390 588 440 q 696 242 696 339 q 612 46 696 107 q 372 -15 528 -15 m 372 492 q 447 538 415 500 q 478 665 478 576 q 453 794 478 757 q 372 831 428 831 q 292 794 317 831 q 267 665 267 757 q 298 540 267 579 q 372 492 329 501 m 372 71 q 458 112 429 71 q 488 247 488 153 q 451 373 488 335 q 367 417 414 411 q 291 372 324 410 q 258 247 258 335 q 287 111 258 151 q 372 71 315 71 z "},"9":{"ha":736,"x_min":50,"x_max":674,"o":"m 328 -15 q 218 -1 263 -15 q 150 28 174 13 q 126 46 126 43 l 167 136 q 188 120 167 135 q 243 94 210 106 q 315 82 276 82 q 438 147 392 82 q 490 371 485 211 q 336 310 429 310 q 128 381 207 310 q 50 599 50 453 q 89 765 50 693 q 199 877 128 838 q 364 917 269 917 q 594 823 514 917 q 674 532 674 729 q 671 435 674 474 q 610 180 660 281 q 486 32 560 79 q 328 -15 413 -15 m 358 397 q 435 424 406 397 q 474 493 464 450 q 476 593 476 551 q 451 774 476 722 q 364 825 425 825 q 276 772 304 825 q 247 606 247 718 q 273 447 247 496 q 358 397 299 397 z "},"\u0000":{"ha":0,"x_min":0,"x_max":0,"o":""},"\r":{"ha":354,"x_min":0,"x_max":0,"o":""}," ":{"ha":354,"x_min":0,"x_max":0,"o":""},"A":{"ha":844,"x_min":26,"x_max":819,"o":"m 26 0 l 326 903 l 539 903 l 819 0 l 617 0 l 539 253 l 225 253 l 143 0 l 26 0 m 253 340 l 513 340 l 389 765 l 386 765 l 253 340 z "},"Á":{"ha":844,"x_min":26,"x_max":819,"o":"m 443 978 l 364 990 l 461 1201 l 611 1158 l 443 978 m 26 0 l 326 903 l 539 903 l 819 0 l 617 0 l 539 253 l 225 253 l 143 0 l 26 0 m 253 340 l 513 340 l 389 765 l 386 765 l 253 340 z "},"Ă":{"ha":844,"x_min":26,"x_max":819,"o":"m 428 969 q 258 1032 294 969 q 221 1140 221 1094 l 313 1153 l 313 1147 q 320 1122 313 1140 q 353 1088 328 1104 q 428 1071 379 1071 q 503 1088 478 1071 q 537 1122 529 1104 q 544 1147 544 1140 l 544 1153 l 638 1140 q 600 1033 638 1096 q 428 969 563 969 m 26 0 l 326 903 l 539 903 l 819 0 l 617 0 l 539 253 l 225 253 l 143 0 l 26 0 m 253 340 l 513 340 l 389 765 l 386 765 l 253 340 z "},"Ắ":{"ha":844,"x_min":26,"x_max":819,"o":"m 26 0 l 326 903 l 539 903 l 819 0 l 617 0 l 539 253 l 225 253 l 143 0 l 26 0 m 253 340 l 513 340 l 389 765 l 386 765 l 253 340 m 421 990 q 251 1053 288 990 q 214 1161 214 1115 l 306 1174 l 306 1168 q 313 1143 306 1161 q 347 1108 321 1125 q 421 1092 372 1092 q 497 1108 471 1092 q 530 1143 522 1125 q 538 1168 538 1161 l 538 1174 l 631 1161 q 593 1053 631 1117 q 421 990 556 990 m 443 1176 l 364 1189 l 461 1400 l 611 1357 l 443 1176 z "},"Ặ":{"ha":844,"x_min":26,"x_max":819,"o":"m 26 0 l 326 903 l 539 903 l 819 0 l 617 0 l 539 253 l 225 253 l 143 0 l 26 0 m 253 340 l 513 340 l 389 765 l 386 765 l 253 340 m 422 -292 q 388 -285 406 -292 q 358 -268 371 -279 q 331 -200 331 -240 q 358 -132 331 -162 q 422 -107 383 -107 q 485 -132 460 -107 q 513 -200 513 -160 q 485 -268 513 -242 q 422 -292 458 -292 m 421 990 q 251 1053 288 990 q 214 1161 214 1115 l 306 1174 l 306 1168 q 313 1143 306 1161 q 347 1108 321 1125 q 421 1092 372 1092 q 497 1108 471 1092 q 530 1143 522 1125 q 538 1168 538 1161 l 538 1174 l 631 1161 q 593 1053 631 1117 q 421 990 556 990 z "},"Ằ":{"ha":844,"x_min":26,"x_max":819,"o":"m 26 0 l 326 903 l 539 903 l 819 0 l 617 0 l 539 253 l 225 253 l 143 0 l 26 0 m 253 340 l 513 340 l 389 765 l 386 765 l 253 340 m 421 990 q 251 1053 288 990 q 214 1161 214 1115 l 306 1174 l 306 1168 q 313 1143 306 1161 q 347 1108 321 1125 q 421 1092 372 1092 q 497 1108 471 1092 q 530 1143 522 1125 q 538 1168 538 1161 l 538 1174 l 631 1161 q 593 1053 631 1117 q 421 990 556 990 m 408 1176 l 229 1356 l 376 1404 l 494 1200 l 408 1176 z "},"Ẳ":{"ha":844,"x_min":26,"x_max":819,"o":"m 26 0 l 326 903 l 539 903 l 819 0 l 617 0 l 539 253 l 225 253 l 143 0 l 26 0 m 253 340 l 513 340 l 389 765 l 386 765 l 253 340 m 421 990 q 251 1053 288 990 q 214 1161 214 1115 l 306 1174 l 306 1168 q 313 1143 306 1161 q 347 1108 321 1125 q 421 1092 372 1092 q 497 1108 471 1092 q 530 1143 522 1125 q 538 1168 538 1161 l 538 1174 l 631 1161 q 593 1053 631 1117 q 421 990 556 990 m 383 1194 q 382 1224 382 1204 q 388 1242 382 1235 q 407 1261 393 1249 q 428 1281 421 1272 q 435 1306 435 1290 q 381 1361 435 1361 q 350 1356 364 1361 q 328 1344 336 1350 q 319 1338 321 1339 l 274 1417 q 292 1427 278 1419 q 329 1442 306 1435 q 381 1450 353 1450 q 532 1322 532 1450 q 521 1279 532 1296 q 489 1243 510 1263 q 469 1224 475 1231 q 464 1207 464 1217 l 464 1196 l 383 1194 z "},"Ẵ":{"ha":844,"x_min":26,"x_max":819,"o":"m 26 0 l 326 903 l 539 903 l 819 0 l 617 0 l 539 253 l 225 253 l 143 0 l 26 0 m 253 340 l 513 340 l 389 765 l 386 765 l 253 340 m 421 990 q 251 1053 288 990 q 214 1161 214 1115 l 306 1174 l 306 1168 q 313 1143 306 1161 q 347 1108 321 1125 q 421 1092 372 1092 q 497 1108 471 1092 q 530 1143 522 1125 q 538 1168 538 1161 l 538 1174 l 631 1161 q 593 1053 631 1117 q 421 990 556 990 m 528 1222 q 473 1231 497 1222 q 411 1257 449 1239 q 360 1281 382 1272 q 313 1289 338 1289 q 272 1275 290 1289 q 244 1246 254 1261 q 232 1226 235 1231 l 182 1276 q 203 1314 182 1282 q 262 1374 224 1346 q 353 1401 300 1401 q 417 1392 390 1401 q 478 1364 444 1382 q 525 1343 507 1350 q 564 1336 543 1336 q 601 1346 586 1336 q 624 1367 617 1356 q 633 1381 632 1378 l 683 1332 q 667 1299 683 1326 q 615 1247 650 1271 q 528 1222 581 1222 z "},"Â":{"ha":844,"x_min":26,"x_max":819,"o":"m 279 1001 l 239 1064 l 375 1233 l 472 1233 l 607 1064 l 568 1001 l 424 1119 l 279 1001 m 26 0 l 326 903 l 539 903 l 819 0 l 617 0 l 539 253 l 225 253 l 143 0 l 26 0 m 253 340 l 513 340 l 389 765 l 386 765 l 253 340 z "},"Ấ":{"ha":844,"x_min":26,"x_max":819,"o":"m 26 0 l 326 903 l 539 903 l 819 0 l 617 0 l 539 253 l 225 253 l 143 0 l 26 0 m 253 340 l 513 340 l 389 765 l 386 765 l 253 340 m 278 972 l 238 1035 l 374 1204 l 471 1204 l 606 1035 l 567 972 l 422 1090 l 278 972 m 649 1118 l 569 1131 l 667 1342 l 817 1299 l 649 1118 z "},"Ậ":{"ha":844,"x_min":26,"x_max":819,"o":"m 26 0 l 326 903 l 539 903 l 819 0 l 617 0 l 539 253 l 225 253 l 143 0 l 26 0 m 253 340 l 513 340 l 389 765 l 386 765 l 253 340 m 422 -292 q 388 -285 406 -292 q 358 -268 371 -279 q 331 -200 331 -240 q 358 -132 331 -162 q 422 -107 383 -107 q 485 -132 460 -107 q 513 -200 513 -160 q 485 -268 513 -242 q 422 -292 458 -292 m 278 972 l 238 1035 l 374 1204 l 471 1204 l 606 1035 l 567 972 l 422 1090 l 278 972 z "},"Ầ":{"ha":844,"x_min":26,"x_max":819,"o":"m 26 0 l 326 903 l 539 903 l 819 0 l 617 0 l 539 253 l 225 253 l 143 0 l 26 0 m 253 340 l 513 340 l 389 765 l 386 765 l 253 340 m 278 972 l 238 1035 l 374 1204 l 471 1204 l 606 1035 l 567 972 l 422 1090 l 278 972 m 585 1178 l 406 1357 l 553 1406 l 671 1201 l 585 1178 z "},"Ẩ":{"ha":844,"x_min":26,"x_max":819,"o":"m 26 0 l 326 903 l 539 903 l 819 0 l 617 0 l 539 253 l 225 253 l 143 0 l 26 0 m 253 340 l 513 340 l 389 765 l 386 765 l 253 340 m 278 972 l 238 1035 l 374 1204 l 471 1204 l 606 1035 l 567 972 l 422 1090 l 278 972 m 624 1122 q 622 1151 622 1132 q 628 1169 622 1163 q 647 1189 633 1176 q 668 1209 661 1200 q 675 1233 675 1218 q 621 1289 675 1289 q 590 1283 604 1289 q 569 1272 576 1278 q 560 1265 561 1267 l 514 1344 q 532 1355 518 1347 q 569 1370 546 1363 q 621 1378 593 1378 q 772 1250 772 1378 q 761 1207 772 1224 q 729 1171 750 1190 q 710 1151 715 1158 q 704 1135 704 1144 l 704 1124 l 624 1122 z "},"Ẫ":{"ha":844,"x_min":26,"x_max":819,"o":"m 26 0 l 326 903 l 539 903 l 819 0 l 617 0 l 539 253 l 225 253 l 143 0 l 26 0 m 253 340 l 513 340 l 389 765 l 386 765 l 253 340 m 278 972 l 238 1035 l 374 1204 l 471 1204 l 606 1035 l 567 972 l 422 1090 l 278 972 m 517 1233 q 462 1242 486 1233 q 400 1268 438 1250 q 349 1292 371 1283 q 301 1300 326 1300 q 261 1286 279 1300 q 233 1257 243 1272 q 221 1238 224 1242 l 171 1288 q 192 1325 171 1293 q 251 1385 213 1357 q 342 1413 289 1413 q 406 1403 379 1413 q 467 1375 433 1393 q 514 1354 496 1361 q 553 1347 532 1347 q 590 1357 575 1347 q 613 1378 606 1367 q 622 1392 621 1389 l 672 1343 q 656 1310 672 1338 q 604 1258 639 1282 q 517 1233 569 1233 z "},"Ä":{"ha":844,"x_min":26,"x_max":819,"o":"m 294 996 q 231 1021 258 996 q 203 1093 203 1049 q 231 1165 203 1136 q 294 1189 258 1189 q 358 1165 331 1189 q 386 1093 386 1133 q 358 1021 386 1051 q 294 996 332 996 m 553 996 q 489 1021 514 996 q 461 1093 461 1049 q 489 1165 461 1136 q 553 1189 515 1189 q 617 1165 589 1189 q 644 1093 644 1133 q 617 1021 644 1051 q 553 996 590 996 m 26 0 l 326 903 l 539 903 l 819 0 l 617 0 l 539 253 l 225 253 l 143 0 l 26 0 m 253 340 l 513 340 l 389 765 l 386 765 l 253 340 z "},"Ạ":{"ha":844,"x_min":26,"x_max":819,"o":"m 26 0 l 326 903 l 539 903 l 819 0 l 617 0 l 539 253 l 225 253 l 143 0 l 26 0 m 253 340 l 513 340 l 389 765 l 386 765 l 253 340 m 422 -292 q 388 -285 406 -292 q 358 -268 371 -279 q 331 -200 331 -240 q 358 -132 331 -162 q 422 -107 383 -107 q 485 -132 460 -107 q 513 -200 513 -160 q 485 -268 513 -242 q 422 -292 458 -292 z "},"À":{"ha":844,"x_min":26,"x_max":819,"o":"m 411 985 l 232 1164 l 379 1213 l 497 1008 l 411 985 m 26 0 l 326 903 l 539 903 l 819 0 l 617 0 l 539 253 l 225 253 l 143 0 l 26 0 m 253 340 l 513 340 l 389 765 l 386 765 l 253 340 z "},"Ả":{"ha":844,"x_min":26,"x_max":819,"o":"m 26 0 l 326 903 l 539 903 l 819 0 l 617 0 l 539 253 l 225 253 l 143 0 l 26 0 m 253 340 l 513 340 l 389 765 l 386 765 l 253 340 m 376 983 q 375 1013 375 993 q 381 1031 375 1024 q 400 1050 386 1038 q 421 1070 414 1061 q 428 1094 428 1079 q 374 1150 428 1150 q 343 1144 357 1150 q 322 1133 329 1139 q 313 1126 314 1128 l 267 1206 q 285 1216 271 1208 q 322 1231 299 1224 q 374 1239 346 1239 q 525 1111 525 1239 q 514 1068 525 1085 q 482 1032 503 1051 q 463 1013 468 1019 q 457 996 457 1006 l 457 985 l 376 983 z "},"Ā":{"ha":844,"x_min":26,"x_max":819,"o":"m 279 1054 l 279 1135 l 576 1135 l 576 1054 l 279 1054 m 26 0 l 326 903 l 539 903 l 819 0 l 617 0 l 539 253 l 225 253 l 143 0 l 26 0 m 253 340 l 513 340 l 389 765 l 386 765 l 253 340 z "},"Ą":{"ha":844,"x_min":26,"x_max":819,"o":"m 707 -347 q 540 -313 601 -347 q 479 -185 479 -279 q 519 -76 479 -125 q 614 8 558 -28 l 539 253 l 225 253 l 143 0 l 26 0 l 326 903 l 539 903 l 819 0 l 697 0 q 631 -62 661 -21 q 601 -171 601 -103 q 626 -256 601 -233 q 707 -279 650 -279 l 707 -347 m 253 340 l 513 340 l 389 765 l 386 765 l 253 340 z "},"Å":{"ha":844,"x_min":26,"x_max":819,"o":"m 424 949 q 317 988 357 949 q 278 1099 278 1028 q 319 1208 278 1168 q 424 1247 360 1247 q 528 1207 486 1247 q 569 1099 569 1167 q 529 989 569 1029 q 424 949 489 949 m 424 1008 q 483 1031 461 1008 q 506 1100 506 1054 q 483 1166 506 1143 q 424 1189 460 1189 q 365 1166 388 1189 q 342 1100 342 1143 q 364 1031 342 1054 q 424 1008 386 1008 m 26 0 l 326 903 l 539 903 l 819 0 l 617 0 l 539 253 l 225 253 l 143 0 l 26 0 m 253 340 l 513 340 l 389 765 l 386 765 l 253 340 z "},"Ã":{"ha":844,"x_min":26,"x_max":819,"o":"m 525 1008 q 470 1017 494 1008 q 408 1043 446 1025 q 357 1067 379 1058 q 310 1075 335 1075 q 269 1061 288 1075 q 242 1032 251 1047 q 229 1013 232 1017 l 179 1063 q 200 1100 179 1068 q 259 1160 221 1132 q 350 1188 297 1188 q 415 1178 388 1188 q 475 1150 442 1168 q 522 1129 504 1136 q 561 1122 540 1122 q 599 1132 583 1122 q 622 1153 614 1142 q 631 1167 629 1164 l 681 1118 q 664 1085 681 1113 q 613 1033 647 1057 q 525 1008 578 1008 m 26 0 l 326 903 l 539 903 l 819 0 l 617 0 l 539 253 l 225 253 l 143 0 l 26 0 m 253 340 l 513 340 l 389 765 l 386 765 l 253 340 z "},"Æ":{"ha":1142,"x_min":-19,"x_max":1094,"o":"m -19 0 l 483 903 l 1075 903 l 1075 803 l 726 803 l 726 506 l 1035 506 l 1035 408 l 726 408 l 726 100 l 1094 100 l 1094 0 l 535 0 l 535 261 l 243 261 l 101 0 l -19 0 m 290 350 l 535 350 l 535 803 l 525 803 l 290 350 z "},"B":{"ha":790,"x_min":107,"x_max":740,"o":"m 107 903 l 382 903 q 560 870 489 903 q 667 784 632 838 q 701 668 701 731 q 663 550 701 599 q 567 471 625 501 q 693 392 646 446 q 740 260 740 338 q 651 71 740 142 q 389 0 561 0 l 107 0 l 107 903 m 413 501 q 483 538 451 501 q 514 657 514 575 q 476 775 514 738 q 376 813 439 813 l 299 813 l 299 501 l 413 501 m 385 90 q 503 134 460 90 q 546 267 546 178 q 422 418 546 418 l 299 418 l 299 90 l 385 90 z "},"C":{"ha":800,"x_min":50,"x_max":786,"o":"m 468 -15 q 157 108 264 -15 q 50 444 50 231 q 99 693 50 586 q 240 858 147 800 q 461 917 333 917 q 587 901 525 917 q 694 866 649 885 q 739 846 739 847 l 719 744 q 672 766 710 750 q 583 797 635 782 q 485 813 531 813 q 358 778 407 813 q 285 664 310 743 q 261 451 261 585 q 318 172 261 256 q 494 89 375 89 q 612 117 561 89 q 694 180 663 146 q 725 218 725 214 l 786 151 q 749 101 786 144 q 642 22 713 58 q 468 -15 571 -15 z "},"Ć":{"ha":800,"x_min":50,"x_max":786,"o":"m 464 978 l 385 990 l 482 1201 l 632 1158 l 464 978 m 468 -15 q 157 108 264 -15 q 50 444 50 231 q 99 693 50 586 q 240 858 147 800 q 461 917 333 917 q 587 901 525 917 q 694 866 649 885 q 739 846 739 847 l 719 744 q 672 766 710 750 q 583 797 635 782 q 485 813 531 813 q 358 778 407 813 q 285 664 310 743 q 261 451 261 585 q 318 172 261 256 q 494 89 375 89 q 612 117 561 89 q 694 180 663 146 q 725 218 725 214 l 786 151 q 749 101 786 144 q 642 22 713 58 q 468 -15 571 -15 z "},"Č":{"ha":800,"x_min":50,"x_max":786,"o":"m 392 982 l 232 1174 l 290 1222 l 440 1093 l 590 1222 l 649 1168 l 489 982 l 392 982 m 468 -15 q 157 108 264 -15 q 50 444 50 231 q 99 693 50 586 q 240 858 147 800 q 461 917 333 917 q 587 901 525 917 q 694 866 649 885 q 739 846 739 847 l 719 744 q 672 766 710 750 q 583 797 635 782 q 485 813 531 813 q 358 778 407 813 q 285 664 310 743 q 261 451 261 585 q 318 172 261 256 q 494 89 375 89 q 612 117 561 89 q 694 180 663 146 q 725 218 725 214 l 786 151 q 749 101 786 144 q 642 22 713 58 q 468 -15 571 -15 z "},"Ç":{"ha":800,"x_min":50,"x_max":786,"o":"m 428 -349 q 352 -335 382 -349 q 308 -304 322 -321 q 294 -285 294 -287 l 331 -244 q 342 -257 333 -247 q 368 -276 351 -267 q 407 -285 385 -285 q 476 -206 476 -285 q 455 -159 476 -172 q 413 -142 433 -146 q 393 -136 393 -137 l 408 -12 q 142 126 233 6 q 50 444 50 246 q 99 693 50 586 q 240 858 147 800 q 461 917 333 917 q 587 901 525 917 q 694 866 649 885 q 739 846 739 847 l 719 744 q 672 766 710 750 q 583 797 635 782 q 485 813 531 813 q 358 778 407 813 q 285 664 310 743 q 261 451 261 585 q 318 172 261 256 q 494 89 375 89 q 612 117 561 89 q 694 180 663 146 q 725 218 725 214 l 786 151 q 749 102 786 144 q 642 22 713 60 q 469 -15 572 -15 l 463 -81 q 496 -94 463 -82 q 558 -133 529 -106 q 586 -208 586 -161 q 545 -310 586 -272 q 428 -349 504 -349 z "},"D":{"ha":899,"x_min":107,"x_max":850,"o":"m 107 903 l 414 903 q 737 787 624 903 q 850 449 850 671 q 739 115 850 229 q 415 0 628 0 l 107 0 l 107 903 m 417 99 q 545 133 497 99 q 615 242 593 167 q 638 449 638 318 q 615 657 638 579 q 543 769 592 735 q 414 804 494 804 l 299 804 l 299 99 l 417 99 z "},"Ð":{"ha":914,"x_min":29,"x_max":850,"o":"m 107 401 l 29 401 l 29 493 l 107 493 l 107 903 l 414 903 q 737 787 624 903 q 850 449 850 671 q 739 115 850 229 q 415 0 628 0 l 107 0 l 107 401 m 417 99 q 545 133 497 99 q 615 242 593 167 q 638 449 638 318 q 615 657 638 579 q 543 769 592 735 q 414 804 494 804 l 299 804 l 299 493 l 496 493 l 496 401 l 299 401 l 299 99 l 417 99 z "},"Ď":{"ha":914,"x_min":107,"x_max":850,"o":"m 357 982 l 197 1174 l 256 1222 l 406 1093 l 556 1222 l 614 1168 l 454 982 l 357 982 m 107 903 l 414 903 q 737 787 624 903 q 850 449 850 671 q 739 115 850 229 q 415 0 628 0 l 107 0 l 107 903 m 417 99 q 545 133 497 99 q 615 242 593 167 q 638 449 638 318 q 615 657 638 579 q 543 769 592 735 q 414 804 494 804 l 299 804 l 299 99 l 417 99 z "},"Đ":{"ha":914,"x_min":29,"x_max":850,"o":"m 107 401 l 29 401 l 29 493 l 107 493 l 107 903 l 414 903 q 737 787 624 903 q 850 449 850 671 q 739 115 850 229 q 415 0 628 0 l 107 0 l 107 401 m 417 99 q 545 133 497 99 q 615 242 593 167 q 638 449 638 318 q 615 657 638 579 q 543 769 592 735 q 414 804 494 804 l 299 804 l 299 493 l 496 493 l 496 401 l 299 401 l 299 99 l 417 99 z "},"E":{"ha":728,"x_min":107,"x_max":668,"o":"m 107 0 l 107 903 l 649 903 l 649 803 l 299 803 l 299 506 l 607 506 l 607 408 l 299 408 l 299 100 l 668 100 l 668 0 l 107 0 z "},"É":{"ha":728,"x_min":107,"x_max":668,"o":"m 418 978 l 339 990 l 436 1201 l 586 1158 l 418 978 m 107 0 l 107 903 l 649 903 l 649 803 l 299 803 l 299 506 l 607 506 l 607 408 l 299 408 l 299 100 l 668 100 l 668 0 l 107 0 z "},"Ě":{"ha":728,"x_min":107,"x_max":668,"o":"m 339 982 l 179 1174 l 238 1222 l 388 1093 l 538 1222 l 596 1168 l 436 982 l 339 982 m 107 0 l 107 903 l 649 903 l 649 803 l 299 803 l 299 506 l 607 506 l 607 408 l 299 408 l 299 100 l 668 100 l 668 0 l 107 0 z "},"Ê":{"ha":728,"x_min":107,"x_max":668,"o":"m 257 1001 l 217 1064 l 353 1233 l 450 1233 l 585 1064 l 546 1001 l 401 1119 l 257 1001 m 107 0 l 107 903 l 649 903 l 649 803 l 299 803 l 299 506 l 607 506 l 607 408 l 299 408 l 299 100 l 668 100 l 668 0 l 107 0 z "},"Ế":{"ha":728,"x_min":107,"x_max":758,"o":"m 107 0 l 107 903 l 649 903 l 649 803 l 299 803 l 299 506 l 607 506 l 607 408 l 299 408 l 299 100 l 668 100 l 668 0 l 107 0 m 219 972 l 179 1035 l 315 1204 l 413 1204 l 547 1035 l 508 972 l 364 1090 l 219 972 m 590 1118 l 511 1131 l 608 1342 l 758 1299 l 590 1118 z "},"Ệ":{"ha":728,"x_min":107,"x_max":668,"o":"m 107 0 l 107 903 l 649 903 l 649 803 l 299 803 l 299 506 l 607 506 l 607 408 l 299 408 l 299 100 l 668 100 l 668 0 l 107 0 m 364 -292 q 330 -285 347 -292 q 300 -268 313 -279 q 272 -200 272 -240 q 300 -132 272 -162 q 364 -107 325 -107 q 426 -132 401 -107 q 454 -200 454 -160 q 426 -268 454 -242 q 364 -292 400 -292 m 219 972 l 179 1035 l 315 1204 l 413 1204 l 547 1035 l 508 972 l 364 1090 l 219 972 z "},"Ề":{"ha":728,"x_min":107,"x_max":668,"o":"m 107 0 l 107 903 l 649 903 l 649 803 l 299 803 l 299 506 l 607 506 l 607 408 l 299 408 l 299 100 l 668 100 l 668 0 l 107 0 m 219 972 l 179 1035 l 315 1204 l 413 1204 l 547 1035 l 508 972 l 364 1090 l 219 972 m 526 1178 l 347 1357 l 494 1406 l 613 1201 l 526 1178 z "},"Ể":{"ha":728,"x_min":107,"x_max":714,"o":"m 107 0 l 107 903 l 649 903 l 649 803 l 299 803 l 299 506 l 607 506 l 607 408 l 299 408 l 299 100 l 668 100 l 668 0 l 107 0 m 219 972 l 179 1035 l 315 1204 l 413 1204 l 547 1035 l 508 972 l 364 1090 l 219 972 m 565 1122 q 564 1151 564 1132 q 569 1169 564 1163 q 589 1189 575 1176 q 610 1209 603 1200 q 617 1233 617 1218 q 563 1289 617 1289 q 532 1283 546 1289 q 510 1272 518 1278 q 501 1265 503 1267 l 456 1344 q 474 1355 460 1347 q 511 1370 488 1363 q 563 1378 535 1378 q 714 1250 714 1378 q 703 1207 714 1224 q 671 1171 692 1190 q 651 1151 657 1158 q 646 1135 646 1144 l 646 1124 l 565 1122 z "},"Ễ":{"ha":728,"x_min":107,"x_max":668,"o":"m 107 0 l 107 903 l 649 903 l 649 803 l 299 803 l 299 506 l 607 506 l 607 408 l 299 408 l 299 100 l 668 100 l 668 0 l 107 0 m 219 972 l 179 1035 l 315 1204 l 413 1204 l 547 1035 l 508 972 l 364 1090 l 219 972 m 458 1233 q 403 1242 428 1233 q 342 1268 379 1250 q 290 1292 313 1283 q 243 1300 268 1300 q 203 1286 221 1300 q 175 1257 185 1272 q 163 1238 165 1242 l 113 1288 q 133 1325 113 1293 q 192 1385 154 1357 q 283 1413 231 1413 q 348 1403 321 1413 q 408 1375 375 1393 q 456 1354 438 1361 q 494 1347 474 1347 q 532 1357 517 1347 q 555 1378 547 1367 q 564 1392 563 1389 l 614 1343 q 597 1310 614 1338 q 546 1258 581 1282 q 458 1233 511 1233 z "},"Ë":{"ha":728,"x_min":107,"x_max":668,"o":"m 250 996 q 186 1021 214 996 q 158 1093 158 1049 q 186 1165 158 1136 q 250 1189 214 1189 q 314 1165 286 1189 q 342 1093 342 1133 q 314 1021 342 1051 q 250 996 288 996 m 508 996 q 444 1021 469 996 q 417 1093 417 1049 q 444 1165 417 1136 q 508 1189 471 1189 q 572 1165 544 1189 q 600 1093 600 1133 q 572 1021 600 1051 q 508 996 546 996 m 107 0 l 107 903 l 649 903 l 649 803 l 299 803 l 299 506 l 607 506 l 607 408 l 299 408 l 299 100 l 668 100 l 668 0 l 107 0 z "},"Ė":{"ha":728,"x_min":107,"x_max":668,"o":"m 392 986 q 318 1014 350 986 q 286 1093 286 1046 q 318 1171 286 1139 q 392 1199 347 1199 q 463 1172 435 1199 q 493 1093 493 1140 q 463 1013 493 1044 q 392 986 432 986 m 107 0 l 107 903 l 649 903 l 649 803 l 299 803 l 299 506 l 607 506 l 607 408 l 299 408 l 299 100 l 668 100 l 668 0 l 107 0 z "},"Ẹ":{"ha":728,"x_min":107,"x_max":668,"o":"m 107 0 l 107 903 l 649 903 l 649 803 l 299 803 l 299 506 l 607 506 l 607 408 l 299 408 l 299 100 l 668 100 l 668 0 l 107 0 m 364 -292 q 330 -285 347 -292 q 300 -268 313 -279 q 272 -200 272 -240 q 300 -132 272 -162 q 364 -107 325 -107 q 426 -132 401 -107 q 454 -200 454 -160 q 426 -268 454 -242 q 364 -292 400 -292 z "},"È":{"ha":728,"x_min":107,"x_max":668,"o":"m 388 985 l 208 1164 l 356 1213 l 474 1008 l 388 985 m 107 0 l 107 903 l 649 903 l 649 803 l 299 803 l 299 506 l 607 506 l 607 408 l 299 408 l 299 100 l 668 100 l 668 0 l 107 0 z "},"Ẻ":{"ha":728,"x_min":107,"x_max":668,"o":"m 107 0 l 107 903 l 649 903 l 649 803 l 299 803 l 299 506 l 607 506 l 607 408 l 299 408 l 299 100 l 668 100 l 668 0 l 107 0 m 318 983 q 317 1013 317 993 q 322 1031 317 1024 q 342 1050 328 1038 q 363 1070 356 1061 q 369 1094 369 1079 q 315 1150 369 1150 q 285 1144 299 1150 q 263 1133 271 1139 q 254 1126 256 1128 l 208 1206 q 226 1216 213 1208 q 264 1231 240 1224 q 315 1239 288 1239 q 467 1111 467 1239 q 456 1068 467 1085 q 424 1032 444 1051 q 404 1013 410 1019 q 399 996 399 1006 l 399 985 l 318 983 z "},"Ē":{"ha":728,"x_min":107,"x_max":668,"o":"m 253 1054 l 253 1135 l 550 1135 l 550 1054 l 253 1054 m 107 0 l 107 903 l 649 903 l 649 803 l 299 803 l 299 506 l 607 506 l 607 408 l 299 408 l 299 100 l 668 100 l 668 0 l 107 0 z "},"Ę":{"ha":728,"x_min":107,"x_max":668,"o":"m 653 -347 q 486 -313 547 -347 q 425 -185 425 -279 q 547 0 425 -85 l 107 0 l 107 903 l 649 903 l 649 803 l 299 803 l 299 506 l 607 506 l 607 408 l 299 408 l 299 100 l 668 100 l 668 0 l 643 0 q 577 -62 607 -21 q 547 -171 547 -103 q 572 -256 547 -233 q 653 -279 596 -279 l 653 -347 z "},"Ẽ":{"ha":728,"x_min":107,"x_max":668,"o":"m 107 0 l 107 903 l 649 903 l 649 803 l 299 803 l 299 506 l 607 506 l 607 408 l 299 408 l 299 100 l 668 100 l 668 0 l 107 0 m 458 1029 q 403 1038 428 1029 q 342 1064 379 1046 q 290 1088 313 1079 q 243 1096 268 1096 q 203 1082 221 1096 q 175 1053 185 1068 q 163 1033 165 1038 l 113 1083 q 133 1121 113 1089 q 192 1181 154 1153 q 283 1208 231 1208 q 348 1199 321 1208 q 408 1171 375 1189 q 456 1150 438 1157 q 494 1143 474 1143 q 532 1153 517 1143 q 555 1174 547 1163 q 564 1188 563 1185 l 614 1139 q 597 1106 614 1133 q 546 1053 581 1078 q 458 1029 511 1029 z "},"F":{"ha":678,"x_min":107,"x_max":656,"o":"m 107 0 l 107 903 l 656 903 l 656 803 l 299 803 l 299 469 l 610 469 l 610 372 l 299 372 l 299 0 l 107 0 z "},"G":{"ha":868,"x_min":50,"x_max":785,"o":"m 438 -15 q 151 107 253 -15 q 50 449 50 229 q 160 792 50 668 q 467 917 269 917 q 593 901 531 917 q 701 866 656 885 q 746 846 746 847 l 725 744 q 678 766 715 750 q 590 797 642 782 q 492 813 538 813 q 356 776 406 813 q 283 660 306 739 q 261 447 261 581 q 315 174 261 258 q 471 89 369 89 q 579 129 546 89 q 622 214 613 169 l 622 382 l 482 382 l 482 476 l 785 476 l 785 0 l 701 0 l 653 79 q 567 11 621 38 q 438 -15 514 -15 z "},"Ğ":{"ha":868,"x_min":50,"x_max":785,"o":"m 468 969 q 298 1032 335 969 q 261 1140 261 1094 l 353 1153 l 353 1147 q 360 1122 353 1140 q 394 1088 368 1104 q 468 1071 419 1071 q 544 1088 518 1071 q 577 1122 569 1104 q 585 1147 585 1140 l 585 1153 l 678 1140 q 640 1033 678 1096 q 468 969 603 969 m 438 -15 q 151 107 253 -15 q 50 449 50 229 q 160 792 50 668 q 467 917 269 917 q 593 901 531 917 q 701 866 656 885 q 746 846 746 847 l 725 744 q 678 766 715 750 q 590 797 642 782 q 492 813 538 813 q 356 776 406 813 q 283 660 306 739 q 261 447 261 581 q 315 174 261 258 q 471 89 369 89 q 579 129 546 89 q 622 214 613 169 l 622 382 l 482 382 l 482 476 l 785 476 l 785 0 l 701 0 l 653 79 q 567 11 621 38 q 438 -15 514 -15 z "},"Ģ":{"ha":868,"x_min":50,"x_max":785,"o":"m 438 -15 q 151 107 253 -15 q 50 449 50 229 q 160 792 50 668 q 467 917 269 917 q 593 901 531 917 q 701 866 656 885 q 746 846 746 847 l 725 744 q 678 766 715 750 q 590 797 642 782 q 492 813 538 813 q 356 776 406 813 q 283 660 306 739 q 261 447 261 581 q 315 174 261 258 q 471 89 369 89 q 579 129 546 89 q 622 214 613 169 l 622 382 l 482 382 l 482 476 l 785 476 l 785 0 l 701 0 l 653 79 q 567 11 621 38 q 438 -15 514 -15 m 372 -428 q 439 -342 415 -387 q 463 -253 463 -297 l 461 -236 l 451 -236 q 393 -214 418 -236 q 367 -150 367 -189 q 393 -86 367 -112 q 451 -64 415 -64 q 511 -86 488 -64 l 517 -93 q 553 -201 553 -135 q 514 -348 553 -272 q 413 -471 475 -424 l 372 -428 z "},"H":{"ha":910,"x_min":107,"x_max":803,"o":"m 107 0 l 107 903 l 299 903 l 299 508 l 611 508 l 611 903 l 803 903 l 803 0 l 611 0 l 611 411 l 299 411 l 299 0 l 107 0 z "},"I":{"ha":407,"x_min":107,"x_max":299,"o":"m 107 0 l 107 903 l 299 903 l 299 0 l 107 0 z "},"Í":{"ha":407,"x_min":107,"x_max":386,"o":"m 218 978 l 139 990 l 236 1201 l 386 1158 l 218 978 m 107 0 l 107 903 l 299 903 l 299 0 l 107 0 z "},"Î":{"ha":407,"x_min":17,"x_max":385,"o":"m 57 1001 l 17 1064 l 153 1233 l 250 1233 l 385 1064 l 346 1001 l 201 1119 l 57 1001 m 107 0 l 107 903 l 299 903 l 299 0 l 107 0 z "},"Ï":{"ha":407,"x_min":-22,"x_max":419,"o":"m 69 996 q 6 1021 33 996 q -22 1093 -22 1049 q 6 1165 -22 1136 q 69 1189 33 1189 q 133 1165 106 1189 q 161 1093 161 1133 q 133 1021 161 1051 q 69 996 107 996 m 328 996 q 264 1021 289 996 q 236 1093 236 1049 q 264 1165 236 1136 q 328 1189 290 1189 q 392 1165 364 1189 q 419 1093 419 1133 q 392 1021 419 1051 q 328 996 365 996 m 107 0 l 107 903 l 299 903 l 299 0 l 107 0 z "},"İ":{"ha":407,"x_min":99,"x_max":306,"o":"m 204 986 q 131 1014 163 986 q 99 1093 99 1046 q 131 1171 99 1139 q 204 1199 160 1199 q 275 1172 247 1199 q 306 1093 306 1140 q 275 1013 306 1044 q 204 986 244 986 m 107 0 l 107 903 l 299 903 l 299 0 l 107 0 z "},"Ị":{"ha":407,"x_min":107,"x_max":299,"o":"m 107 0 l 107 903 l 299 903 l 299 0 l 107 0 m 204 -292 q 170 -285 188 -292 q 140 -268 153 -279 q 113 -200 113 -240 q 140 -132 113 -162 q 204 -107 165 -107 q 267 -132 242 -107 q 294 -200 294 -160 q 267 -268 294 -242 q 204 -292 240 -292 z "},"Ì":{"ha":407,"x_min":6,"x_max":299,"o":"m 185 985 l 6 1164 l 153 1213 l 271 1008 l 185 985 m 107 0 l 107 903 l 299 903 l 299 0 l 107 0 z "},"Ỉ":{"ha":407,"x_min":49,"x_max":307,"o":"m 107 0 l 107 903 l 299 903 l 299 0 l 107 0 m 158 983 q 157 1013 157 993 q 163 1031 157 1024 q 182 1050 168 1038 q 203 1070 196 1061 q 210 1094 210 1079 q 156 1150 210 1150 q 125 1144 139 1150 q 103 1133 111 1139 q 94 1126 96 1128 l 49 1206 q 67 1216 53 1208 q 104 1231 81 1224 q 156 1239 128 1239 q 307 1111 307 1239 q 296 1068 307 1085 q 264 1032 285 1051 q 244 1013 250 1019 q 239 996 239 1006 l 239 985 l 158 983 z "},"Ī":{"ha":407,"x_min":57,"x_max":354,"o":"m 57 1054 l 57 1135 l 354 1135 l 354 1054 l 57 1054 m 107 0 l 107 903 l 299 903 l 299 0 l 107 0 z "},"Į":{"ha":407,"x_min":-46,"x_max":299,"o":"m 182 -347 q 15 -313 76 -347 q -46 -185 -46 -279 q -1 -69 -46 -119 q 107 19 44 -18 l 107 903 l 299 903 l 299 0 l 172 0 q 106 -62 136 -21 q 76 -171 76 -103 q 101 -256 76 -233 q 182 -279 125 -279 l 182 -347 z "},"Ĩ":{"ha":407,"x_min":-47,"x_max":454,"o":"m 107 0 l 107 903 l 299 903 l 299 0 l 107 0 m 299 1029 q 244 1038 268 1029 q 182 1064 219 1046 q 131 1088 153 1079 q 83 1096 108 1096 q 43 1082 61 1096 q 15 1053 25 1068 q 3 1033 6 1038 l -47 1083 q -26 1121 -47 1089 q 33 1181 -6 1153 q 124 1208 71 1208 q 188 1199 161 1208 q 249 1171 215 1189 q 296 1150 278 1157 q 335 1143 314 1143 q 372 1153 357 1143 q 395 1174 388 1163 q 404 1188 403 1185 l 454 1139 q 438 1106 454 1133 q 386 1053 421 1078 q 299 1029 351 1029 z "},"J":{"ha":533,"x_min":6,"x_max":438,"o":"m 185 -15 q 83 -3 122 -15 q 24 24 43 10 q 6 42 6 39 l 47 122 q 61 110 50 119 q 94 92 72 100 q 143 83 115 83 q 221 128 196 83 q 246 297 246 174 l 246 903 l 438 903 l 438 297 q 376 55 438 125 q 185 -15 314 -15 z "},"K":{"ha":860,"x_min":107,"x_max":843,"o":"m 107 0 l 107 903 l 299 903 l 299 485 l 381 544 l 646 903 l 779 903 l 506 550 l 843 0 l 600 0 l 358 406 l 299 364 l 299 0 l 107 0 z "},"Ķ":{"ha":869,"x_min":107,"x_max":843,"o":"m 107 0 l 107 903 l 299 903 l 299 485 l 381 544 l 646 903 l 779 903 l 506 550 l 843 0 l 600 0 l 358 406 l 299 364 l 299 0 l 107 0 m 356 -428 q 422 -342 399 -387 q 446 -253 446 -297 l 444 -236 l 435 -236 q 376 -214 401 -236 q 350 -150 350 -189 q 376 -86 350 -112 q 435 -64 399 -64 q 494 -86 471 -64 l 500 -93 q 536 -201 536 -135 q 497 -348 536 -272 q 396 -471 458 -424 l 356 -428 z "},"L":{"ha":665,"x_min":107,"x_max":649,"o":"m 107 0 l 107 903 l 299 903 l 299 100 l 649 100 l 649 0 l 107 0 z "},"Ĺ":{"ha":682,"x_min":107,"x_max":649,"o":"m 240 978 l 161 990 l 258 1201 l 408 1158 l 240 978 m 107 0 l 107 903 l 299 903 l 299 100 l 649 100 l 649 0 l 107 0 z "},"Ľ":{"ha":682,"x_min":-3,"x_max":649,"o":"m 157 982 l -3 1174 l 56 1222 l 206 1093 l 356 1222 l 414 1168 l 254 982 l 157 982 m 107 0 l 107 903 l 299 903 l 299 100 l 649 100 l 649 0 l 107 0 z "},"Ļ":{"ha":682,"x_min":107,"x_max":649,"o":"m 107 0 l 107 903 l 299 903 l 299 100 l 649 100 l 649 0 l 107 0 m 293 -428 q 360 -342 336 -387 q 383 -253 383 -297 l 382 -236 l 372 -236 q 314 -214 339 -236 q 288 -150 288 -189 q 314 -86 288 -112 q 372 -64 336 -64 q 432 -86 408 -64 l 438 -93 q 474 -201 474 -135 q 435 -348 474 -272 q 333 -471 396 -424 l 293 -428 z "},"Ł":{"ha":714,"x_min":43,"x_max":696,"o":"m 154 0 l 154 300 l 89 253 l 43 311 l 154 393 l 154 903 l 346 903 l 346 533 l 483 635 l 529 576 l 346 442 l 346 100 l 696 100 l 696 0 l 154 0 z "},"M":{"ha":1189,"x_min":107,"x_max":1082,"o":"m 107 0 l 118 903 l 350 903 l 603 238 l 608 238 l 857 903 l 1072 903 l 1082 0 l 894 0 l 885 683 l 881 683 l 629 0 l 486 0 l 235 683 l 231 683 l 226 0 l 107 0 z "},"N":{"ha":904,"x_min":107,"x_max":797,"o":"m 107 0 l 107 903 l 306 903 l 685 290 l 688 290 l 678 353 l 678 903 l 797 903 l 797 0 l 647 0 l 218 678 l 215 678 l 226 597 l 226 0 l 107 0 z "},"Ń":{"ha":904,"x_min":107,"x_max":797,"o":"m 508 978 l 429 990 l 526 1201 l 676 1158 l 508 978 m 107 0 l 107 903 l 306 903 l 685 290 l 688 290 l 678 353 l 678 903 l 797 903 l 797 0 l 647 0 l 218 678 l 215 678 l 226 597 l 226 0 l 107 0 z "},"Ň":{"ha":904,"x_min":107,"x_max":797,"o":"m 450 982 l 290 1174 l 349 1222 l 499 1093 l 649 1222 l 707 1168 l 547 982 l 450 982 m 107 0 l 107 903 l 306 903 l 685 290 l 688 290 l 678 353 l 678 903 l 797 903 l 797 0 l 647 0 l 218 678 l 215 678 l 226 597 l 226 0 l 107 0 z "},"Ņ":{"ha":904,"x_min":107,"x_max":797,"o":"m 107 0 l 107 903 l 306 903 l 685 290 l 688 290 l 678 353 l 678 903 l 797 903 l 797 0 l 647 0 l 218 678 l 215 678 l 226 597 l 226 0 l 107 0 m 360 -428 q 426 -342 403 -387 q 450 -253 450 -297 l 449 -236 l 439 -236 q 381 -214 406 -236 q 354 -150 354 -189 q 381 -86 354 -112 q 439 -64 403 -64 q 499 -86 475 -64 l 504 -93 q 540 -201 540 -135 q 501 -348 540 -272 q 400 -471 463 -424 l 360 -428 z "},"Ñ":{"ha":904,"x_min":107,"x_max":797,"o":"m 572 1008 q 517 1017 542 1008 q 456 1043 493 1025 q 404 1067 426 1058 q 357 1075 382 1075 q 317 1061 335 1075 q 289 1032 299 1047 q 276 1013 279 1017 l 226 1063 q 247 1100 226 1068 q 306 1160 268 1132 q 397 1188 344 1188 q 462 1178 435 1188 q 522 1150 489 1168 q 569 1129 551 1136 q 608 1122 588 1122 q 646 1132 631 1122 q 669 1153 661 1142 q 678 1167 676 1164 l 728 1118 q 711 1085 728 1113 q 660 1033 694 1057 q 572 1008 625 1008 m 107 0 l 107 903 l 306 903 l 685 290 l 688 290 l 678 353 l 678 903 l 797 903 l 797 0 l 647 0 l 218 678 l 215 678 l 226 597 l 226 0 l 107 0 z "},"O":{"ha":921,"x_min":50,"x_max":871,"o":"m 458 -15 q 156 109 263 -15 q 50 450 50 233 q 156 792 50 667 q 458 917 263 917 q 763 791 656 917 q 871 450 871 665 q 763 110 871 235 q 458 -15 656 -15 m 458 83 q 612 170 565 83 q 658 450 658 257 q 611 729 658 642 q 458 817 564 817 q 308 729 354 817 q 261 450 261 642 q 307 170 261 257 q 458 83 353 83 z "},"Ó":{"ha":921,"x_min":50,"x_max":871,"o":"m 474 978 l 394 990 l 492 1201 l 642 1158 l 474 978 m 458 -15 q 156 109 263 -15 q 50 450 50 233 q 156 792 50 667 q 458 917 263 917 q 763 791 656 917 q 871 450 871 665 q 763 110 871 235 q 458 -15 656 -15 m 458 83 q 612 170 565 83 q 658 450 658 257 q 611 729 658 642 q 458 817 564 817 q 308 729 354 817 q 261 450 261 642 q 307 170 261 257 q 458 83 353 83 z "},"Ô":{"ha":921,"x_min":50,"x_max":871,"o":"m 314 1001 l 274 1064 l 410 1233 l 507 1233 l 642 1064 l 603 1001 l 458 1119 l 314 1001 m 458 -15 q 156 109 263 -15 q 50 450 50 233 q 156 792 50 667 q 458 917 263 917 q 763 791 656 917 q 871 450 871 665 q 763 110 871 235 q 458 -15 656 -15 m 458 83 q 612 170 565 83 q 658 450 658 257 q 611 729 658 642 q 458 817 564 817 q 308 729 354 817 q 261 450 261 642 q 307 170 261 257 q 458 83 353 83 z "},"Ố":{"ha":921,"x_min":50,"x_max":871,"o":"m 458 -15 q 156 109 263 -15 q 50 450 50 233 q 156 792 50 667 q 458 917 263 917 q 763 791 656 917 q 871 450 871 665 q 763 110 871 235 q 458 -15 656 -15 m 458 83 q 612 170 565 83 q 658 450 658 257 q 611 729 658 642 q 458 817 564 817 q 308 729 354 817 q 261 450 261 642 q 307 170 261 257 q 458 83 353 83 m 317 972 l 276 1035 l 413 1204 l 510 1204 l 644 1035 l 606 972 l 461 1090 l 317 972 m 688 1118 l 608 1131 l 706 1342 l 856 1299 l 688 1118 z "},"Ộ":{"ha":921,"x_min":50,"x_max":871,"o":"m 458 -15 q 156 109 263 -15 q 50 450 50 233 q 156 792 50 667 q 458 917 263 917 q 763 791 656 917 q 871 450 871 665 q 763 110 871 235 q 458 -15 656 -15 m 458 83 q 612 170 565 83 q 658 450 658 257 q 611 729 658 642 q 458 817 564 817 q 308 729 354 817 q 261 450 261 642 q 307 170 261 257 q 458 83 353 83 m 461 -292 q 427 -285 444 -292 q 397 -268 410 -279 q 369 -200 369 -240 q 397 -132 369 -162 q 461 -107 422 -107 q 524 -132 499 -107 q 551 -200 551 -160 q 524 -268 551 -242 q 461 -292 497 -292 m 317 972 l 276 1035 l 413 1204 l 510 1204 l 644 1035 l 606 972 l 461 1090 l 317 972 z "},"Ồ":{"ha":921,"x_min":50,"x_max":871,"o":"m 458 -15 q 156 109 263 -15 q 50 450 50 233 q 156 792 50 667 q 458 917 263 917 q 763 791 656 917 q 871 450 871 665 q 763 110 871 235 q 458 -15 656 -15 m 458 83 q 612 170 565 83 q 658 450 658 257 q 611 729 658 642 q 458 817 564 817 q 308 729 354 817 q 261 450 261 642 q 307 170 261 257 q 458 83 353 83 m 317 972 l 276 1035 l 413 1204 l 510 1204 l 644 1035 l 606 972 l 461 1090 l 317 972 m 624 1178 l 444 1357 l 592 1406 l 710 1201 l 624 1178 z "},"Ổ":{"ha":921,"x_min":50,"x_max":871,"o":"m 458 -15 q 156 109 263 -15 q 50 450 50 233 q 156 792 50 667 q 458 917 263 917 q 763 791 656 917 q 871 450 871 665 q 763 110 871 235 q 458 -15 656 -15 m 458 83 q 612 170 565 83 q 658 450 658 257 q 611 729 658 642 q 458 817 564 817 q 308 729 354 817 q 261 450 261 642 q 307 170 261 257 q 458 83 353 83 m 317 972 l 276 1035 l 413 1204 l 510 1204 l 644 1035 l 606 972 l 461 1090 l 317 972 m 663 1122 q 661 1151 661 1132 q 667 1169 661 1163 q 686 1189 672 1176 q 707 1209 700 1200 q 714 1233 714 1218 q 660 1289 714 1289 q 629 1283 643 1289 q 608 1272 615 1278 q 599 1265 600 1267 l 553 1344 q 571 1355 557 1347 q 608 1370 585 1363 q 660 1378 632 1378 q 811 1250 811 1378 q 800 1207 811 1224 q 768 1171 789 1190 q 749 1151 754 1158 q 743 1135 743 1144 l 743 1124 l 663 1122 z "},"Ỗ":{"ha":921,"x_min":50,"x_max":871,"o":"m 458 -15 q 156 109 263 -15 q 50 450 50 233 q 156 792 50 667 q 458 917 263 917 q 763 791 656 917 q 871 450 871 665 q 763 110 871 235 q 458 -15 656 -15 m 458 83 q 612 170 565 83 q 658 450 658 257 q 611 729 658 642 q 458 817 564 817 q 308 729 354 817 q 261 450 261 642 q 307 170 261 257 q 458 83 353 83 m 317 972 l 276 1035 l 413 1204 l 510 1204 l 644 1035 l 606 972 l 461 1090 l 317 972 m 556 1233 q 501 1242 525 1233 q 439 1268 476 1250 q 388 1292 410 1283 q 340 1300 365 1300 q 300 1286 318 1300 q 272 1257 282 1272 q 260 1238 263 1242 l 210 1288 q 231 1325 210 1293 q 290 1385 251 1357 q 381 1413 328 1413 q 445 1403 418 1413 q 506 1375 472 1393 q 553 1354 535 1361 q 592 1347 571 1347 q 629 1357 614 1347 q 652 1378 644 1367 q 661 1392 660 1389 l 711 1343 q 694 1310 711 1338 q 643 1258 678 1282 q 556 1233 608 1233 z "},"Ö":{"ha":921,"x_min":50,"x_max":871,"o":"m 325 996 q 261 1021 289 996 q 233 1093 233 1049 q 261 1165 233 1136 q 325 1189 289 1189 q 389 1165 361 1189 q 417 1093 417 1133 q 389 1021 417 1051 q 325 996 363 996 m 583 996 q 519 1021 544 996 q 492 1093 492 1049 q 519 1165 492 1136 q 583 1189 546 1189 q 647 1165 619 1189 q 675 1093 675 1133 q 647 1021 675 1051 q 583 996 621 996 m 458 -15 q 156 109 263 -15 q 50 450 50 233 q 156 792 50 667 q 458 917 263 917 q 763 791 656 917 q 871 450 871 665 q 763 110 871 235 q 458 -15 656 -15 m 458 83 q 612 170 565 83 q 658 450 658 257 q 611 729 658 642 q 458 817 564 817 q 308 729 354 817 q 261 450 261 642 q 307 170 261 257 q 458 83 353 83 z "},"Ọ":{"ha":921,"x_min":50,"x_max":871,"o":"m 458 -15 q 156 109 263 -15 q 50 450 50 233 q 156 792 50 667 q 458 917 263 917 q 763 791 656 917 q 871 450 871 665 q 763 110 871 235 q 458 -15 656 -15 m 458 83 q 612 170 565 83 q 658 450 658 257 q 611 729 658 642 q 458 817 564 817 q 308 729 354 817 q 261 450 261 642 q 307 170 261 257 q 458 83 353 83 m 461 -292 q 427 -285 444 -292 q 397 -268 410 -279 q 369 -200 369 -240 q 397 -132 369 -162 q 461 -107 422 -107 q 524 -132 499 -107 q 551 -200 551 -160 q 524 -268 551 -242 q 461 -292 497 -292 z "},"Ò":{"ha":921,"x_min":50,"x_max":871,"o":"m 442 985 l 263 1164 l 410 1213 l 528 1008 l 442 985 m 458 -15 q 156 109 263 -15 q 50 450 50 233 q 156 792 50 667 q 458 917 263 917 q 763 791 656 917 q 871 450 871 665 q 763 110 871 235 q 458 -15 656 -15 m 458 83 q 612 170 565 83 q 658 450 658 257 q 611 729 658 642 q 458 817 564 817 q 308 729 354 817 q 261 450 261 642 q 307 170 261 257 q 458 83 353 83 z "},"Ỏ":{"ha":921,"x_min":50,"x_max":871,"o":"m 458 -15 q 156 109 263 -15 q 50 450 50 233 q 156 792 50 667 q 458 917 263 917 q 763 791 656 917 q 871 450 871 665 q 763 110 871 235 q 458 -15 656 -15 m 458 83 q 612 170 565 83 q 658 450 658 257 q 611 729 658 642 q 458 817 564 817 q 308 729 354 817 q 261 450 261 642 q 307 170 261 257 q 458 83 353 83 m 415 983 q 414 1013 414 993 q 419 1031 414 1024 q 439 1050 425 1038 q 460 1070 453 1061 q 467 1094 467 1079 q 413 1150 467 1150 q 382 1144 396 1150 q 360 1133 368 1139 q 351 1126 353 1128 l 306 1206 q 324 1216 310 1208 q 361 1231 338 1224 q 413 1239 385 1239 q 564 1111 564 1239 q 553 1068 564 1085 q 521 1032 542 1051 q 501 1013 507 1019 q 496 996 496 1006 l 496 985 l 415 983 z "},"Ơ":{"ha":921,"x_min":50,"x_max":871,"o":"m 697 850 q 826 690 782 792 q 871 450 871 588 q 763 110 871 235 q 458 -15 656 -15 q 156 109 263 -15 q 50 450 50 233 q 156 792 50 667 q 458 917 263 917 q 576 903 525 917 q 642 934 619 906 q 667 1026 665 963 l 788 1026 q 764 923 788 969 q 697 850 740 876 m 458 83 q 612 170 565 83 q 658 450 658 257 q 611 729 658 642 q 458 817 564 817 q 308 729 354 817 q 261 450 261 642 q 307 170 261 257 q 458 83 353 83 z "},"Ớ":{"ha":921,"x_min":50,"x_max":871,"o":"m 697 850 q 826 690 782 792 q 871 450 871 588 q 763 110 871 235 q 458 -15 656 -15 q 156 109 263 -15 q 50 450 50 233 q 156 792 50 667 q 458 917 263 917 q 576 903 525 917 q 642 934 619 906 q 667 1026 665 963 l 788 1026 q 764 923 788 969 q 697 850 740 876 m 458 83 q 612 170 565 83 q 658 450 658 257 q 611 729 658 642 q 458 817 564 817 q 308 729 354 817 q 261 450 261 642 q 307 170 261 257 q 458 83 353 83 m 417 999 l 338 1011 l 435 1222 l 585 1179 l 417 999 z "},"Ợ":{"ha":921,"x_min":50,"x_max":871,"o":"m 697 850 q 826 690 782 792 q 871 450 871 588 q 763 110 871 235 q 458 -15 656 -15 q 156 109 263 -15 q 50 450 50 233 q 156 792 50 667 q 458 917 263 917 q 576 903 525 917 q 642 934 619 906 q 667 1026 665 963 l 788 1026 q 764 923 788 969 q 697 850 740 876 m 458 83 q 612 170 565 83 q 658 450 658 257 q 611 729 658 642 q 458 817 564 817 q 308 729 354 817 q 261 450 261 642 q 307 170 261 257 q 458 83 353 83 m 461 -292 q 427 -285 444 -292 q 397 -268 410 -279 q 369 -200 369 -240 q 397 -132 369 -162 q 461 -107 422 -107 q 524 -132 499 -107 q 551 -200 551 -160 q 524 -268 551 -242 q 461 -292 497 -292 z "},"Ờ":{"ha":921,"x_min":50,"x_max":871,"o":"m 697 850 q 826 690 782 792 q 871 450 871 588 q 763 110 871 235 q 458 -15 656 -15 q 156 109 263 -15 q 50 450 50 233 q 156 792 50 667 q 458 917 263 917 q 576 903 525 917 q 642 934 619 906 q 667 1026 665 963 l 788 1026 q 764 923 788 969 q 697 850 740 876 m 458 83 q 612 170 565 83 q 658 450 658 257 q 611 729 658 642 q 458 817 564 817 q 308 729 354 817 q 261 450 261 642 q 307 170 261 257 q 458 83 353 83 m 507 1006 l 328 1185 l 475 1233 l 593 1029 l 507 1006 z "},"Ở":{"ha":921,"x_min":50,"x_max":871,"o":"m 697 850 q 826 690 782 792 q 871 450 871 588 q 763 110 871 235 q 458 -15 656 -15 q 156 109 263 -15 q 50 450 50 233 q 156 792 50 667 q 458 917 263 917 q 576 903 525 917 q 642 934 619 906 q 667 1026 665 963 l 788 1026 q 764 923 788 969 q 697 850 740 876 m 458 83 q 612 170 565 83 q 658 450 658 257 q 611 729 658 642 q 458 817 564 817 q 308 729 354 817 q 261 450 261 642 q 307 170 261 257 q 458 83 353 83 m 415 983 q 414 1013 414 993 q 419 1031 414 1024 q 439 1050 425 1038 q 460 1070 453 1061 q 467 1094 467 1079 q 413 1150 467 1150 q 382 1144 396 1150 q 360 1133 368 1139 q 351 1126 353 1128 l 306 1206 q 324 1216 310 1208 q 361 1231 338 1224 q 413 1239 385 1239 q 564 1111 564 1239 q 553 1068 564 1085 q 521 1032 542 1051 q 501 1013 507 1019 q 496 996 496 1006 l 496 985 l 415 983 z "},"Ỡ":{"ha":921,"x_min":50,"x_max":871,"o":"m 697 850 q 826 690 782 792 q 871 450 871 588 q 763 110 871 235 q 458 -15 656 -15 q 156 109 263 -15 q 50 450 50 233 q 156 792 50 667 q 458 917 263 917 q 576 903 525 917 q 642 934 619 906 q 667 1026 665 963 l 788 1026 q 764 923 788 969 q 697 850 740 876 m 458 83 q 612 170 565 83 q 658 450 658 257 q 611 729 658 642 q 458 817 564 817 q 308 729 354 817 q 261 450 261 642 q 307 170 261 257 q 458 83 353 83 m 556 1029 q 501 1038 525 1029 q 439 1064 476 1046 q 388 1088 410 1079 q 340 1096 365 1096 q 300 1082 318 1096 q 272 1053 282 1068 q 260 1033 263 1038 l 210 1083 q 231 1121 210 1089 q 290 1181 251 1153 q 381 1208 328 1208 q 445 1199 418 1208 q 506 1171 472 1189 q 553 1150 535 1157 q 592 1143 571 1143 q 629 1153 614 1143 q 652 1174 644 1163 q 661 1188 660 1185 l 711 1139 q 694 1106 711 1133 q 643 1053 678 1078 q 556 1029 608 1029 z "},"Ő":{"ha":921,"x_min":50,"x_max":871,"o":"m 368 968 l 297 1000 l 371 1213 l 499 1176 l 368 968 m 583 968 l 513 1000 l 588 1213 l 715 1176 l 583 968 m 458 -15 q 156 109 263 -15 q 50 450 50 233 q 156 792 50 667 q 458 917 263 917 q 763 791 656 917 q 871 450 871 665 q 763 110 871 235 q 458 -15 656 -15 m 458 83 q 612 170 565 83 q 658 450 658 257 q 611 729 658 642 q 458 817 564 817 q 308 729 354 817 q 261 450 261 642 q 307 170 261 257 q 458 83 353 83 z "},"Ō":{"ha":921,"x_min":50,"x_max":871,"o":"m 308 1054 l 308 1135 l 606 1135 l 606 1054 l 308 1054 m 458 -15 q 156 109 263 -15 q 50 450 50 233 q 156 792 50 667 q 458 917 263 917 q 763 791 656 917 q 871 450 871 665 q 763 110 871 235 q 458 -15 656 -15 m 458 83 q 612 170 565 83 q 658 450 658 257 q 611 729 658 642 q 458 817 564 817 q 308 729 354 817 q 261 450 261 642 q 307 170 261 257 q 458 83 353 83 z "},"Ø":{"ha":921,"x_min":50,"x_max":871,"o":"m 196 -133 l 263 26 q 104 187 158 78 q 50 450 50 296 q 156 792 50 667 q 458 917 263 917 q 628 886 549 917 l 679 1008 l 738 993 l 681 860 q 822 699 774 804 q 871 450 871 593 q 763 110 871 235 q 458 -15 656 -15 q 318 4 383 -15 l 253 -149 l 196 -133 m 579 772 q 458 817 532 817 q 308 729 354 817 q 261 450 261 642 q 317 153 261 236 l 579 772 m 458 83 q 612 170 565 83 q 658 450 658 257 q 618 713 658 626 l 361 107 q 458 83 399 83 z "},"Õ":{"ha":921,"x_min":50,"x_max":871,"o":"m 557 1008 q 502 1017 526 1008 q 440 1043 478 1025 q 389 1067 411 1058 q 342 1075 367 1075 q 301 1061 319 1075 q 274 1032 283 1047 q 261 1013 264 1017 l 211 1063 q 232 1100 211 1068 q 291 1160 253 1132 q 382 1188 329 1188 q 447 1178 419 1188 q 507 1150 474 1168 q 554 1129 536 1136 q 593 1122 572 1122 q 631 1132 615 1122 q 653 1153 646 1142 q 663 1167 661 1164 l 713 1118 q 696 1085 713 1113 q 644 1033 679 1057 q 557 1008 610 1008 m 458 -15 q 156 109 263 -15 q 50 450 50 233 q 156 792 50 667 q 458 917 263 917 q 763 791 656 917 q 871 450 871 665 q 763 110 871 235 q 458 -15 656 -15 m 458 83 q 612 170 565 83 q 658 450 658 257 q 611 729 658 642 q 458 817 564 817 q 308 729 354 817 q 261 450 261 642 q 307 170 261 257 q 458 83 353 83 z "},"Œ":{"ha":1290,"x_min":50,"x_max":1231,"o":"m 458 -15 q 156 109 263 -15 q 50 450 50 233 q 156 792 50 667 q 458 917 263 917 q 668 868 579 917 l 668 903 l 1211 903 l 1211 803 l 861 803 l 861 569 q 868 506 867 528 l 1169 506 l 1169 408 l 869 408 q 861 329 868 367 l 861 100 l 1231 100 l 1231 0 l 668 0 l 668 33 q 458 -15 579 -15 m 458 83 q 612 170 565 83 q 658 450 658 257 q 611 729 658 642 q 458 817 564 817 q 308 729 354 817 q 261 450 261 642 q 307 170 261 257 q 458 83 353 83 z "},"P":{"ha":740,"x_min":107,"x_max":708,"o":"m 107 903 l 383 903 q 623 826 538 903 q 708 597 708 749 q 661 418 708 489 q 540 315 614 347 q 388 282 467 282 l 299 282 l 299 0 l 107 0 l 107 903 m 365 371 q 468 419 435 371 q 501 589 501 467 q 468 763 501 713 q 365 813 435 813 l 299 813 l 299 371 l 365 371 z "},"Þ":{"ha":781,"x_min":136,"x_max":738,"o":"m 136 903 l 328 903 l 328 778 l 413 778 q 652 699 567 778 q 738 463 738 621 q 690 274 738 349 q 569 164 642 199 q 417 129 496 129 l 328 129 l 328 0 l 136 0 l 136 903 m 403 222 q 478 242 449 222 q 524 312 508 261 q 540 454 540 363 q 506 633 540 583 q 403 682 472 682 l 328 682 l 328 222 l 403 222 z "},"Q":{"ha":921,"x_min":50,"x_max":871,"o":"m 725 -274 q 531 -197 624 -274 q 392 -11 438 -121 q 138 131 226 10 q 50 450 50 253 q 156 792 50 667 q 458 917 263 917 q 764 796 657 917 q 871 460 871 675 q 793 156 871 278 q 572 -1 715 33 q 760 -187 664 -187 q 799 -179 778 -187 l 807 -260 q 725 -274 769 -274 m 458 83 q 611 172 564 83 q 658 450 658 261 q 610 727 658 638 q 458 817 563 817 q 308 728 356 817 q 261 450 261 639 q 307 172 261 260 q 458 83 353 83 z "},"R":{"ha":803,"x_min":107,"x_max":763,"o":"m 107 903 l 385 903 q 624 828 538 903 q 710 619 710 754 q 667 467 710 532 q 554 367 624 403 l 763 0 l 542 0 l 372 328 l 299 328 l 299 0 l 107 0 l 107 903 m 369 419 q 449 437 421 419 q 490 496 478 454 q 503 611 503 538 q 472 766 503 719 q 365 813 440 813 l 299 813 l 299 419 l 369 419 z "},"Ŕ":{"ha":803,"x_min":107,"x_max":763,"o":"m 397 978 l 318 990 l 415 1201 l 565 1158 l 397 978 m 107 903 l 385 903 q 624 828 538 903 q 710 619 710 754 q 667 467 710 532 q 554 367 624 403 l 763 0 l 542 0 l 372 328 l 299 328 l 299 0 l 107 0 l 107 903 m 369 419 q 449 437 421 419 q 490 496 478 454 q 503 611 503 538 q 472 766 503 719 q 365 813 440 813 l 299 813 l 299 419 l 369 419 z "},"Ř":{"ha":803,"x_min":107,"x_max":763,"o":"m 326 982 l 167 1174 l 225 1222 l 375 1093 l 525 1222 l 583 1168 l 424 982 l 326 982 m 107 903 l 385 903 q 624 828 538 903 q 710 619 710 754 q 667 467 710 532 q 554 367 624 403 l 763 0 l 542 0 l 372 328 l 299 328 l 299 0 l 107 0 l 107 903 m 369 419 q 449 437 421 419 q 490 496 478 454 q 503 611 503 538 q 472 766 503 719 q 365 813 440 813 l 299 813 l 299 419 l 369 419 z "},"Ŗ":{"ha":803,"x_min":107,"x_max":763,"o":"m 107 903 l 385 903 q 624 828 538 903 q 710 619 710 754 q 667 467 710 532 q 554 367 624 403 l 763 0 l 542 0 l 372 328 l 299 328 l 299 0 l 107 0 l 107 903 m 369 419 q 449 437 421 419 q 490 496 478 454 q 503 611 503 538 q 472 766 503 719 q 365 813 440 813 l 299 813 l 299 419 l 369 419 m 321 -428 q 388 -342 364 -387 q 411 -253 411 -297 l 410 -236 l 400 -236 q 342 -214 367 -236 q 315 -150 315 -189 q 342 -86 315 -112 q 400 -64 364 -64 q 460 -86 436 -64 l 465 -93 q 501 -201 501 -135 q 463 -348 501 -272 q 361 -471 424 -424 l 321 -428 z "},"S":{"ha":683,"x_min":43,"x_max":635,"o":"m 317 -15 q 164 9 225 -15 q 73 61 103 33 q 43 94 43 89 l 96 175 q 123 149 96 172 q 197 107 150 126 q 304 88 243 88 q 406 122 369 88 q 442 214 442 157 q 422 277 442 250 q 374 323 403 304 q 294 371 346 342 q 185 438 228 406 q 111 521 142 469 q 81 647 81 572 q 118 790 81 729 q 222 884 156 851 q 374 917 289 917 q 478 903 429 917 q 562 872 528 889 q 596 853 596 854 l 574 758 q 540 777 567 763 q 471 806 513 792 q 386 819 429 819 q 301 790 333 819 q 269 707 269 760 q 307 614 269 649 q 422 538 344 579 q 533 469 492 500 q 605 387 575 439 q 635 257 635 335 q 592 111 635 172 q 478 17 550 50 q 317 -15 406 -15 z "},"Ś":{"ha":683,"x_min":43,"x_max":635,"o":"m 392 978 l 313 990 l 410 1201 l 560 1158 l 392 978 m 317 -15 q 164 9 225 -15 q 73 61 103 33 q 43 94 43 89 l 96 175 q 123 149 96 172 q 197 107 150 126 q 304 88 243 88 q 406 122 369 88 q 442 214 442 157 q 422 277 442 250 q 374 323 403 304 q 294 371 346 342 q 185 438 228 406 q 111 521 142 469 q 81 647 81 572 q 118 790 81 729 q 222 884 156 851 q 374 917 289 917 q 478 903 429 917 q 562 872 528 889 q 596 853 596 854 l 574 758 q 540 777 567 763 q 471 806 513 792 q 386 819 429 819 q 301 790 333 819 q 269 707 269 760 q 307 614 269 649 q 422 538 344 579 q 533 469 492 500 q 605 387 575 439 q 635 257 635 335 q 592 111 635 172 q 478 17 550 50 q 317 -15 406 -15 z "},"Š":{"ha":683,"x_min":43,"x_max":635,"o":"m 319 982 l 160 1174 l 218 1222 l 368 1093 l 518 1222 l 576 1168 l 417 982 l 319 982 m 317 -15 q 164 9 225 -15 q 73 61 103 33 q 43 94 43 89 l 96 175 q 123 149 96 172 q 197 107 150 126 q 304 88 243 88 q 406 122 369 88 q 442 214 442 157 q 422 277 442 250 q 374 323 403 304 q 294 371 346 342 q 185 438 228 406 q 111 521 142 469 q 81 647 81 572 q 118 790 81 729 q 222 884 156 851 q 374 917 289 917 q 478 903 429 917 q 562 872 528 889 q 596 853 596 854 l 574 758 q 540 777 567 763 q 471 806 513 792 q 386 819 429 819 q 301 790 333 819 q 269 707 269 760 q 307 614 269 649 q 422 538 344 579 q 533 469 492 500 q 605 387 575 439 q 635 257 635 335 q 592 111 635 172 q 478 17 550 50 q 317 -15 406 -15 z "},"Ş":{"ha":683,"x_min":43,"x_max":635,"o":"m 313 -349 q 237 -335 267 -349 q 193 -304 207 -321 q 179 -285 179 -287 l 215 -244 q 227 -257 218 -247 q 253 -276 236 -267 q 292 -285 269 -285 q 361 -206 361 -285 q 340 -159 361 -172 q 298 -142 318 -146 q 278 -136 278 -137 l 293 -14 q 154 13 210 -11 q 71 64 99 38 q 43 94 43 90 l 96 175 q 123 149 96 172 q 197 107 150 126 q 304 88 243 88 q 406 122 369 88 q 442 214 442 157 q 422 277 442 250 q 374 323 403 304 q 294 371 346 342 q 185 438 228 406 q 111 521 142 469 q 81 647 81 572 q 118 790 81 729 q 222 884 156 851 q 374 917 289 917 q 478 903 429 917 q 562 872 528 889 q 596 853 596 854 l 574 758 q 540 777 567 763 q 471 806 513 792 q 386 819 429 819 q 301 790 333 819 q 269 707 269 760 q 307 614 269 649 q 422 538 344 579 q 533 469 492 500 q 605 387 575 439 q 635 257 635 335 q 556 69 635 140 q 354 -14 476 -3 l 347 -81 q 381 -94 347 -82 q 442 -133 414 -106 q 471 -208 471 -161 q 430 -310 471 -272 q 313 -349 389 -349 z "},"ẞ":{"ha":914,"x_min":110,"x_max":864,"o":"m 567 -15 q 463 -3 506 -15 q 398 24 421 10 q 375 40 375 38 l 411 132 q 430 119 415 129 q 472 99 444 108 q 535 89 500 89 q 631 131 597 89 q 665 268 665 172 q 645 397 665 360 q 576 435 625 435 q 540 422 556 435 q 517 396 525 410 l 514 390 l 417 471 l 578 803 l 472 803 q 342 744 383 803 q 301 538 301 685 l 301 0 l 110 0 l 110 575 q 192 819 110 735 q 440 903 275 903 l 747 903 l 747 838 l 581 519 q 611 522 600 522 q 792 455 721 522 q 864 268 864 388 q 822 113 864 178 q 711 17 779 49 q 567 -15 643 -15 z "},"T":{"ha":717,"x_min":19,"x_max":697,"o":"m 263 0 l 263 803 l 19 803 l 19 903 l 697 903 l 697 803 l 456 803 l 456 0 l 263 0 z "},"Ť":{"ha":717,"x_min":19,"x_max":697,"o":"m 307 982 l 147 1174 l 206 1222 l 356 1093 l 506 1222 l 564 1168 l 404 982 l 307 982 m 263 0 l 263 803 l 19 803 l 19 903 l 697 903 l 697 803 l 456 803 l 456 0 l 263 0 z "},"Ț":{"ha":717,"x_min":19,"x_max":697,"o":"m 263 0 l 263 803 l 19 803 l 19 903 l 697 903 l 697 803 l 456 803 l 456 0 l 263 0 m 278 -428 q 344 -342 321 -387 q 368 -253 368 -297 l 367 -236 l 357 -236 q 299 -214 324 -236 q 272 -150 272 -189 q 299 -86 272 -112 q 357 -64 321 -64 q 417 -86 393 -64 l 422 -93 q 458 -201 458 -135 q 419 -348 458 -272 q 318 -471 381 -424 l 278 -428 z "},"U":{"ha":853,"x_min":94,"x_max":757,"o":"m 426 -15 q 178 75 263 -15 q 94 328 94 165 l 94 903 l 288 903 l 288 371 q 328 156 288 221 q 457 90 369 90 q 594 158 550 90 q 639 371 639 226 l 639 903 l 757 903 l 757 328 q 679 74 757 164 q 426 -15 601 -15 z "},"Ú":{"ha":853,"x_min":94,"x_max":757,"o":"m 457 978 l 378 990 l 475 1201 l 625 1158 l 457 978 m 426 -15 q 178 75 263 -15 q 94 328 94 165 l 94 903 l 288 903 l 288 371 q 328 156 288 221 q 457 90 369 90 q 594 158 550 90 q 639 371 639 226 l 639 903 l 757 903 l 757 328 q 679 74 757 164 q 426 -15 601 -15 z "},"Û":{"ha":853,"x_min":94,"x_max":757,"o":"m 315 1001 l 275 1064 l 411 1233 l 508 1233 l 643 1064 l 604 1001 l 460 1119 l 315 1001 m 426 -15 q 178 75 263 -15 q 94 328 94 165 l 94 903 l 288 903 l 288 371 q 328 156 288 221 q 457 90 369 90 q 594 158 550 90 q 639 371 639 226 l 639 903 l 757 903 l 757 328 q 679 74 757 164 q 426 -15 601 -15 z "},"Ü":{"ha":853,"x_min":94,"x_max":757,"o":"m 326 996 q 263 1021 289 996 q 235 1093 235 1049 q 263 1165 235 1136 q 326 1189 290 1189 q 390 1165 363 1189 q 418 1093 418 1133 q 390 1021 418 1051 q 326 996 363 996 m 585 996 q 521 1021 546 996 q 493 1093 493 1049 q 521 1165 493 1136 q 585 1189 547 1189 q 649 1165 621 1189 q 676 1093 676 1133 q 649 1021 676 1051 q 585 996 622 996 m 426 -15 q 178 75 263 -15 q 94 328 94 165 l 94 903 l 288 903 l 288 371 q 328 156 288 221 q 457 90 369 90 q 594 158 550 90 q 639 371 639 226 l 639 903 l 757 903 l 757 328 q 679 74 757 164 q 426 -15 601 -15 z "},"Ụ":{"ha":853,"x_min":94,"x_max":757,"o":"m 426 -15 q 178 75 263 -15 q 94 328 94 165 l 94 903 l 288 903 l 288 371 q 328 156 288 221 q 457 90 369 90 q 594 158 550 90 q 639 371 639 226 l 639 903 l 757 903 l 757 328 q 679 74 757 164 q 426 -15 601 -15 m 426 -292 q 392 -285 410 -292 q 363 -268 375 -279 q 335 -200 335 -240 q 363 -132 335 -162 q 426 -107 388 -107 q 489 -132 464 -107 q 517 -200 517 -160 q 489 -268 517 -242 q 426 -292 463 -292 z "},"Ù":{"ha":853,"x_min":94,"x_max":757,"o":"m 467 985 l 288 1164 l 435 1213 l 553 1008 l 467 985 m 426 -15 q 178 75 263 -15 q 94 328 94 165 l 94 903 l 288 903 l 288 371 q 328 156 288 221 q 457 90 369 90 q 594 158 550 90 q 639 371 639 226 l 639 903 l 757 903 l 757 328 q 679 74 757 164 q 426 -15 601 -15 z "},"Ủ":{"ha":853,"x_min":94,"x_max":757,"o":"m 426 -15 q 178 75 263 -15 q 94 328 94 165 l 94 903 l 288 903 l 288 371 q 328 156 288 221 q 457 90 369 90 q 594 158 550 90 q 639 371 639 226 l 639 903 l 757 903 l 757 328 q 679 74 757 164 q 426 -15 601 -15 m 381 983 q 379 1013 379 993 q 385 1031 379 1024 q 404 1050 390 1038 q 425 1070 418 1061 q 432 1094 432 1079 q 378 1150 432 1150 q 347 1144 361 1150 q 326 1133 333 1139 q 317 1126 318 1128 l 271 1206 q 289 1216 275 1208 q 326 1231 303 1224 q 378 1239 350 1239 q 529 1111 529 1239 q 518 1068 529 1085 q 486 1032 507 1051 q 467 1013 472 1019 q 461 996 461 1006 l 461 985 l 381 983 z "},"Ư":{"ha":853,"x_min":94,"x_max":889,"o":"m 889 1026 q 854 904 889 956 q 757 831 819 853 l 757 328 q 679 74 757 164 q 426 -15 601 -15 q 178 75 263 -15 q 94 328 94 165 l 94 903 l 288 903 l 288 371 q 328 156 288 221 q 457 90 369 90 q 594 158 550 90 q 639 371 639 226 l 639 903 l 669 903 q 742 931 717 903 q 768 1026 767 960 l 889 1026 z "},"Ứ":{"ha":853,"x_min":94,"x_max":889,"o":"m 889 1026 q 854 904 889 956 q 757 831 819 853 l 757 328 q 679 74 757 164 q 426 -15 601 -15 q 178 75 263 -15 q 94 328 94 165 l 94 903 l 288 903 l 288 371 q 328 156 288 221 q 457 90 369 90 q 594 158 550 90 q 639 371 639 226 l 639 903 l 669 903 q 742 931 717 903 q 768 1026 767 960 l 889 1026 m 382 999 l 303 1011 l 400 1222 l 550 1179 l 382 999 z "},"Ự":{"ha":853,"x_min":94,"x_max":889,"o":"m 889 1026 q 854 904 889 956 q 757 831 819 853 l 757 328 q 679 74 757 164 q 426 -15 601 -15 q 178 75 263 -15 q 94 328 94 165 l 94 903 l 288 903 l 288 371 q 328 156 288 221 q 457 90 369 90 q 594 158 550 90 q 639 371 639 226 l 639 903 l 669 903 q 742 931 717 903 q 768 1026 767 960 l 889 1026 m 426 -292 q 392 -285 410 -292 q 363 -268 375 -279 q 335 -200 335 -240 q 363 -132 335 -162 q 426 -107 388 -107 q 489 -132 464 -107 q 517 -200 517 -160 q 489 -268 517 -242 q 426 -292 463 -292 z "},"Ừ":{"ha":853,"x_min":94,"x_max":889,"o":"m 889 1026 q 854 904 889 956 q 757 831 819 853 l 757 328 q 679 74 757 164 q 426 -15 601 -15 q 178 75 263 -15 q 94 328 94 165 l 94 903 l 288 903 l 288 371 q 328 156 288 221 q 457 90 369 90 q 594 158 550 90 q 639 371 639 226 l 639 903 l 669 903 q 742 931 717 903 q 768 1026 767 960 l 889 1026 m 472 1006 l 293 1185 l 440 1233 l 558 1029 l 472 1006 z "},"Ử":{"ha":853,"x_min":94,"x_max":889,"o":"m 889 1026 q 854 904 889 956 q 757 831 819 853 l 757 328 q 679 74 757 164 q 426 -15 601 -15 q 178 75 263 -15 q 94 328 94 165 l 94 903 l 288 903 l 288 371 q 328 156 288 221 q 457 90 369 90 q 594 158 550 90 q 639 371 639 226 l 639 903 l 669 903 q 742 931 717 903 q 768 1026 767 960 l 889 1026 m 381 983 q 379 1013 379 993 q 385 1031 379 1024 q 404 1050 390 1038 q 425 1070 418 1061 q 432 1094 432 1079 q 378 1150 432 1150 q 347 1144 361 1150 q 326 1133 333 1139 q 317 1126 318 1128 l 271 1206 q 289 1216 275 1208 q 326 1231 303 1224 q 378 1239 350 1239 q 529 1111 529 1239 q 518 1068 529 1085 q 486 1032 507 1051 q 467 1013 472 1019 q 461 996 461 1006 l 461 985 l 381 983 z "},"Ữ":{"ha":853,"x_min":94,"x_max":889,"o":"m 889 1026 q 854 904 889 956 q 757 831 819 853 l 757 328 q 679 74 757 164 q 426 -15 601 -15 q 178 75 263 -15 q 94 328 94 165 l 94 903 l 288 903 l 288 371 q 328 156 288 221 q 457 90 369 90 q 594 158 550 90 q 639 371 639 226 l 639 903 l 669 903 q 742 931 717 903 q 768 1026 767 960 l 889 1026 m 521 1029 q 466 1038 490 1029 q 404 1064 442 1046 q 353 1088 375 1079 q 306 1096 331 1096 q 265 1082 283 1096 q 238 1053 247 1068 q 225 1033 228 1038 l 175 1083 q 196 1121 175 1089 q 255 1181 217 1153 q 346 1208 293 1208 q 410 1199 383 1208 q 471 1171 438 1189 q 518 1150 500 1157 q 557 1143 536 1143 q 594 1153 579 1143 q 617 1174 610 1163 q 626 1188 625 1185 l 676 1139 q 660 1106 676 1133 q 608 1053 643 1078 q 521 1029 574 1029 z "},"Ű":{"ha":853,"x_min":94,"x_max":757,"o":"m 347 968 l 276 1000 l 350 1213 l 478 1176 l 347 968 m 563 968 l 492 1000 l 567 1213 l 694 1176 l 563 968 m 426 -15 q 178 75 263 -15 q 94 328 94 165 l 94 903 l 288 903 l 288 371 q 328 156 288 221 q 457 90 369 90 q 594 158 550 90 q 639 371 639 226 l 639 903 l 757 903 l 757 328 q 679 74 757 164 q 426 -15 601 -15 z "},"Ū":{"ha":853,"x_min":94,"x_max":757,"o":"m 304 1054 l 304 1135 l 601 1135 l 601 1054 l 304 1054 m 426 -15 q 178 75 263 -15 q 94 328 94 165 l 94 903 l 288 903 l 288 371 q 328 156 288 221 q 457 90 369 90 q 594 158 550 90 q 639 371 639 226 l 639 903 l 757 903 l 757 328 q 679 74 757 164 q 426 -15 601 -15 z "},"Ų":{"ha":853,"x_min":94,"x_max":757,"o":"m 547 -347 q 381 -313 442 -347 q 319 -185 319 -279 q 421 -15 319 -94 q 176 76 258 -14 q 94 328 94 167 l 94 903 l 288 903 l 288 371 q 328 156 288 221 q 457 90 369 90 q 594 158 550 90 q 639 371 639 226 l 639 903 l 757 903 l 757 328 q 528 -6 757 40 q 468 -68 494 -28 q 442 -171 442 -108 q 466 -256 442 -233 q 547 -279 490 -279 l 547 -347 z "},"Ů":{"ha":853,"x_min":94,"x_max":757,"o":"m 446 949 q 340 988 379 949 q 300 1099 300 1028 q 341 1208 300 1168 q 446 1247 382 1247 q 550 1207 508 1247 q 592 1099 592 1167 q 551 989 592 1029 q 446 949 511 949 m 446 1008 q 506 1031 483 1008 q 528 1100 528 1054 q 505 1166 528 1143 q 446 1189 482 1189 q 387 1166 410 1189 q 364 1100 364 1143 q 386 1031 364 1054 q 446 1008 408 1008 m 426 -15 q 178 75 263 -15 q 94 328 94 165 l 94 903 l 288 903 l 288 371 q 328 156 288 221 q 457 90 369 90 q 594 158 550 90 q 639 371 639 226 l 639 903 l 757 903 l 757 328 q 679 74 757 164 q 426 -15 601 -15 z "},"Ũ":{"ha":853,"x_min":94,"x_max":757,"o":"m 426 -15 q 178 75 263 -15 q 94 328 94 165 l 94 903 l 288 903 l 288 371 q 328 156 288 221 q 457 90 369 90 q 594 158 550 90 q 639 371 639 226 l 639 903 l 757 903 l 757 328 q 679 74 757 164 q 426 -15 601 -15 m 521 1029 q 466 1038 490 1029 q 404 1064 442 1046 q 353 1088 375 1079 q 306 1096 331 1096 q 265 1082 283 1096 q 238 1053 247 1068 q 225 1033 228 1038 l 175 1083 q 196 1121 175 1089 q 255 1181 217 1153 q 346 1208 293 1208 q 410 1199 383 1208 q 471 1171 438 1189 q 518 1150 500 1157 q 557 1143 536 1143 q 594 1153 579 1143 q 617 1174 610 1163 q 626 1188 625 1185 l 676 1139 q 660 1106 676 1133 q 608 1053 643 1078 q 521 1029 574 1029 z "},"V":{"ha":800,"x_min":13,"x_max":786,"o":"m 283 0 l 13 903 l 215 903 l 429 140 l 433 140 l 665 903 l 786 903 l 496 0 l 283 0 z "},"W":{"ha":1213,"x_min":13,"x_max":1199,"o":"m 253 0 l 13 903 l 217 903 l 383 219 l 386 219 l 571 903 l 725 903 l 915 224 l 919 224 l 1076 903 l 1199 903 l 963 0 l 799 0 l 610 667 l 607 667 l 419 0 l 253 0 z "},"X":{"ha":807,"x_min":11,"x_max":796,"o":"m 11 0 l 292 439 l 24 903 l 264 903 l 431 579 l 435 579 l 628 903 l 764 903 l 500 486 l 796 0 l 557 0 l 364 344 l 360 344 l 156 0 l 11 0 z "},"Y":{"ha":726,"x_min":-10,"x_max":735,"o":"m 271 0 l 271 349 l -10 903 l 206 903 l 404 493 l 407 493 l 601 903 l 735 903 l 464 369 l 464 0 l 271 0 z "},"Ý":{"ha":726,"x_min":-10,"x_max":735,"o":"m 410 978 l 331 990 l 428 1201 l 578 1158 l 410 978 m 271 0 l 271 349 l -10 903 l 206 903 l 404 493 l 407 493 l 601 903 l 735 903 l 464 369 l 464 0 l 271 0 z "},"Ÿ":{"ha":726,"x_min":-10,"x_max":735,"o":"m 269 996 q 206 1021 233 996 q 178 1093 178 1049 q 206 1165 178 1136 q 269 1189 233 1189 q 333 1165 306 1189 q 361 1093 361 1133 q 333 1021 361 1051 q 269 996 307 996 m 528 996 q 464 1021 489 996 q 436 1093 436 1049 q 464 1165 436 1136 q 528 1189 490 1189 q 592 1165 564 1189 q 619 1093 619 1133 q 592 1021 619 1051 q 528 996 565 996 m 271 0 l 271 349 l -10 903 l 206 903 l 404 493 l 407 493 l 601 903 l 735 903 l 464 369 l 464 0 l 271 0 z "},"Ỵ":{"ha":726,"x_min":-10,"x_max":735,"o":"m 271 0 l 271 349 l -10 903 l 206 903 l 404 493 l 407 493 l 601 903 l 735 903 l 464 369 l 464 0 l 271 0 m 364 -292 q 330 -285 347 -292 q 300 -268 313 -279 q 272 -200 272 -240 q 300 -132 272 -162 q 364 -107 325 -107 q 426 -132 401 -107 q 454 -200 454 -160 q 426 -268 454 -242 q 364 -292 400 -292 z "},"Ỳ":{"ha":726,"x_min":-10,"x_max":735,"o":"m 271 0 l 271 349 l -10 903 l 206 903 l 404 493 l 407 493 l 601 903 l 735 903 l 464 369 l 464 0 l 271 0 m 410 1006 l 231 1185 l 378 1233 l 496 1029 l 410 1006 z "},"Ỷ":{"ha":726,"x_min":-10,"x_max":735,"o":"m 271 0 l 271 349 l -10 903 l 206 903 l 404 493 l 407 493 l 601 903 l 735 903 l 464 369 l 464 0 l 271 0 m 318 983 q 317 1013 317 993 q 322 1031 317 1024 q 342 1050 328 1038 q 363 1070 356 1061 q 369 1094 369 1079 q 315 1150 369 1150 q 285 1144 299 1150 q 263 1133 271 1139 q 254 1126 256 1128 l 208 1206 q 226 1216 213 1208 q 264 1231 240 1224 q 315 1239 288 1239 q 467 1111 467 1239 q 456 1068 467 1085 q 424 1032 444 1051 q 404 1013 410 1019 q 399 996 399 1006 l 399 985 l 318 983 z "},"Ỹ":{"ha":726,"x_min":-10,"x_max":735,"o":"m 271 0 l 271 349 l -10 903 l 206 903 l 404 493 l 407 493 l 601 903 l 735 903 l 464 369 l 464 0 l 271 0 m 458 1029 q 403 1038 428 1029 q 342 1064 379 1046 q 290 1088 313 1079 q 243 1096 268 1096 q 203 1082 221 1096 q 175 1053 185 1068 q 163 1033 165 1038 l 113 1083 q 133 1121 113 1089 q 192 1181 154 1153 q 283 1208 231 1208 q 348 1199 321 1208 q 408 1171 375 1189 q 456 1150 438 1157 q 494 1143 474 1143 q 532 1153 517 1143 q 555 1174 547 1163 q 564 1188 563 1185 l 614 1139 q 597 1106 614 1133 q 546 1053 581 1078 q 458 1029 511 1029 z "},"Z":{"ha":788,"x_min":58,"x_max":725,"o":"m 58 0 l 58 81 l 493 803 l 83 803 l 83 903 l 725 903 l 725 819 l 290 100 l 724 100 l 724 0 l 58 0 z "},"Ź":{"ha":788,"x_min":58,"x_max":725,"o":"m 411 978 l 332 990 l 429 1201 l 579 1158 l 411 978 m 58 0 l 58 81 l 493 803 l 83 803 l 83 903 l 725 903 l 725 819 l 290 100 l 724 100 l 724 0 l 58 0 z "},"Ž":{"ha":788,"x_min":58,"x_max":725,"o":"m 346 982 l 186 1174 l 244 1222 l 394 1093 l 544 1222 l 603 1168 l 443 982 l 346 982 m 58 0 l 58 81 l 493 803 l 83 803 l 83 903 l 725 903 l 725 819 l 290 100 l 724 100 l 724 0 l 58 0 z "},"Ż":{"ha":788,"x_min":58,"x_max":725,"o":"m 393 986 q 319 1014 351 986 q 288 1093 288 1046 q 319 1171 288 1139 q 393 1199 349 1199 q 464 1172 436 1199 q 494 1093 494 1140 q 464 1013 494 1044 q 393 986 433 986 m 58 0 l 58 81 l 493 803 l 83 803 l 83 903 l 725 903 l 725 819 l 290 100 l 724 100 l 724 0 l 58 0 z "},"a":{"ha":713,"x_min":38,"x_max":686,"o":"m 251 -15 q 96 33 154 -15 q 38 167 38 82 q 152 344 38 289 q 419 411 267 399 l 419 451 q 393 581 419 546 q 304 617 367 617 q 238 606 275 617 q 174 582 201 594 q 139 565 147 569 l 121 654 q 160 672 129 658 q 240 697 192 685 q 336 710 288 710 q 535 655 467 710 q 604 467 604 600 l 604 151 q 633 78 604 78 q 660 82 644 78 q 681 88 675 86 l 686 15 q 653 6 679 13 q 592 -8 626 -1 q 532 -15 558 -15 q 469 5 492 -15 q 440 71 447 25 l 433 71 q 415 45 433 67 q 356 4 396 24 q 251 -15 315 -15 m 313 78 q 370 94 346 78 q 407 131 394 111 q 419 154 419 151 l 419 338 q 278 294 326 328 q 231 190 231 260 q 253 106 231 135 q 313 78 275 78 z "},"á":{"ha":713,"x_min":38,"x_max":686,"o":"m 371 790 l 292 803 l 389 1014 l 539 971 l 371 790 m 251 -15 q 96 33 154 -15 q 38 167 38 82 q 152 344 38 289 q 419 411 267 399 l 419 451 q 393 581 419 546 q 304 617 367 617 q 238 606 275 617 q 174 582 201 594 q 139 565 147 569 l 121 654 q 160 672 129 658 q 240 697 192 685 q 336 710 288 710 q 535 655 467 710 q 604 467 604 600 l 604 151 q 633 78 604 78 q 660 82 644 78 q 681 88 675 86 l 686 15 q 653 6 679 13 q 592 -8 626 -1 q 532 -15 558 -15 q 469 5 492 -15 q 440 71 447 25 l 433 71 q 415 45 433 67 q 356 4 396 24 q 251 -15 315 -15 m 313 78 q 370 94 346 78 q 407 131 394 111 q 419 154 419 151 l 419 338 q 278 294 326 328 q 231 190 231 260 q 253 106 231 135 q 313 78 275 78 z "},"ă":{"ha":713,"x_min":38,"x_max":686,"o":"m 354 782 q 184 844 221 782 q 147 953 147 907 l 239 965 l 239 960 q 247 935 239 953 q 280 900 254 917 q 354 883 306 883 q 430 900 404 883 q 463 935 456 917 q 471 960 471 953 l 471 965 l 564 953 q 526 845 564 908 q 354 782 489 782 m 251 -15 q 96 33 154 -15 q 38 167 38 82 q 152 344 38 289 q 419 411 267 399 l 419 451 q 393 581 419 546 q 304 617 367 617 q 238 606 275 617 q 174 582 201 594 q 139 565 147 569 l 121 654 q 160 672 129 658 q 240 697 192 685 q 336 710 288 710 q 535 655 467 710 q 604 467 604 600 l 604 151 q 633 78 604 78 q 660 82 644 78 q 681 88 675 86 l 686 15 q 653 6 679 13 q 592 -8 626 -1 q 532 -15 558 -15 q 469 5 492 -15 q 440 71 447 25 l 433 71 q 415 45 433 67 q 356 4 396 24 q 251 -15 315 -15 m 313 78 q 370 94 346 78 q 407 131 394 111 q 419 154 419 151 l 419 338 q 278 294 326 328 q 231 190 231 260 q 253 106 231 135 q 313 78 275 78 z "},"ắ":{"ha":713,"x_min":38,"x_max":686,"o":"m 251 -15 q 96 33 154 -15 q 38 167 38 82 q 152 344 38 289 q 419 411 267 399 l 419 451 q 393 581 419 546 q 304 617 367 617 q 238 606 275 617 q 174 582 201 594 q 139 565 147 569 l 121 654 q 160 672 129 658 q 240 697 192 685 q 336 710 288 710 q 535 655 467 710 q 604 467 604 600 l 604 151 q 633 78 604 78 q 660 82 644 78 q 681 88 675 86 l 686 15 q 653 6 679 13 q 592 -8 626 -1 q 532 -15 558 -15 q 469 5 492 -15 q 440 71 447 25 l 433 71 q 415 45 433 67 q 356 4 396 24 q 251 -15 315 -15 m 313 78 q 370 94 346 78 q 407 131 394 111 q 419 154 419 151 l 419 338 q 278 294 326 328 q 231 190 231 260 q 253 106 231 135 q 313 78 275 78 m 356 782 q 185 844 222 782 q 149 953 149 907 l 240 965 l 240 960 q 248 935 240 953 q 281 900 256 917 q 356 883 307 883 q 431 900 406 883 q 465 935 457 917 q 472 960 472 953 l 472 965 l 565 953 q 528 845 565 908 q 356 782 490 782 m 378 968 l 299 981 l 396 1192 l 546 1149 l 378 968 z "},"ặ":{"ha":713,"x_min":38,"x_max":686,"o":"m 251 -15 q 96 33 154 -15 q 38 167 38 82 q 152 344 38 289 q 419 411 267 399 l 419 451 q 393 581 419 546 q 304 617 367 617 q 238 606 275 617 q 174 582 201 594 q 139 565 147 569 l 121 654 q 160 672 129 658 q 240 697 192 685 q 336 710 288 710 q 535 655 467 710 q 604 467 604 600 l 604 151 q 633 78 604 78 q 660 82 644 78 q 681 88 675 86 l 686 15 q 653 6 679 13 q 592 -8 626 -1 q 532 -15 558 -15 q 469 5 492 -15 q 440 71 447 25 l 433 71 q 415 45 433 67 q 356 4 396 24 q 251 -15 315 -15 m 313 78 q 370 94 346 78 q 407 131 394 111 q 419 154 419 151 l 419 338 q 278 294 326 328 q 231 190 231 260 q 253 106 231 135 q 313 78 275 78 m 357 -292 q 323 -285 340 -292 q 293 -268 306 -279 q 265 -200 265 -240 q 293 -132 265 -162 q 357 -107 318 -107 q 419 -132 394 -107 q 447 -200 447 -160 q 419 -268 447 -242 q 357 -292 393 -292 m 356 782 q 185 844 222 782 q 149 953 149 907 l 240 965 l 240 960 q 248 935 240 953 q 281 900 256 917 q 356 883 307 883 q 431 900 406 883 q 465 935 457 917 q 472 960 472 953 l 472 965 l 565 953 q 528 845 565 908 q 356 782 490 782 z "},"ằ":{"ha":713,"x_min":38,"x_max":686,"o":"m 251 -15 q 96 33 154 -15 q 38 167 38 82 q 152 344 38 289 q 419 411 267 399 l 419 451 q 393 581 419 546 q 304 617 367 617 q 238 606 275 617 q 174 582 201 594 q 139 565 147 569 l 121 654 q 160 672 129 658 q 240 697 192 685 q 336 710 288 710 q 535 655 467 710 q 604 467 604 600 l 604 151 q 633 78 604 78 q 660 82 644 78 q 681 88 675 86 l 686 15 q 653 6 679 13 q 592 -8 626 -1 q 532 -15 558 -15 q 469 5 492 -15 q 440 71 447 25 l 433 71 q 415 45 433 67 q 356 4 396 24 q 251 -15 315 -15 m 313 78 q 370 94 346 78 q 407 131 394 111 q 419 154 419 151 l 419 338 q 278 294 326 328 q 231 190 231 260 q 253 106 231 135 q 313 78 275 78 m 356 782 q 185 844 222 782 q 149 953 149 907 l 240 965 l 240 960 q 248 935 240 953 q 281 900 256 917 q 356 883 307 883 q 431 900 406 883 q 465 935 457 917 q 472 960 472 953 l 472 965 l 565 953 q 528 845 565 908 q 356 782 490 782 m 343 968 l 164 1147 l 311 1196 l 429 992 l 343 968 z "},"ẳ":{"ha":713,"x_min":38,"x_max":686,"o":"m 251 -15 q 96 33 154 -15 q 38 167 38 82 q 152 344 38 289 q 419 411 267 399 l 419 451 q 393 581 419 546 q 304 617 367 617 q 238 606 275 617 q 174 582 201 594 q 139 565 147 569 l 121 654 q 160 672 129 658 q 240 697 192 685 q 336 710 288 710 q 535 655 467 710 q 604 467 604 600 l 604 151 q 633 78 604 78 q 660 82 644 78 q 681 88 675 86 l 686 15 q 653 6 679 13 q 592 -8 626 -1 q 532 -15 558 -15 q 469 5 492 -15 q 440 71 447 25 l 433 71 q 415 45 433 67 q 356 4 396 24 q 251 -15 315 -15 m 313 78 q 370 94 346 78 q 407 131 394 111 q 419 154 419 151 l 419 338 q 278 294 326 328 q 231 190 231 260 q 253 106 231 135 q 313 78 275 78 m 356 782 q 185 844 222 782 q 149 953 149 907 l 240 965 l 240 960 q 248 935 240 953 q 281 900 256 917 q 356 883 307 883 q 431 900 406 883 q 465 935 457 917 q 472 960 472 953 l 472 965 l 565 953 q 528 845 565 908 q 356 782 490 782 m 318 986 q 317 1015 317 996 q 322 1033 317 1026 q 342 1053 328 1040 q 363 1073 356 1064 q 369 1097 369 1082 q 315 1153 369 1153 q 285 1147 299 1153 q 263 1136 271 1142 q 254 1129 256 1131 l 208 1208 q 226 1219 213 1211 q 264 1234 240 1226 q 315 1242 288 1242 q 467 1114 467 1242 q 456 1071 467 1088 q 424 1035 444 1054 q 404 1015 410 1022 q 399 999 399 1008 l 399 988 l 318 986 z "},"ẵ":{"ha":713,"x_min":38,"x_max":686,"o":"m 251 -15 q 96 33 154 -15 q 38 167 38 82 q 152 344 38 289 q 419 411 267 399 l 419 451 q 393 581 419 546 q 304 617 367 617 q 238 606 275 617 q 174 582 201 594 q 139 565 147 569 l 121 654 q 160 672 129 658 q 240 697 192 685 q 336 710 288 710 q 535 655 467 710 q 604 467 604 600 l 604 151 q 633 78 604 78 q 660 82 644 78 q 681 88 675 86 l 686 15 q 653 6 679 13 q 592 -8 626 -1 q 532 -15 558 -15 q 469 5 492 -15 q 440 71 447 25 l 433 71 q 415 45 433 67 q 356 4 396 24 q 251 -15 315 -15 m 313 78 q 370 94 346 78 q 407 131 394 111 q 419 154 419 151 l 419 338 q 278 294 326 328 q 231 190 231 260 q 253 106 231 135 q 313 78 275 78 m 356 782 q 185 844 222 782 q 149 953 149 907 l 240 965 l 240 960 q 248 935 240 953 q 281 900 256 917 q 356 883 307 883 q 431 900 406 883 q 465 935 457 917 q 472 960 472 953 l 472 965 l 565 953 q 528 845 565 908 q 356 782 490 782 m 463 1014 q 408 1022 432 1014 q 346 1049 383 1031 q 294 1072 317 1064 q 247 1081 272 1081 q 207 1067 225 1081 q 179 1038 189 1053 q 167 1018 169 1022 l 117 1068 q 138 1106 117 1074 q 197 1165 158 1138 q 288 1193 235 1193 q 352 1183 325 1193 q 413 1156 379 1174 q 460 1135 442 1142 q 499 1128 478 1128 q 536 1138 521 1128 q 559 1158 551 1147 q 568 1172 567 1169 l 618 1124 q 601 1090 618 1118 q 550 1038 585 1063 q 463 1014 515 1014 z "},"â":{"ha":713,"x_min":38,"x_max":686,"o":"m 210 814 l 169 876 l 306 1046 l 403 1046 l 538 876 l 499 814 l 354 932 l 210 814 m 251 -15 q 96 33 154 -15 q 38 167 38 82 q 152 344 38 289 q 419 411 267 399 l 419 451 q 393 581 419 546 q 304 617 367 617 q 238 606 275 617 q 174 582 201 594 q 139 565 147 569 l 121 654 q 160 672 129 658 q 240 697 192 685 q 336 710 288 710 q 535 655 467 710 q 604 467 604 600 l 604 151 q 633 78 604 78 q 660 82 644 78 q 681 88 675 86 l 686 15 q 653 6 679 13 q 592 -8 626 -1 q 532 -15 558 -15 q 469 5 492 -15 q 440 71 447 25 l 433 71 q 415 45 433 67 q 356 4 396 24 q 251 -15 315 -15 m 313 78 q 370 94 346 78 q 407 131 394 111 q 419 154 419 151 l 419 338 q 278 294 326 328 q 231 190 231 260 q 253 106 231 135 q 313 78 275 78 z "},"ấ":{"ha":713,"x_min":38,"x_max":751,"o":"m 251 -15 q 96 33 154 -15 q 38 167 38 82 q 152 344 38 289 q 419 411 267 399 l 419 451 q 393 581 419 546 q 304 617 367 617 q 238 606 275 617 q 174 582 201 594 q 139 565 147 569 l 121 654 q 160 672 129 658 q 240 697 192 685 q 336 710 288 710 q 535 655 467 710 q 604 467 604 600 l 604 151 q 633 78 604 78 q 660 82 644 78 q 681 88 675 86 l 686 15 q 653 6 679 13 q 592 -8 626 -1 q 532 -15 558 -15 q 469 5 492 -15 q 440 71 447 25 l 433 71 q 415 45 433 67 q 356 4 396 24 q 251 -15 315 -15 m 313 78 q 370 94 346 78 q 407 131 394 111 q 419 154 419 151 l 419 338 q 278 294 326 328 q 231 190 231 260 q 253 106 231 135 q 313 78 275 78 m 213 764 l 172 826 l 308 996 l 406 996 l 540 826 l 501 764 l 357 882 l 213 764 m 583 910 l 504 922 l 601 1133 l 751 1090 l 583 910 z "},"ậ":{"ha":713,"x_min":38,"x_max":686,"o":"m 251 -15 q 96 33 154 -15 q 38 167 38 82 q 152 344 38 289 q 419 411 267 399 l 419 451 q 393 581 419 546 q 304 617 367 617 q 238 606 275 617 q 174 582 201 594 q 139 565 147 569 l 121 654 q 160 672 129 658 q 240 697 192 685 q 336 710 288 710 q 535 655 467 710 q 604 467 604 600 l 604 151 q 633 78 604 78 q 660 82 644 78 q 681 88 675 86 l 686 15 q 653 6 679 13 q 592 -8 626 -1 q 532 -15 558 -15 q 469 5 492 -15 q 440 71 447 25 l 433 71 q 415 45 433 67 q 356 4 396 24 q 251 -15 315 -15 m 313 78 q 370 94 346 78 q 407 131 394 111 q 419 154 419 151 l 419 338 q 278 294 326 328 q 231 190 231 260 q 253 106 231 135 q 313 78 275 78 m 357 -292 q 323 -285 340 -292 q 293 -268 306 -279 q 265 -200 265 -240 q 293 -132 265 -162 q 357 -107 318 -107 q 419 -132 394 -107 q 447 -200 447 -160 q 419 -268 447 -242 q 357 -292 393 -292 m 213 764 l 172 826 l 308 996 l 406 996 l 540 826 l 501 764 l 357 882 l 213 764 z "},"ầ":{"ha":713,"x_min":38,"x_max":686,"o":"m 251 -15 q 96 33 154 -15 q 38 167 38 82 q 152 344 38 289 q 419 411 267 399 l 419 451 q 393 581 419 546 q 304 617 367 617 q 238 606 275 617 q 174 582 201 594 q 139 565 147 569 l 121 654 q 160 672 129 658 q 240 697 192 685 q 336 710 288 710 q 535 655 467 710 q 604 467 604 600 l 604 151 q 633 78 604 78 q 660 82 644 78 q 681 88 675 86 l 686 15 q 653 6 679 13 q 592 -8 626 -1 q 532 -15 558 -15 q 469 5 492 -15 q 440 71 447 25 l 433 71 q 415 45 433 67 q 356 4 396 24 q 251 -15 315 -15 m 313 78 q 370 94 346 78 q 407 131 394 111 q 419 154 419 151 l 419 338 q 278 294 326 328 q 231 190 231 260 q 253 106 231 135 q 313 78 275 78 m 213 764 l 172 826 l 308 996 l 406 996 l 540 826 l 501 764 l 357 882 l 213 764 m 519 969 l 340 1149 l 488 1197 l 606 993 l 519 969 z "},"ẩ":{"ha":713,"x_min":38,"x_max":707,"o":"m 251 -15 q 96 33 154 -15 q 38 167 38 82 q 152 344 38 289 q 419 411 267 399 l 419 451 q 393 581 419 546 q 304 617 367 617 q 238 606 275 617 q 174 582 201 594 q 139 565 147 569 l 121 654 q 160 672 129 658 q 240 697 192 685 q 336 710 288 710 q 535 655 467 710 q 604 467 604 600 l 604 151 q 633 78 604 78 q 660 82 644 78 q 681 88 675 86 l 686 15 q 653 6 679 13 q 592 -8 626 -1 q 532 -15 558 -15 q 469 5 492 -15 q 440 71 447 25 l 433 71 q 415 45 433 67 q 356 4 396 24 q 251 -15 315 -15 m 313 78 q 370 94 346 78 q 407 131 394 111 q 419 154 419 151 l 419 338 q 278 294 326 328 q 231 190 231 260 q 253 106 231 135 q 313 78 275 78 m 213 764 l 172 826 l 308 996 l 406 996 l 540 826 l 501 764 l 357 882 l 213 764 m 558 914 q 557 943 557 924 q 563 961 557 954 q 582 981 568 968 q 603 1001 596 992 q 610 1025 610 1010 q 556 1081 610 1081 q 525 1075 539 1081 q 503 1064 511 1069 q 494 1057 496 1058 l 449 1136 q 467 1147 453 1139 q 504 1162 481 1154 q 556 1169 528 1169 q 707 1042 707 1169 q 696 999 707 1015 q 664 963 685 982 q 644 943 650 950 q 639 926 639 936 l 639 915 l 558 914 z "},"ẫ":{"ha":713,"x_min":38,"x_max":686,"o":"m 251 -15 q 96 33 154 -15 q 38 167 38 82 q 152 344 38 289 q 419 411 267 399 l 419 451 q 393 581 419 546 q 304 617 367 617 q 238 606 275 617 q 174 582 201 594 q 139 565 147 569 l 121 654 q 160 672 129 658 q 240 697 192 685 q 336 710 288 710 q 535 655 467 710 q 604 467 604 600 l 604 151 q 633 78 604 78 q 660 82 644 78 q 681 88 675 86 l 686 15 q 653 6 679 13 q 592 -8 626 -1 q 532 -15 558 -15 q 469 5 492 -15 q 440 71 447 25 l 433 71 q 415 45 433 67 q 356 4 396 24 q 251 -15 315 -15 m 313 78 q 370 94 346 78 q 407 131 394 111 q 419 154 419 151 l 419 338 q 278 294 326 328 q 231 190 231 260 q 253 106 231 135 q 313 78 275 78 m 213 764 l 172 826 l 308 996 l 406 996 l 540 826 l 501 764 l 357 882 l 213 764 m 451 1025 q 397 1033 421 1025 q 335 1060 372 1042 q 283 1083 306 1075 q 236 1092 261 1092 q 196 1078 214 1092 q 168 1049 178 1064 q 156 1029 158 1033 l 106 1079 q 126 1117 106 1085 q 185 1176 147 1149 q 276 1204 224 1204 q 341 1194 314 1204 q 401 1167 368 1185 q 449 1146 431 1153 q 488 1139 467 1139 q 525 1149 510 1139 q 548 1169 540 1158 q 557 1183 556 1181 l 607 1135 q 590 1101 607 1129 q 539 1049 574 1074 q 451 1025 504 1025 z "},"ä":{"ha":713,"x_min":38,"x_max":686,"o":"m 221 808 q 157 833 183 808 q 129 906 129 861 q 157 978 129 949 q 221 1001 185 1001 q 285 978 257 1001 q 313 906 313 946 q 285 833 313 864 q 221 808 257 808 m 479 808 q 415 833 440 808 q 388 906 388 861 q 415 978 388 949 q 479 1001 442 1001 q 543 978 515 1001 q 571 906 571 946 q 543 833 571 864 q 479 808 517 808 m 251 -15 q 96 33 154 -15 q 38 167 38 82 q 152 344 38 289 q 419 411 267 399 l 419 451 q 393 581 419 546 q 304 617 367 617 q 238 606 275 617 q 174 582 201 594 q 139 565 147 569 l 121 654 q 160 672 129 658 q 240 697 192 685 q 336 710 288 710 q 535 655 467 710 q 604 467 604 600 l 604 151 q 633 78 604 78 q 660 82 644 78 q 681 88 675 86 l 686 15 q 653 6 679 13 q 592 -8 626 -1 q 532 -15 558 -15 q 469 5 492 -15 q 440 71 447 25 l 433 71 q 415 45 433 67 q 356 4 396 24 q 251 -15 315 -15 m 313 78 q 370 94 346 78 q 407 131 394 111 q 419 154 419 151 l 419 338 q 278 294 326 328 q 231 190 231 260 q 253 106 231 135 q 313 78 275 78 z "},"ạ":{"ha":713,"x_min":38,"x_max":686,"o":"m 251 -15 q 96 33 154 -15 q 38 167 38 82 q 152 344 38 289 q 419 411 267 399 l 419 451 q 393 581 419 546 q 304 617 367 617 q 238 606 275 617 q 174 582 201 594 q 139 565 147 569 l 121 654 q 160 672 129 658 q 240 697 192 685 q 336 710 288 710 q 535 655 467 710 q 604 467 604 600 l 604 151 q 633 78 604 78 q 660 82 644 78 q 681 88 675 86 l 686 15 q 653 6 679 13 q 592 -8 626 -1 q 532 -15 558 -15 q 469 5 492 -15 q 440 71 447 25 l 433 71 q 415 45 433 67 q 356 4 396 24 q 251 -15 315 -15 m 313 78 q 370 94 346 78 q 407 131 394 111 q 419 154 419 151 l 419 338 q 278 294 326 328 q 231 190 231 260 q 253 106 231 135 q 313 78 275 78 m 357 -292 q 323 -285 340 -292 q 293 -268 306 -279 q 265 -200 265 -240 q 293 -132 265 -162 q 357 -107 318 -107 q 419 -132 394 -107 q 447 -200 447 -160 q 419 -268 447 -242 q 357 -292 393 -292 z "},"à":{"ha":713,"x_min":38,"x_max":686,"o":"m 339 797 l 160 976 l 307 1025 l 425 821 l 339 797 m 251 -15 q 96 33 154 -15 q 38 167 38 82 q 152 344 38 289 q 419 411 267 399 l 419 451 q 393 581 419 546 q 304 617 367 617 q 238 606 275 617 q 174 582 201 594 q 139 565 147 569 l 121 654 q 160 672 129 658 q 240 697 192 685 q 336 710 288 710 q 535 655 467 710 q 604 467 604 600 l 604 151 q 633 78 604 78 q 660 82 644 78 q 681 88 675 86 l 686 15 q 653 6 679 13 q 592 -8 626 -1 q 532 -15 558 -15 q 469 5 492 -15 q 440 71 447 25 l 433 71 q 415 45 433 67 q 356 4 396 24 q 251 -15 315 -15 m 313 78 q 370 94 346 78 q 407 131 394 111 q 419 154 419 151 l 419 338 q 278 294 326 328 q 231 190 231 260 q 253 106 231 135 q 313 78 275 78 z "},"ả":{"ha":713,"x_min":38,"x_max":686,"o":"m 251 -15 q 96 33 154 -15 q 38 167 38 82 q 152 344 38 289 q 419 411 267 399 l 419 451 q 393 581 419 546 q 304 617 367 617 q 238 606 275 617 q 174 582 201 594 q 139 565 147 569 l 121 654 q 160 672 129 658 q 240 697 192 685 q 336 710 288 710 q 535 655 467 710 q 604 467 604 600 l 604 151 q 633 78 604 78 q 660 82 644 78 q 681 88 675 86 l 686 15 q 653 6 679 13 q 592 -8 626 -1 q 532 -15 558 -15 q 469 5 492 -15 q 440 71 447 25 l 433 71 q 415 45 433 67 q 356 4 396 24 q 251 -15 315 -15 m 313 78 q 370 94 346 78 q 407 131 394 111 q 419 154 419 151 l 419 338 q 278 294 326 328 q 231 190 231 260 q 253 106 231 135 q 313 78 275 78 m 311 775 q 310 804 310 785 q 315 822 310 815 q 335 842 321 829 q 356 862 349 853 q 363 886 363 871 q 308 942 363 942 q 278 936 292 942 q 256 925 264 931 q 247 918 249 919 l 201 997 q 219 1008 206 1000 q 257 1023 233 1015 q 308 1031 281 1031 q 460 903 460 1031 q 449 860 460 876 q 417 824 438 843 q 397 804 403 811 q 392 788 392 797 l 392 776 l 311 775 z "},"ā":{"ha":713,"x_min":38,"x_max":686,"o":"m 215 867 l 215 947 l 513 947 l 513 867 l 215 867 m 251 -15 q 96 33 154 -15 q 38 167 38 82 q 152 344 38 289 q 419 411 267 399 l 419 451 q 393 581 419 546 q 304 617 367 617 q 238 606 275 617 q 174 582 201 594 q 139 565 147 569 l 121 654 q 160 672 129 658 q 240 697 192 685 q 336 710 288 710 q 535 655 467 710 q 604 467 604 600 l 604 151 q 633 78 604 78 q 660 82 644 78 q 681 88 675 86 l 686 15 q 653 6 679 13 q 592 -8 626 -1 q 532 -15 558 -15 q 469 5 492 -15 q 440 71 447 25 l 433 71 q 415 45 433 67 q 356 4 396 24 q 251 -15 315 -15 m 313 78 q 370 94 346 78 q 407 131 394 111 q 419 154 419 151 l 419 338 q 278 294 326 328 q 231 190 231 260 q 253 106 231 135 q 313 78 275 78 z "},"ą":{"ha":713,"x_min":38,"x_max":686,"o":"m 643 -347 q 476 -313 538 -347 q 415 -185 415 -279 q 517 -14 415 -93 q 465 9 483 -11 q 440 71 446 29 l 433 71 q 415 45 433 67 q 356 4 396 24 q 251 -15 315 -15 q 96 33 154 -15 q 38 167 38 82 q 152 344 38 289 q 419 411 267 399 l 419 451 q 393 581 419 546 q 304 617 367 617 q 238 606 275 617 q 174 582 201 594 q 139 565 147 569 l 121 654 q 160 672 129 658 q 240 697 192 685 q 336 710 288 710 q 535 655 467 710 q 604 467 604 600 l 604 151 q 633 78 604 78 q 660 82 644 78 q 681 88 675 86 l 686 15 q 668 10 682 14 q 635 0 654 6 q 569 -61 600 -19 q 538 -171 538 -103 q 562 -256 538 -233 q 643 -279 586 -279 l 643 -347 m 313 78 q 370 94 346 78 q 407 131 394 111 q 419 154 419 151 l 419 338 q 278 294 326 328 q 231 190 231 260 q 253 106 231 135 q 313 78 275 78 z "},"å":{"ha":713,"x_min":38,"x_max":686,"o":"m 354 761 q 248 801 288 761 q 208 911 208 840 q 249 1020 208 981 q 354 1060 290 1060 q 458 1019 417 1060 q 500 911 500 979 q 460 801 500 842 q 354 761 419 761 m 354 821 q 414 844 392 821 q 436 913 436 867 q 413 978 436 956 q 354 1001 390 1001 q 295 978 318 1001 q 272 913 272 956 q 294 844 272 867 q 354 821 317 821 m 251 -15 q 96 33 154 -15 q 38 167 38 82 q 152 344 38 289 q 419 411 267 399 l 419 451 q 393 581 419 546 q 304 617 367 617 q 238 606 275 617 q 174 582 201 594 q 139 565 147 569 l 121 654 q 160 672 129 658 q 240 697 192 685 q 336 710 288 710 q 535 655 467 710 q 604 467 604 600 l 604 151 q 633 78 604 78 q 660 82 644 78 q 681 88 675 86 l 686 15 q 653 6 679 13 q 592 -8 626 -1 q 532 -15 558 -15 q 469 5 492 -15 q 440 71 447 25 l 433 71 q 415 45 433 67 q 356 4 396 24 q 251 -15 315 -15 m 313 78 q 370 94 346 78 q 407 131 394 111 q 419 154 419 151 l 419 338 q 278 294 326 328 q 231 190 231 260 q 253 106 231 135 q 313 78 275 78 z "},"ã":{"ha":713,"x_min":38,"x_max":686,"o":"m 454 821 q 399 829 424 821 q 338 856 375 838 q 286 879 308 871 q 239 888 264 888 q 199 874 217 888 q 171 844 181 860 q 158 825 161 829 l 108 875 q 129 913 108 881 q 188 972 150 944 q 279 1000 226 1000 q 344 990 317 1000 q 404 963 371 981 q 451 942 433 949 q 490 935 469 935 q 528 944 513 935 q 551 965 543 954 q 560 979 558 976 l 610 931 q 593 897 610 925 q 542 845 576 869 q 454 821 507 821 m 251 -15 q 96 33 154 -15 q 38 167 38 82 q 152 344 38 289 q 419 411 267 399 l 419 451 q 393 581 419 546 q 304 617 367 617 q 238 606 275 617 q 174 582 201 594 q 139 565 147 569 l 121 654 q 160 672 129 658 q 240 697 192 685 q 336 710 288 710 q 535 655 467 710 q 604 467 604 600 l 604 151 q 633 78 604 78 q 660 82 644 78 q 681 88 675 86 l 686 15 q 653 6 679 13 q 592 -8 626 -1 q 532 -15 558 -15 q 469 5 492 -15 q 440 71 447 25 l 433 71 q 415 45 433 67 q 356 4 396 24 q 251 -15 315 -15 m 313 78 q 370 94 346 78 q 407 131 394 111 q 419 154 419 151 l 419 338 q 278 294 326 328 q 231 190 231 260 q 253 106 231 135 q 313 78 275 78 z "},"æ":{"ha":1039,"x_min":39,"x_max":999,"o":"m 251 -15 q 97 36 156 -15 q 39 172 39 88 q 153 351 39 296 q 419 418 267 406 l 419 444 q 409 552 419 515 q 376 603 399 589 q 311 617 353 617 q 245 606 282 617 q 181 582 208 594 q 146 565 154 569 l 128 654 q 167 672 136 658 q 247 697 199 685 q 343 710 294 710 q 455 692 411 710 q 524 635 499 674 q 726 708 604 708 q 927 627 856 708 q 999 394 999 546 q 994 336 999 360 q 988 307 989 313 l 614 307 q 651 130 615 182 q 765 78 686 78 q 849 98 813 78 q 906 142 885 118 q 926 169 926 167 l 989 121 q 960 81 989 115 q 877 15 932 46 q 743 -15 822 -15 q 467 118 544 -15 q 392 23 443 61 q 251 -15 340 -15 m 826 397 l 826 429 q 804 577 826 535 q 726 619 782 619 q 665 600 688 619 q 629 533 642 581 q 614 397 617 485 l 826 397 m 313 78 q 392 129 368 78 q 422 254 417 181 q 418 335 418 292 l 418 344 q 278 300 326 335 q 231 196 231 265 q 253 109 231 140 q 313 78 275 78 z "},"b":{"ha":757,"x_min":83,"x_max":717,"o":"m 426 -21 q 330 -6 371 -21 q 266 27 289 10 q 243 47 243 44 l 240 47 l 210 0 l 83 0 l 83 1036 l 268 1047 l 268 649 l 274 649 q 292 669 274 651 q 347 701 310 686 q 440 715 385 715 q 585 671 522 715 q 682 546 647 626 q 717 361 717 465 q 640 84 717 189 q 426 -21 563 -21 m 378 85 q 486 147 454 85 q 518 357 518 208 q 505 507 518 453 q 463 584 492 561 q 385 607 433 607 q 322 591 349 607 q 282 556 296 575 q 268 535 268 538 l 268 136 q 281 120 268 133 q 317 96 293 107 q 378 85 342 85 z "},"c":{"ha":619,"x_min":40,"x_max":614,"o":"m 371 -15 q 126 76 211 -15 q 40 343 40 168 q 129 611 40 513 q 375 710 218 710 q 463 698 418 710 q 539 673 508 686 q 578 656 569 660 l 560 567 q 525 583 553 571 q 461 606 497 594 q 396 617 425 617 q 310 594 343 617 q 258 513 276 572 q 240 346 240 454 q 279 135 240 192 q 390 78 318 78 q 474 99 439 78 q 529 145 510 121 q 549 174 549 169 l 614 132 q 589 87 614 124 q 510 17 564 50 q 371 -15 456 -15 z "},"ć":{"ha":619,"x_min":40,"x_max":614,"o":"m 369 790 l 290 803 l 388 1014 l 538 971 l 369 790 m 371 -15 q 126 76 211 -15 q 40 343 40 168 q 129 611 40 513 q 375 710 218 710 q 463 698 418 710 q 539 673 508 686 q 578 656 569 660 l 560 567 q 525 583 553 571 q 461 606 497 594 q 396 617 425 617 q 310 594 343 617 q 258 513 276 572 q 240 346 240 454 q 279 135 240 192 q 390 78 318 78 q 474 99 439 78 q 529 145 510 121 q 549 174 549 169 l 614 132 q 589 87 614 124 q 510 17 564 50 q 371 -15 456 -15 z "},"č":{"ha":619,"x_min":40,"x_max":614,"o":"m 310 794 l 150 986 l 208 1035 l 358 906 l 508 1035 l 567 981 l 407 794 l 310 794 m 371 -15 q 126 76 211 -15 q 40 343 40 168 q 129 611 40 513 q 375 710 218 710 q 463 698 418 710 q 539 673 508 686 q 578 656 569 660 l 560 567 q 525 583 553 571 q 461 606 497 594 q 396 617 425 617 q 310 594 343 617 q 258 513 276 572 q 240 346 240 454 q 279 135 240 192 q 390 78 318 78 q 474 99 439 78 q 529 145 510 121 q 549 174 549 169 l 614 132 q 589 87 614 124 q 510 17 564 50 q 371 -15 456 -15 z "},"ç":{"ha":619,"x_min":40,"x_max":614,"o":"m 335 -349 q 259 -335 289 -349 q 215 -304 229 -321 q 201 -285 201 -287 l 238 -244 q 249 -257 240 -247 q 275 -276 258 -267 q 314 -285 292 -285 q 383 -206 383 -285 q 362 -159 383 -172 q 320 -142 340 -146 q 300 -136 300 -137 l 315 -12 q 111 93 182 3 q 40 343 40 183 q 129 611 40 513 q 375 710 218 710 q 463 698 418 710 q 539 673 508 686 q 578 656 569 660 l 560 567 q 525 583 553 571 q 461 606 497 594 q 396 617 425 617 q 310 594 343 617 q 258 513 276 572 q 240 346 240 454 q 279 135 240 192 q 390 78 318 78 q 474 99 439 78 q 529 145 510 121 q 549 174 549 169 l 614 132 q 590 88 614 125 q 513 19 565 51 q 376 -15 460 -14 l 369 -81 q 403 -94 369 -82 q 465 -133 436 -106 q 493 -208 493 -161 q 452 -310 493 -272 q 335 -349 411 -349 z "},"d":{"ha":757,"x_min":40,"x_max":674,"o":"m 331 -15 q 178 28 244 -15 q 76 149 113 71 q 40 332 40 228 q 75 530 40 444 q 174 662 110 615 q 322 708 238 708 q 413 697 376 708 q 467 672 449 685 q 485 656 485 658 l 489 656 l 489 1036 l 674 1047 l 674 0 l 519 0 l 499 63 l 497 63 q 481 39 497 58 q 427 2 464 19 q 331 -15 390 -15 m 372 93 q 433 107 407 93 q 474 138 458 121 q 489 157 489 154 l 489 557 q 473 572 486 561 q 435 592 460 582 q 379 603 411 603 q 272 543 304 603 q 239 338 239 483 q 253 188 239 240 q 297 114 268 135 q 372 93 325 93 z "},"ð":{"ha":739,"x_min":42,"x_max":689,"o":"m 365 -15 q 128 80 214 -15 q 42 347 42 175 q 122 614 42 519 q 344 708 201 708 q 494 663 425 708 q 404 865 467 783 l 278 794 l 253 853 l 363 915 q 278 985 322 956 l 361 1036 q 461 971 419 1007 l 571 1033 l 597 975 l 508 925 q 642 687 594 828 q 689 378 689 546 q 606 84 689 183 q 365 -15 524 -15 m 365 74 q 440 101 413 74 q 478 187 467 128 q 489 349 489 246 q 462 557 489 496 q 365 618 435 618 q 290 592 318 618 q 251 507 263 565 q 239 347 239 449 q 251 185 239 244 q 290 100 263 126 q 365 74 318 74 z "},"ď":{"ha":757,"x_min":40,"x_max":890,"o":"m 797 767 l 731 772 l 765 1111 l 890 1092 l 797 767 m 331 -15 q 178 28 244 -15 q 76 149 113 71 q 40 332 40 228 q 75 530 40 444 q 174 662 110 615 q 322 708 238 708 q 413 697 376 708 q 467 672 449 685 q 485 656 485 658 l 489 656 l 489 1036 l 674 1047 l 674 0 l 519 0 l 499 63 l 497 63 q 481 39 497 58 q 427 2 464 19 q 331 -15 390 -15 m 372 93 q 433 107 407 93 q 474 138 458 121 q 489 157 489 154 l 489 557 q 473 572 486 561 q 435 592 460 582 q 379 603 411 603 q 272 543 304 603 q 239 338 239 483 q 253 188 239 240 q 297 114 268 135 q 372 93 325 93 z "},"đ":{"ha":761,"x_min":32,"x_max":754,"o":"m 303 -26 q 160 19 221 -26 q 65 145 99 64 q 32 332 32 226 q 64 533 32 446 q 157 670 96 621 q 303 719 218 719 q 395 706 357 719 q 454 675 433 692 q 475 656 475 658 l 479 656 l 479 850 l 349 850 l 349 943 l 479 943 l 479 1042 l 663 1042 l 663 943 l 754 943 l 754 867 l 669 850 l 663 850 l 663 0 l 500 0 l 485 58 q 424 1 468 29 q 303 -26 381 -26 m 363 82 q 442 110 415 82 q 479 161 469 138 l 479 551 q 467 570 479 554 q 431 600 456 586 q 371 614 407 614 q 264 549 297 614 q 231 338 231 485 q 244 185 231 240 q 287 106 258 129 q 363 82 315 82 z "},"e":{"ha":658,"x_min":40,"x_max":621,"o":"m 365 -15 q 126 70 211 -15 q 40 335 40 156 q 124 612 40 515 q 349 708 207 708 q 549 627 478 708 q 621 394 621 546 q 616 336 621 360 q 610 307 611 313 l 236 307 q 273 130 238 182 q 388 78 308 78 q 471 98 435 78 q 528 142 507 118 q 549 169 549 167 l 611 121 q 583 81 611 115 q 499 15 554 46 q 365 -15 444 -15 m 449 397 l 449 429 q 426 577 449 535 q 349 619 404 619 q 287 600 310 619 q 251 533 264 581 q 236 397 239 485 l 449 397 z "},"é":{"ha":658,"x_min":40,"x_max":621,"o":"m 364 790 l 285 803 l 382 1014 l 532 971 l 364 790 m 365 -15 q 126 70 211 -15 q 40 335 40 156 q 124 612 40 515 q 349 708 207 708 q 549 627 478 708 q 621 394 621 546 q 616 336 621 360 q 610 307 611 313 l 236 307 q 273 130 238 182 q 388 78 308 78 q 471 98 435 78 q 528 142 507 118 q 549 169 549 167 l 611 121 q 583 81 611 115 q 499 15 554 46 q 365 -15 444 -15 m 449 397 l 449 429 q 426 577 449 535 q 349 619 404 619 q 287 600 310 619 q 251 533 264 581 q 236 397 239 485 l 449 397 z "},"ě":{"ha":658,"x_min":40,"x_max":621,"o":"m 300 794 l 140 986 l 199 1035 l 349 906 l 499 1035 l 557 981 l 397 794 l 300 794 m 365 -15 q 126 70 211 -15 q 40 335 40 156 q 124 612 40 515 q 349 708 207 708 q 549 627 478 708 q 621 394 621 546 q 616 336 621 360 q 610 307 611 313 l 236 307 q 273 130 238 182 q 388 78 308 78 q 471 98 435 78 q 528 142 507 118 q 549 169 549 167 l 611 121 q 583 81 611 115 q 499 15 554 46 q 365 -15 444 -15 m 449 397 l 449 429 q 426 577 449 535 q 349 619 404 619 q 287 600 310 619 q 251 533 264 581 q 236 397 239 485 l 449 397 z "},"ê":{"ha":658,"x_min":40,"x_max":621,"o":"m 204 814 l 164 876 l 300 1046 l 397 1046 l 532 876 l 493 814 l 349 932 l 204 814 m 365 -15 q 126 70 211 -15 q 40 335 40 156 q 124 612 40 515 q 349 708 207 708 q 549 627 478 708 q 621 394 621 546 q 616 336 621 360 q 610 307 611 313 l 236 307 q 273 130 238 182 q 388 78 308 78 q 471 98 435 78 q 528 142 507 118 q 549 169 549 167 l 611 121 q 583 81 611 115 q 499 15 554 46 q 365 -15 444 -15 m 449 397 l 449 429 q 426 577 449 535 q 349 619 404 619 q 287 600 310 619 q 251 533 264 581 q 236 397 239 485 l 449 397 z "},"ế":{"ha":658,"x_min":40,"x_max":724,"o":"m 365 -15 q 126 70 211 -15 q 40 335 40 156 q 124 612 40 515 q 349 708 207 708 q 549 627 478 708 q 621 394 621 546 q 616 336 621 360 q 610 307 611 313 l 236 307 q 273 130 238 182 q 388 78 308 78 q 471 98 435 78 q 528 142 507 118 q 549 169 549 167 l 611 121 q 583 81 611 115 q 499 15 554 46 q 365 -15 444 -15 m 449 397 l 449 429 q 426 577 449 535 q 349 619 404 619 q 287 600 310 619 q 251 533 264 581 q 236 397 239 485 l 449 397 m 185 764 l 144 826 l 281 996 l 378 996 l 513 826 l 474 764 l 329 882 l 185 764 m 556 910 l 476 922 l 574 1133 l 724 1090 l 556 910 z "},"ệ":{"ha":658,"x_min":40,"x_max":621,"o":"m 365 -15 q 126 70 211 -15 q 40 335 40 156 q 124 612 40 515 q 349 708 207 708 q 549 627 478 708 q 621 394 621 546 q 616 336 621 360 q 610 307 611 313 l 236 307 q 273 130 238 182 q 388 78 308 78 q 471 98 435 78 q 528 142 507 118 q 549 169 549 167 l 611 121 q 583 81 611 115 q 499 15 554 46 q 365 -15 444 -15 m 449 397 l 449 429 q 426 577 449 535 q 349 619 404 619 q 287 600 310 619 q 251 533 264 581 q 236 397 239 485 l 449 397 m 329 -292 q 295 -285 313 -292 q 265 -268 278 -279 q 238 -200 238 -240 q 265 -132 238 -162 q 329 -107 290 -107 q 392 -132 367 -107 q 419 -200 419 -160 q 392 -268 419 -242 q 329 -292 365 -292 m 185 764 l 144 826 l 281 996 l 378 996 l 513 826 l 474 764 l 329 882 l 185 764 z "},"ề":{"ha":658,"x_min":40,"x_max":621,"o":"m 365 -15 q 126 70 211 -15 q 40 335 40 156 q 124 612 40 515 q 349 708 207 708 q 549 627 478 708 q 621 394 621 546 q 616 336 621 360 q 610 307 611 313 l 236 307 q 273 130 238 182 q 388 78 308 78 q 471 98 435 78 q 528 142 507 118 q 549 169 549 167 l 611 121 q 583 81 611 115 q 499 15 554 46 q 365 -15 444 -15 m 449 397 l 449 429 q 426 577 449 535 q 349 619 404 619 q 287 600 310 619 q 251 533 264 581 q 236 397 239 485 l 449 397 m 185 764 l 144 826 l 281 996 l 378 996 l 513 826 l 474 764 l 329 882 l 185 764 m 492 969 l 313 1149 l 460 1197 l 578 993 l 492 969 z "},"ể":{"ha":658,"x_min":40,"x_max":679,"o":"m 365 -15 q 126 70 211 -15 q 40 335 40 156 q 124 612 40 515 q 349 708 207 708 q 549 627 478 708 q 621 394 621 546 q 616 336 621 360 q 610 307 611 313 l 236 307 q 273 130 238 182 q 388 78 308 78 q 471 98 435 78 q 528 142 507 118 q 549 169 549 167 l 611 121 q 583 81 611 115 q 499 15 554 46 q 365 -15 444 -15 m 449 397 l 449 429 q 426 577 449 535 q 349 619 404 619 q 287 600 310 619 q 251 533 264 581 q 236 397 239 485 l 449 397 m 185 764 l 144 826 l 281 996 l 378 996 l 513 826 l 474 764 l 329 882 l 185 764 m 531 914 q 529 943 529 924 q 535 961 529 954 q 554 981 540 968 q 575 1001 568 992 q 582 1025 582 1010 q 528 1081 582 1081 q 497 1075 511 1081 q 476 1064 483 1069 q 467 1057 468 1058 l 421 1136 q 439 1147 425 1139 q 476 1162 453 1154 q 528 1169 500 1169 q 679 1042 679 1169 q 668 999 679 1015 q 636 963 657 982 q 617 943 622 950 q 611 926 611 936 l 611 915 l 531 914 z "},"ễ":{"ha":658,"x_min":40,"x_max":621,"o":"m 365 -15 q 126 70 211 -15 q 40 335 40 156 q 124 612 40 515 q 349 708 207 708 q 549 627 478 708 q 621 394 621 546 q 616 336 621 360 q 610 307 611 313 l 236 307 q 273 130 238 182 q 388 78 308 78 q 471 98 435 78 q 528 142 507 118 q 549 169 549 167 l 611 121 q 583 81 611 115 q 499 15 554 46 q 365 -15 444 -15 m 449 397 l 449 429 q 426 577 449 535 q 349 619 404 619 q 287 600 310 619 q 251 533 264 581 q 236 397 239 485 l 449 397 m 185 764 l 144 826 l 281 996 l 378 996 l 513 826 l 474 764 l 329 882 l 185 764 m 424 1025 q 369 1033 393 1025 q 307 1060 344 1042 q 256 1083 278 1075 q 208 1092 233 1092 q 168 1078 186 1092 q 140 1049 150 1064 q 128 1029 131 1033 l 78 1079 q 99 1117 78 1085 q 158 1176 119 1149 q 249 1204 196 1204 q 313 1194 286 1204 q 374 1167 340 1185 q 421 1146 403 1153 q 460 1139 439 1139 q 497 1149 482 1139 q 520 1169 513 1158 q 529 1183 528 1181 l 579 1135 q 563 1101 579 1129 q 511 1049 546 1074 q 424 1025 476 1025 z "},"ë":{"ha":658,"x_min":40,"x_max":621,"o":"m 215 808 q 151 833 179 808 q 124 906 124 861 q 151 978 124 949 q 215 1001 179 1001 q 279 978 251 1001 q 307 906 307 946 q 279 833 307 864 q 215 808 253 808 m 474 808 q 410 833 435 808 q 382 906 382 861 q 410 978 382 949 q 474 1001 436 1001 q 538 978 510 1001 q 565 906 565 946 q 538 833 565 864 q 474 808 511 808 m 365 -15 q 126 70 211 -15 q 40 335 40 156 q 124 612 40 515 q 349 708 207 708 q 549 627 478 708 q 621 394 621 546 q 616 336 621 360 q 610 307 611 313 l 236 307 q 273 130 238 182 q 388 78 308 78 q 471 98 435 78 q 528 142 507 118 q 549 169 549 167 l 611 121 q 583 81 611 115 q 499 15 554 46 q 365 -15 444 -15 m 449 397 l 449 429 q 426 577 449 535 q 349 619 404 619 q 287 600 310 619 q 251 533 264 581 q 236 397 239 485 l 449 397 z "},"ė":{"ha":658,"x_min":40,"x_max":621,"o":"m 350 799 q 276 826 308 799 q 244 906 244 858 q 276 983 244 951 q 350 1011 306 1011 q 421 985 393 1011 q 451 906 451 953 q 421 825 451 857 q 350 799 390 799 m 365 -15 q 126 70 211 -15 q 40 335 40 156 q 124 612 40 515 q 349 708 207 708 q 549 627 478 708 q 621 394 621 546 q 616 336 621 360 q 610 307 611 313 l 236 307 q 273 130 238 182 q 388 78 308 78 q 471 98 435 78 q 528 142 507 118 q 549 169 549 167 l 611 121 q 583 81 611 115 q 499 15 554 46 q 365 -15 444 -15 m 449 397 l 449 429 q 426 577 449 535 q 349 619 404 619 q 287 600 310 619 q 251 533 264 581 q 236 397 239 485 l 449 397 z "},"ẹ":{"ha":658,"x_min":40,"x_max":621,"o":"m 365 -15 q 126 70 211 -15 q 40 335 40 156 q 124 612 40 515 q 349 708 207 708 q 549 627 478 708 q 621 394 621 546 q 616 336 621 360 q 610 307 611 313 l 236 307 q 273 130 238 182 q 388 78 308 78 q 471 98 435 78 q 528 142 507 118 q 549 169 549 167 l 611 121 q 583 81 611 115 q 499 15 554 46 q 365 -15 444 -15 m 449 397 l 449 429 q 426 577 449 535 q 349 619 404 619 q 287 600 310 619 q 251 533 264 581 q 236 397 239 485 l 449 397 m 329 -292 q 295 -285 313 -292 q 265 -268 278 -279 q 238 -200 238 -240 q 265 -132 238 -162 q 329 -107 290 -107 q 392 -132 367 -107 q 419 -200 419 -160 q 392 -268 419 -242 q 329 -292 365 -292 z "},"è":{"ha":658,"x_min":40,"x_max":621,"o":"m 332 797 l 153 976 l 300 1025 l 418 821 l 332 797 m 365 -15 q 126 70 211 -15 q 40 335 40 156 q 124 612 40 515 q 349 708 207 708 q 549 627 478 708 q 621 394 621 546 q 616 336 621 360 q 610 307 611 313 l 236 307 q 273 130 238 182 q 388 78 308 78 q 471 98 435 78 q 528 142 507 118 q 549 169 549 167 l 611 121 q 583 81 611 115 q 499 15 554 46 q 365 -15 444 -15 m 449 397 l 449 429 q 426 577 449 535 q 349 619 404 619 q 287 600 310 619 q 251 533 264 581 q 236 397 239 485 l 449 397 z "},"ẻ":{"ha":658,"x_min":40,"x_max":621,"o":"m 365 -15 q 126 70 211 -15 q 40 335 40 156 q 124 612 40 515 q 349 708 207 708 q 549 627 478 708 q 621 394 621 546 q 616 336 621 360 q 610 307 611 313 l 236 307 q 273 130 238 182 q 388 78 308 78 q 471 98 435 78 q 528 142 507 118 q 549 169 549 167 l 611 121 q 583 81 611 115 q 499 15 554 46 q 365 -15 444 -15 m 449 397 l 449 429 q 426 577 449 535 q 349 619 404 619 q 287 600 310 619 q 251 533 264 581 q 236 397 239 485 l 449 397 m 283 775 q 282 804 282 785 q 288 822 282 815 q 307 842 293 829 q 328 862 321 853 q 335 886 335 871 q 281 942 335 942 q 250 936 264 942 q 228 925 236 931 q 219 918 221 919 l 174 997 q 192 1008 178 1000 q 229 1023 206 1015 q 281 1031 253 1031 q 432 903 432 1031 q 421 860 432 876 q 389 824 410 843 q 369 804 375 811 q 364 788 364 797 l 364 776 l 283 775 z "},"ē":{"ha":658,"x_min":40,"x_max":621,"o":"m 203 867 l 203 947 l 500 947 l 500 867 l 203 867 m 365 -15 q 126 70 211 -15 q 40 335 40 156 q 124 612 40 515 q 349 708 207 708 q 549 627 478 708 q 621 394 621 546 q 616 336 621 360 q 610 307 611 313 l 236 307 q 273 130 238 182 q 388 78 308 78 q 471 98 435 78 q 528 142 507 118 q 549 169 549 167 l 611 121 q 583 81 611 115 q 499 15 554 46 q 365 -15 444 -15 m 449 397 l 449 429 q 426 577 449 535 q 349 619 404 619 q 287 600 310 619 q 251 533 264 581 q 236 397 239 485 l 449 397 z "},"ę":{"ha":658,"x_min":40,"x_max":621,"o":"m 471 -347 q 304 -313 365 -347 q 243 -185 243 -279 q 344 -15 243 -94 q 120 76 200 -10 q 40 335 40 161 q 124 612 40 515 q 349 708 207 708 q 549 627 478 708 q 621 394 621 546 q 616 336 621 360 q 610 307 611 313 l 236 307 q 273 130 238 182 q 388 78 308 78 q 471 98 435 78 q 528 142 507 118 q 549 169 549 167 l 611 121 q 593 93 611 118 q 541 41 575 68 q 458 -1 507 14 q 394 -64 424 -22 q 365 -171 365 -106 q 390 -256 365 -233 q 471 -279 414 -279 l 471 -347 m 449 397 l 449 429 q 426 577 449 535 q 349 619 404 619 q 287 600 310 619 q 251 533 264 581 q 236 397 239 485 l 449 397 z "},"ẽ":{"ha":658,"x_min":40,"x_max":621,"o":"m 365 -15 q 126 70 211 -15 q 40 335 40 156 q 124 612 40 515 q 349 708 207 708 q 549 627 478 708 q 621 394 621 546 q 616 336 621 360 q 610 307 611 313 l 236 307 q 273 130 238 182 q 388 78 308 78 q 471 98 435 78 q 528 142 507 118 q 549 169 549 167 l 611 121 q 583 81 611 115 q 499 15 554 46 q 365 -15 444 -15 m 449 397 l 449 429 q 426 577 449 535 q 349 619 404 619 q 287 600 310 619 q 251 533 264 581 q 236 397 239 485 l 449 397 m 424 821 q 369 829 393 821 q 307 856 344 838 q 256 879 278 871 q 208 888 233 888 q 168 874 186 888 q 140 844 150 860 q 128 825 131 829 l 78 875 q 99 913 78 881 q 158 972 119 944 q 249 1000 196 1000 q 313 990 286 1000 q 374 963 340 981 q 421 942 403 949 q 460 935 439 935 q 497 944 482 935 q 520 965 513 954 q 529 979 528 976 l 579 931 q 563 897 579 925 q 511 845 546 869 q 424 821 476 821 z "},"f":{"ha":481,"x_min":49,"x_max":492,"o":"m 117 588 l 49 588 l 49 671 l 117 690 l 117 793 q 168 987 117 918 q 336 1056 219 1056 q 406 1045 371 1056 q 463 1024 440 1035 q 492 1008 486 1013 l 468 929 q 447 940 464 932 q 408 955 431 947 q 369 963 386 963 q 329 949 343 963 q 308 894 315 935 q 301 772 301 853 l 301 694 l 475 694 l 475 588 l 301 588 l 301 0 l 117 0 l 117 588 z "},"g":{"ha":640,"x_min":14,"x_max":642,"o":"m 325 -364 q 91 -301 168 -364 q 14 -132 14 -239 q 101 39 14 -15 q 86 114 86 72 q 147 250 86 197 q 69 335 97 282 q 40 458 40 388 q 121 646 40 583 q 326 708 201 708 q 432 693 382 708 l 619 692 l 619 610 l 553 606 q 592 458 592 547 q 519 269 592 335 q 322 204 446 204 q 226 215 275 204 q 200 164 200 194 q 232 122 200 136 q 342 107 264 107 q 568 51 494 107 q 642 -112 642 -4 q 562 -299 642 -235 q 325 -364 482 -364 m 318 289 q 389 329 365 289 q 413 461 413 369 q 389 586 413 553 q 317 619 365 619 q 243 585 268 619 q 218 458 218 551 q 244 328 218 368 q 318 289 269 289 m 325 -269 q 447 -240 407 -269 q 488 -156 488 -211 q 444 -75 488 -100 q 313 -50 400 -50 q 178 -28 231 -50 q 143 -128 143 -65 q 188 -233 143 -196 q 325 -269 233 -269 z "},"ğ":{"ha":640,"x_min":14,"x_max":642,"o":"m 317 781 q 147 843 183 781 q 110 951 110 906 l 201 964 l 201 958 q 209 933 201 951 q 242 899 217 915 q 317 882 268 882 q 392 899 367 882 q 426 933 418 915 q 433 958 433 951 l 433 964 l 526 951 q 489 844 526 907 q 317 781 451 781 m 325 -364 q 91 -301 168 -364 q 14 -132 14 -239 q 101 39 14 -15 q 86 114 86 72 q 147 250 86 197 q 69 335 97 282 q 40 458 40 388 q 121 646 40 583 q 326 708 201 708 q 432 693 382 708 l 619 692 l 619 610 l 553 606 q 592 458 592 547 q 519 269 592 335 q 322 204 446 204 q 226 215 275 204 q 200 164 200 194 q 232 122 200 136 q 342 107 264 107 q 568 51 494 107 q 642 -112 642 -4 q 562 -299 642 -235 q 325 -364 482 -364 m 318 289 q 389 329 365 289 q 413 461 413 369 q 389 586 413 553 q 317 619 365 619 q 243 585 268 619 q 218 458 218 551 q 244 328 218 368 q 318 289 269 289 m 325 -269 q 447 -240 407 -269 q 488 -156 488 -211 q 444 -75 488 -100 q 313 -50 400 -50 q 178 -28 231 -50 q 143 -128 143 -65 q 188 -233 143 -196 q 325 -269 233 -269 z "},"ģ":{"ha":640,"x_min":14,"x_max":642,"o":"m 318 774 q 258 796 282 774 l 253 803 q 217 911 217 844 q 256 1058 217 982 q 357 1181 294 1133 l 397 1138 q 331 1052 354 1097 q 307 963 307 1007 l 308 946 l 318 946 q 376 924 351 946 q 403 860 403 899 q 376 796 403 822 q 318 774 354 774 m 325 -364 q 91 -301 168 -364 q 14 -132 14 -239 q 101 39 14 -15 q 86 114 86 72 q 147 250 86 197 q 69 335 97 282 q 40 458 40 388 q 121 646 40 583 q 326 708 201 708 q 432 693 382 708 l 619 692 l 619 610 l 553 606 q 592 458 592 547 q 519 269 592 335 q 322 204 446 204 q 226 215 275 204 q 200 164 200 194 q 232 122 200 136 q 342 107 264 107 q 568 51 494 107 q 642 -112 642 -4 q 562 -299 642 -235 q 325 -364 482 -364 m 318 289 q 389 329 365 289 q 413 461 413 369 q 389 586 413 553 q 317 619 365 619 q 243 585 268 619 q 218 458 218 551 q 244 328 218 368 q 318 289 269 289 m 325 -269 q 447 -240 407 -269 q 488 -156 488 -211 q 444 -75 488 -100 q 313 -50 400 -50 q 178 -28 231 -50 q 143 -128 143 -65 q 188 -233 143 -196 q 325 -269 233 -269 z "},"h":{"ha":746,"x_min":83,"x_max":668,"o":"m 83 1036 l 268 1047 l 268 647 l 274 647 q 297 665 274 650 q 360 694 319 681 q 454 708 400 708 q 615 651 563 708 q 668 471 668 593 l 668 0 l 485 0 l 485 456 q 464 565 485 536 q 390 593 443 593 q 328 582 356 593 q 285 558 301 571 q 268 543 268 544 l 268 0 l 83 0 l 83 1036 z "},"i":{"ha":351,"x_min":71,"x_max":278,"o":"m 176 799 q 103 826 135 799 q 71 906 71 858 q 103 983 71 951 q 176 1011 132 1011 q 247 985 219 1011 q 278 906 278 953 q 247 825 278 857 q 176 799 217 799 m 83 0 l 83 694 l 268 694 l 268 0 l 83 0 z "},"ı":{"ha":351,"x_min":83,"x_max":268,"o":"m 83 0 l 83 694 l 268 694 l 268 0 l 83 0 z "},"í":{"ha":351,"x_min":83,"x_max":356,"o":"m 188 790 l 108 803 l 206 1014 l 356 971 l 188 790 m 83 0 l 83 694 l 268 694 l 268 0 l 83 0 z "},"î":{"ha":351,"x_min":-7,"x_max":361,"o":"m 33 814 l -7 876 l 129 1046 l 226 1046 l 361 876 l 322 814 l 178 932 l 33 814 m 83 0 l 83 694 l 268 694 l 268 0 l 83 0 z "},"ï":{"ha":351,"x_min":-47,"x_max":394,"o":"m 44 808 q -19 833 8 808 q -47 906 -47 861 q -19 978 -47 949 q 44 1001 8 1001 q 108 978 81 1001 q 136 906 136 946 q 108 833 136 864 q 44 808 82 808 m 303 808 q 239 833 264 808 q 211 906 211 861 q 239 978 211 949 q 303 1001 265 1001 q 367 978 339 1001 q 394 906 394 946 q 367 833 394 864 q 303 808 340 808 m 83 0 l 83 694 l 268 694 l 268 0 l 83 0 z "},"ị":{"ha":351,"x_min":71,"x_max":278,"o":"m 176 799 q 103 826 135 799 q 71 906 71 858 q 103 983 71 951 q 176 1011 132 1011 q 247 985 219 1011 q 278 906 278 953 q 247 825 278 857 q 176 799 217 799 m 83 0 l 83 694 l 268 694 l 268 0 l 83 0 m 176 -292 q 142 -285 160 -292 q 113 -268 125 -279 q 85 -200 85 -240 q 113 -132 85 -162 q 176 -107 138 -107 q 239 -132 214 -107 q 267 -200 267 -160 q 239 -268 267 -242 q 176 -292 213 -292 z "},"ì":{"ha":351,"x_min":-24,"x_max":268,"o":"m 156 797 l -24 976 l 124 1025 l 242 821 l 156 797 m 83 0 l 83 694 l 268 694 l 268 0 l 83 0 z "},"ỉ":{"ha":351,"x_min":21,"x_max":279,"o":"m 83 0 l 83 694 l 268 694 l 268 0 l 83 0 m 131 775 q 129 804 129 785 q 135 822 129 815 q 154 842 140 829 q 175 862 168 853 q 182 886 182 871 q 128 942 182 942 q 97 936 111 942 q 76 925 83 931 q 67 918 68 919 l 21 997 q 39 1008 25 1000 q 76 1023 53 1015 q 128 1031 100 1031 q 279 903 279 1031 q 268 860 279 876 q 236 824 257 843 q 217 804 222 811 q 211 788 211 797 l 211 776 l 131 775 z "},"ī":{"ha":351,"x_min":28,"x_max":325,"o":"m 28 867 l 28 947 l 325 947 l 325 867 l 28 867 m 83 0 l 83 694 l 268 694 l 268 0 l 83 0 z "},"į":{"ha":351,"x_min":-56,"x_max":274,"o":"m 172 799 q 99 826 131 799 q 67 906 67 858 q 99 983 67 951 q 172 1011 128 1011 q 243 985 215 1011 q 274 906 274 953 q 243 825 274 857 q 172 799 213 799 m 172 -347 q 6 -313 67 -347 q -56 -185 -56 -279 q -15 -74 -56 -124 q 83 11 25 -25 l 83 694 l 268 694 l 268 0 l 163 0 q 97 -62 126 -21 q 67 -171 67 -103 q 91 -256 67 -233 q 172 -279 115 -279 l 172 -347 z "},"ĩ":{"ha":351,"x_min":-75,"x_max":426,"o":"m 83 0 l 83 694 l 268 694 l 268 0 l 83 0 m 271 821 q 216 829 240 821 q 154 856 192 838 q 103 879 125 871 q 56 888 81 888 q 15 874 33 888 q -12 844 -3 860 q -25 825 -22 829 l -75 875 q -54 913 -75 881 q 5 972 -33 944 q 96 1000 43 1000 q 160 990 133 1000 q 221 963 188 981 q 268 942 250 949 q 307 935 286 935 q 344 944 329 935 q 367 965 360 954 q 376 979 375 976 l 426 931 q 410 897 426 925 q 358 845 393 869 q 271 821 324 821 z "},"j":{"ha":389,"x_min":-69,"x_max":315,"o":"m 214 799 q 140 826 172 799 q 108 906 108 858 q 140 983 108 951 q 214 1011 169 1011 q 285 985 257 1011 q 315 906 315 953 q 285 825 315 857 q 214 799 254 799 m 60 -362 q -9 -353 19 -362 q -53 -333 -37 -344 q -69 -321 -69 -322 l -39 -237 q -26 -246 -36 -239 q 1 -258 -15 -253 q 35 -264 18 -264 q 99 -215 79 -264 q 119 -40 119 -165 l 119 694 l 304 694 l 304 -40 q 238 -285 304 -208 q 60 -362 172 -362 z "},"ȷ":{"ha":386,"x_min":-72,"x_max":301,"o":"m 57 -362 q -12 -353 17 -362 q -56 -333 -40 -344 q -72 -321 -72 -322 l -42 -237 q -28 -246 -39 -239 q -1 -258 -18 -253 q 32 -264 15 -264 q 97 -215 76 -264 q 117 -40 117 -165 l 117 694 l 301 694 l 301 -40 q 235 -285 301 -208 q 57 -362 169 -362 z "},"k":{"ha":682,"x_min":82,"x_max":668,"o":"m 82 0 l 82 1036 l 267 1047 l 267 400 l 363 465 l 510 694 l 624 694 l 443 436 l 668 0 l 457 0 l 301 325 l 267 303 l 267 0 l 82 0 z "},"ķ":{"ha":683,"x_min":83,"x_max":669,"o":"m 83 0 l 83 1036 l 268 1047 l 268 400 l 364 465 l 511 694 l 625 694 l 444 436 l 669 0 l 458 0 l 303 325 l 268 303 l 268 0 l 83 0 m 282 -428 q 349 -342 325 -387 q 372 -253 372 -297 l 371 -236 l 361 -236 q 303 -214 328 -236 q 276 -150 276 -189 q 303 -86 276 -112 q 361 -64 325 -64 q 421 -86 397 -64 l 426 -93 q 463 -201 463 -135 q 424 -348 463 -272 q 322 -471 385 -424 l 282 -428 z "},"l":{"ha":353,"x_min":83,"x_max":268,"o":"m 83 0 l 83 1036 l 268 1047 l 268 0 l 83 0 z "},"ĺ":{"ha":353,"x_min":83,"x_max":383,"o":"m 215 1103 l 136 1115 l 233 1326 l 383 1283 l 215 1103 m 83 0 l 83 1036 l 268 1047 l 268 0 l 83 0 z "},"ľ":{"ha":353,"x_min":83,"x_max":489,"o":"m 396 767 l 329 772 l 364 1111 l 489 1092 l 396 767 m 83 0 l 83 1036 l 268 1047 l 268 0 l 83 0 z "},"ļ":{"ha":353,"x_min":83,"x_max":279,"o":"m 83 0 l 83 1036 l 268 1047 l 268 0 l 83 0 m 99 -428 q 165 -342 142 -387 q 189 -253 189 -297 l 188 -236 l 178 -236 q 119 -214 144 -236 q 93 -150 93 -189 q 119 -86 93 -112 q 178 -64 142 -64 q 238 -86 214 -64 l 243 -93 q 279 -201 279 -135 q 240 -348 279 -272 q 139 -471 201 -424 l 99 -428 z "},"ł":{"ha":407,"x_min":0,"x_max":436,"o":"m 111 0 l 111 428 l 39 374 l 0 428 l 111 513 l 111 1036 l 296 1047 l 296 653 l 396 729 l 436 676 l 296 569 l 296 0 l 111 0 z "},"m":{"ha":1056,"x_min":83,"x_max":978,"o":"m 83 694 l 232 694 l 256 632 l 260 632 q 285 655 260 635 q 351 692 310 675 q 443 708 392 708 q 538 690 500 708 q 596 635 575 672 q 637 666 619 654 q 697 693 654 678 q 793 708 739 708 q 935 656 892 708 q 978 485 978 604 l 978 0 l 793 0 l 793 471 q 776 570 793 546 q 719 594 758 594 q 660 577 685 594 q 621 542 635 560 q 624 488 624 508 l 624 0 l 439 0 l 439 471 q 422 569 439 544 q 367 594 404 594 q 304 576 331 594 q 268 544 278 558 l 268 0 l 83 0 l 83 694 z "},"n":{"ha":747,"x_min":83,"x_max":671,"o":"m 83 694 l 232 694 l 256 638 l 261 638 q 284 658 261 640 q 350 692 307 676 q 457 708 393 708 q 617 651 564 708 q 671 471 671 593 l 671 0 l 486 0 l 486 433 q 466 560 486 526 q 393 593 446 593 q 329 582 357 593 q 285 558 301 571 q 268 543 268 544 l 268 0 l 83 0 l 83 694 z "},"ń":{"ha":747,"x_min":83,"x_max":671,"o":"m 372 790 l 293 803 l 390 1014 l 540 971 l 372 790 m 83 694 l 232 694 l 256 638 l 261 638 q 284 658 261 640 q 350 692 307 676 q 457 708 393 708 q 617 651 564 708 q 671 471 671 593 l 671 0 l 486 0 l 486 433 q 466 560 486 526 q 393 593 446 593 q 329 582 357 593 q 285 558 301 571 q 268 543 268 544 l 268 0 l 83 0 l 83 694 z "},"ň":{"ha":747,"x_min":83,"x_max":671,"o":"m 331 794 l 171 986 l 229 1035 l 379 906 l 529 1035 l 588 981 l 428 794 l 331 794 m 83 694 l 232 694 l 256 638 l 261 638 q 284 658 261 640 q 350 692 307 676 q 457 708 393 708 q 617 651 564 708 q 671 471 671 593 l 671 0 l 486 0 l 486 433 q 466 560 486 526 q 393 593 446 593 q 329 582 357 593 q 285 558 301 571 q 268 543 268 544 l 268 0 l 83 0 l 83 694 z "},"ņ":{"ha":747,"x_min":83,"x_max":671,"o":"m 83 694 l 232 694 l 256 638 l 261 638 q 284 658 261 640 q 350 692 307 676 q 457 708 393 708 q 617 651 564 708 q 671 471 671 593 l 671 0 l 486 0 l 486 433 q 466 560 486 526 q 393 593 446 593 q 329 582 357 593 q 285 558 301 571 q 268 543 268 544 l 268 0 l 83 0 l 83 694 m 292 -428 q 358 -342 335 -387 q 382 -253 382 -297 l 381 -236 l 371 -236 q 313 -214 338 -236 q 286 -150 286 -189 q 313 -86 286 -112 q 371 -64 335 -64 q 431 -86 407 -64 l 436 -93 q 472 -201 472 -135 q 433 -348 472 -272 q 332 -471 394 -424 l 292 -428 z "},"ñ":{"ha":747,"x_min":83,"x_max":671,"o":"m 457 821 q 402 829 426 821 q 340 856 378 838 q 289 879 311 871 q 242 888 267 888 q 201 874 219 888 q 174 844 183 860 q 161 825 164 829 l 111 875 q 132 913 111 881 q 191 972 153 944 q 282 1000 229 1000 q 347 990 319 1000 q 407 963 374 981 q 454 942 436 949 q 493 935 472 935 q 531 944 515 935 q 553 965 546 954 q 563 979 561 976 l 613 931 q 596 897 613 925 q 544 845 579 869 q 457 821 510 821 m 83 694 l 232 694 l 256 638 l 261 638 q 284 658 261 640 q 350 692 307 676 q 457 708 393 708 q 617 651 564 708 q 671 471 671 593 l 671 0 l 486 0 l 486 433 q 466 560 486 526 q 393 593 446 593 q 329 582 357 593 q 285 558 301 571 q 268 543 268 544 l 268 0 l 83 0 l 83 694 z "},"o":{"ha":729,"x_min":40,"x_max":689,"o":"m 364 -15 q 124 79 208 -15 q 40 347 40 174 q 124 615 40 521 q 364 710 208 710 q 605 615 521 710 q 689 347 689 521 q 602 80 689 175 q 364 -15 515 -15 m 364 76 q 437 103 410 76 q 476 188 464 129 q 489 347 489 246 q 476 507 489 449 q 438 591 464 565 q 364 617 411 617 q 290 591 317 617 q 251 507 264 565 q 239 349 239 449 q 251 188 239 247 q 291 103 264 129 q 364 76 318 76 z "},"ó":{"ha":729,"x_min":40,"x_max":689,"o":"m 363 790 l 283 803 l 381 1014 l 531 971 l 363 790 m 364 -15 q 124 79 208 -15 q 40 347 40 174 q 124 615 40 521 q 364 710 208 710 q 605 615 521 710 q 689 347 689 521 q 602 80 689 175 q 364 -15 515 -15 m 364 76 q 437 103 410 76 q 476 188 464 129 q 489 347 489 246 q 476 507 489 449 q 438 591 464 565 q 364 617 411 617 q 290 591 317 617 q 251 507 264 565 q 239 349 239 449 q 251 188 239 247 q 291 103 264 129 q 364 76 318 76 z "},"ô":{"ha":729,"x_min":40,"x_max":689,"o":"m 201 814 l 161 876 l 297 1046 l 394 1046 l 529 876 l 490 814 l 346 932 l 201 814 m 364 -15 q 124 79 208 -15 q 40 347 40 174 q 124 615 40 521 q 364 710 208 710 q 605 615 521 710 q 689 347 689 521 q 602 80 689 175 q 364 -15 515 -15 m 364 76 q 437 103 410 76 q 476 188 464 129 q 489 347 489 246 q 476 507 489 449 q 438 591 464 565 q 364 617 411 617 q 290 591 317 617 q 251 507 264 565 q 239 349 239 449 q 251 188 239 247 q 291 103 264 129 q 364 76 318 76 z "},"ố":{"ha":729,"x_min":40,"x_max":760,"o":"m 364 -15 q 124 79 208 -15 q 40 347 40 174 q 124 615 40 521 q 364 710 208 710 q 605 615 521 710 q 689 347 689 521 q 602 80 689 175 q 364 -15 515 -15 m 364 76 q 437 103 410 76 q 476 188 464 129 q 489 347 489 246 q 476 507 489 449 q 438 591 464 565 q 364 617 411 617 q 290 591 317 617 q 251 507 264 565 q 239 349 239 449 q 251 188 239 247 q 291 103 264 129 q 364 76 318 76 m 221 764 l 181 826 l 317 996 l 414 996 l 549 826 l 510 764 l 365 882 l 221 764 m 592 910 l 513 922 l 610 1133 l 760 1090 l 592 910 z "},"ộ":{"ha":729,"x_min":40,"x_max":689,"o":"m 364 -15 q 124 79 208 -15 q 40 347 40 174 q 124 615 40 521 q 364 710 208 710 q 605 615 521 710 q 689 347 689 521 q 602 80 689 175 q 364 -15 515 -15 m 364 76 q 437 103 410 76 q 476 188 464 129 q 489 347 489 246 q 476 507 489 449 q 438 591 464 565 q 364 617 411 617 q 290 591 317 617 q 251 507 264 565 q 239 349 239 449 q 251 188 239 247 q 291 103 264 129 q 364 76 318 76 m 365 -292 q 331 -285 349 -292 q 301 -268 314 -279 q 274 -200 274 -240 q 301 -132 274 -162 q 365 -107 326 -107 q 428 -132 403 -107 q 456 -200 456 -160 q 428 -268 456 -242 q 365 -292 401 -292 m 221 764 l 181 826 l 317 996 l 414 996 l 549 826 l 510 764 l 365 882 l 221 764 z "},"ồ":{"ha":729,"x_min":40,"x_max":689,"o":"m 364 -15 q 124 79 208 -15 q 40 347 40 174 q 124 615 40 521 q 364 710 208 710 q 605 615 521 710 q 689 347 689 521 q 602 80 689 175 q 364 -15 515 -15 m 364 76 q 437 103 410 76 q 476 188 464 129 q 489 347 489 246 q 476 507 489 449 q 438 591 464 565 q 364 617 411 617 q 290 591 317 617 q 251 507 264 565 q 239 349 239 449 q 251 188 239 247 q 291 103 264 129 q 364 76 318 76 m 221 764 l 181 826 l 317 996 l 414 996 l 549 826 l 510 764 l 365 882 l 221 764 m 528 969 l 349 1149 l 496 1197 l 614 993 l 528 969 z "},"ổ":{"ha":729,"x_min":40,"x_max":715,"o":"m 364 -15 q 124 79 208 -15 q 40 347 40 174 q 124 615 40 521 q 364 710 208 710 q 605 615 521 710 q 689 347 689 521 q 602 80 689 175 q 364 -15 515 -15 m 364 76 q 437 103 410 76 q 476 188 464 129 q 489 347 489 246 q 476 507 489 449 q 438 591 464 565 q 364 617 411 617 q 290 591 317 617 q 251 507 264 565 q 239 349 239 449 q 251 188 239 247 q 291 103 264 129 q 364 76 318 76 m 221 764 l 181 826 l 317 996 l 414 996 l 549 826 l 510 764 l 365 882 l 221 764 m 567 914 q 565 943 565 924 q 571 961 565 954 q 590 981 576 968 q 611 1001 604 992 q 618 1025 618 1010 q 564 1081 618 1081 q 533 1075 547 1081 q 512 1064 519 1069 q 503 1057 504 1058 l 457 1136 q 475 1147 461 1139 q 513 1162 489 1154 q 564 1169 536 1169 q 715 1042 715 1169 q 704 999 715 1015 q 672 963 693 982 q 653 943 658 950 q 647 926 647 936 l 647 915 l 567 914 z "},"ỗ":{"ha":729,"x_min":40,"x_max":689,"o":"m 364 -15 q 124 79 208 -15 q 40 347 40 174 q 124 615 40 521 q 364 710 208 710 q 605 615 521 710 q 689 347 689 521 q 602 80 689 175 q 364 -15 515 -15 m 364 76 q 437 103 410 76 q 476 188 464 129 q 489 347 489 246 q 476 507 489 449 q 438 591 464 565 q 364 617 411 617 q 290 591 317 617 q 251 507 264 565 q 239 349 239 449 q 251 188 239 247 q 291 103 264 129 q 364 76 318 76 m 221 764 l 181 826 l 317 996 l 414 996 l 549 826 l 510 764 l 365 882 l 221 764 m 460 1025 q 405 1033 429 1025 q 343 1060 381 1042 q 292 1083 314 1075 q 244 1092 269 1092 q 204 1078 222 1092 q 176 1049 186 1064 q 164 1029 167 1033 l 114 1079 q 135 1117 114 1085 q 194 1176 156 1149 q 285 1204 232 1204 q 349 1194 322 1204 q 410 1167 376 1185 q 457 1146 439 1153 q 496 1139 475 1139 q 533 1149 518 1139 q 556 1169 549 1158 q 565 1183 564 1181 l 615 1135 q 599 1101 615 1129 q 547 1049 582 1074 q 460 1025 513 1025 z "},"ö":{"ha":729,"x_min":40,"x_max":689,"o":"m 214 808 q 150 833 178 808 q 122 906 122 861 q 150 978 122 949 q 214 1001 178 1001 q 278 978 250 1001 q 306 906 306 946 q 278 833 306 864 q 214 808 251 808 m 472 808 q 408 833 433 808 q 381 906 381 861 q 408 978 381 949 q 472 1001 435 1001 q 536 978 508 1001 q 564 906 564 946 q 536 833 564 864 q 472 808 510 808 m 364 -15 q 124 79 208 -15 q 40 347 40 174 q 124 615 40 521 q 364 710 208 710 q 605 615 521 710 q 689 347 689 521 q 602 80 689 175 q 364 -15 515 -15 m 364 76 q 437 103 410 76 q 476 188 464 129 q 489 347 489 246 q 476 507 489 449 q 438 591 464 565 q 364 617 411 617 q 290 591 317 617 q 251 507 264 565 q 239 349 239 449 q 251 188 239 247 q 291 103 264 129 q 364 76 318 76 z "},"ọ":{"ha":729,"x_min":40,"x_max":689,"o":"m 364 -15 q 124 79 208 -15 q 40 347 40 174 q 124 615 40 521 q 364 710 208 710 q 605 615 521 710 q 689 347 689 521 q 602 80 689 175 q 364 -15 515 -15 m 364 76 q 437 103 410 76 q 476 188 464 129 q 489 347 489 246 q 476 507 489 449 q 438 591 464 565 q 364 617 411 617 q 290 591 317 617 q 251 507 264 565 q 239 349 239 449 q 251 188 239 247 q 291 103 264 129 q 364 76 318 76 m 365 -292 q 331 -285 349 -292 q 301 -268 314 -279 q 274 -200 274 -240 q 301 -132 274 -162 q 365 -107 326 -107 q 428 -132 403 -107 q 456 -200 456 -160 q 428 -268 456 -242 q 365 -292 401 -292 z "},"ò":{"ha":729,"x_min":40,"x_max":689,"o":"m 331 797 l 151 976 l 299 1025 l 417 821 l 331 797 m 364 -15 q 124 79 208 -15 q 40 347 40 174 q 124 615 40 521 q 364 710 208 710 q 605 615 521 710 q 689 347 689 521 q 602 80 689 175 q 364 -15 515 -15 m 364 76 q 437 103 410 76 q 476 188 464 129 q 489 347 489 246 q 476 507 489 449 q 438 591 464 565 q 364 617 411 617 q 290 591 317 617 q 251 507 264 565 q 239 349 239 449 q 251 188 239 247 q 291 103 264 129 q 364 76 318 76 z "},"ỏ":{"ha":729,"x_min":40,"x_max":689,"o":"m 364 -15 q 124 79 208 -15 q 40 347 40 174 q 124 615 40 521 q 364 710 208 710 q 605 615 521 710 q 689 347 689 521 q 602 80 689 175 q 364 -15 515 -15 m 364 76 q 437 103 410 76 q 476 188 464 129 q 489 347 489 246 q 476 507 489 449 q 438 591 464 565 q 364 617 411 617 q 290 591 317 617 q 251 507 264 565 q 239 349 239 449 q 251 188 239 247 q 291 103 264 129 q 364 76 318 76 m 319 775 q 318 804 318 785 q 324 822 318 815 q 343 842 329 829 q 364 862 357 853 q 371 886 371 871 q 317 942 371 942 q 286 936 300 942 q 265 925 272 931 q 256 918 257 919 l 210 997 q 228 1008 214 1000 q 265 1023 242 1015 q 317 1031 289 1031 q 468 903 468 1031 q 457 860 468 876 q 425 824 446 843 q 406 804 411 811 q 400 788 400 797 l 400 776 l 319 775 z "},"ơ":{"ha":729,"x_min":40,"x_max":689,"o":"m 585 636 q 689 347 689 543 q 602 80 689 175 q 364 -15 515 -15 q 124 79 208 -15 q 40 347 40 174 q 124 615 40 521 q 364 710 208 710 q 476 694 422 710 q 540 726 518 697 q 564 818 563 756 l 685 818 q 658 710 685 757 q 585 636 632 663 m 364 76 q 437 103 410 76 q 476 188 464 129 q 489 347 489 246 q 476 507 489 449 q 438 591 464 565 q 364 617 411 617 q 290 591 317 617 q 251 507 264 565 q 239 349 239 449 q 251 188 239 247 q 291 103 264 129 q 364 76 318 76 z "},"ớ":{"ha":729,"x_min":40,"x_max":689,"o":"m 585 636 q 689 347 689 543 q 602 80 689 175 q 364 -15 515 -15 q 124 79 208 -15 q 40 347 40 174 q 124 615 40 521 q 364 710 208 710 q 476 694 422 710 q 540 726 518 697 q 564 818 563 756 l 685 818 q 658 710 685 757 q 585 636 632 663 m 364 76 q 437 103 410 76 q 476 188 464 129 q 489 347 489 246 q 476 507 489 449 q 438 591 464 565 q 364 617 411 617 q 290 591 317 617 q 251 507 264 565 q 239 349 239 449 q 251 188 239 247 q 291 103 264 129 q 364 76 318 76 m 321 790 l 242 803 l 339 1014 l 489 971 l 321 790 z "},"ợ":{"ha":729,"x_min":40,"x_max":689,"o":"m 585 636 q 689 347 689 543 q 602 80 689 175 q 364 -15 515 -15 q 124 79 208 -15 q 40 347 40 174 q 124 615 40 521 q 364 710 208 710 q 476 694 422 710 q 540 726 518 697 q 564 818 563 756 l 685 818 q 658 710 685 757 q 585 636 632 663 m 364 76 q 437 103 410 76 q 476 188 464 129 q 489 347 489 246 q 476 507 489 449 q 438 591 464 565 q 364 617 411 617 q 290 591 317 617 q 251 507 264 565 q 239 349 239 449 q 251 188 239 247 q 291 103 264 129 q 364 76 318 76 m 365 -292 q 331 -285 349 -292 q 301 -268 314 -279 q 274 -200 274 -240 q 301 -132 274 -162 q 365 -107 326 -107 q 428 -132 403 -107 q 456 -200 456 -160 q 428 -268 456 -242 q 365 -292 401 -292 z "},"ờ":{"ha":729,"x_min":40,"x_max":689,"o":"m 585 636 q 689 347 689 543 q 602 80 689 175 q 364 -15 515 -15 q 124 79 208 -15 q 40 347 40 174 q 124 615 40 521 q 364 710 208 710 q 476 694 422 710 q 540 726 518 697 q 564 818 563 756 l 685 818 q 658 710 685 757 q 585 636 632 663 m 364 76 q 437 103 410 76 q 476 188 464 129 q 489 347 489 246 q 476 507 489 449 q 438 591 464 565 q 364 617 411 617 q 290 591 317 617 q 251 507 264 565 q 239 349 239 449 q 251 188 239 247 q 291 103 264 129 q 364 76 318 76 m 411 797 l 232 976 l 379 1025 l 497 821 l 411 797 z "},"ở":{"ha":729,"x_min":40,"x_max":689,"o":"m 585 636 q 689 347 689 543 q 602 80 689 175 q 364 -15 515 -15 q 124 79 208 -15 q 40 347 40 174 q 124 615 40 521 q 364 710 208 710 q 476 694 422 710 q 540 726 518 697 q 564 818 563 756 l 685 818 q 658 710 685 757 q 585 636 632 663 m 364 76 q 437 103 410 76 q 476 188 464 129 q 489 347 489 246 q 476 507 489 449 q 438 591 464 565 q 364 617 411 617 q 290 591 317 617 q 251 507 264 565 q 239 349 239 449 q 251 188 239 247 q 291 103 264 129 q 364 76 318 76 m 319 775 q 318 804 318 785 q 324 822 318 815 q 343 842 329 829 q 364 862 357 853 q 371 886 371 871 q 317 942 371 942 q 286 936 300 942 q 265 925 272 931 q 256 918 257 919 l 210 997 q 228 1008 214 1000 q 265 1023 242 1015 q 317 1031 289 1031 q 468 903 468 1031 q 457 860 468 876 q 425 824 446 843 q 406 804 411 811 q 400 788 400 797 l 400 776 l 319 775 z "},"ỡ":{"ha":729,"x_min":40,"x_max":689,"o":"m 585 636 q 689 347 689 543 q 602 80 689 175 q 364 -15 515 -15 q 124 79 208 -15 q 40 347 40 174 q 124 615 40 521 q 364 710 208 710 q 476 694 422 710 q 540 726 518 697 q 564 818 563 756 l 685 818 q 658 710 685 757 q 585 636 632 663 m 364 76 q 437 103 410 76 q 476 188 464 129 q 489 347 489 246 q 476 507 489 449 q 438 591 464 565 q 364 617 411 617 q 290 591 317 617 q 251 507 264 565 q 239 349 239 449 q 251 188 239 247 q 291 103 264 129 q 364 76 318 76 m 460 821 q 405 829 429 821 q 343 856 381 838 q 292 879 314 871 q 244 888 269 888 q 204 874 222 888 q 176 844 186 860 q 164 825 167 829 l 114 875 q 135 913 114 881 q 194 972 156 944 q 285 1000 232 1000 q 349 990 322 1000 q 410 963 376 981 q 457 942 439 949 q 496 935 475 935 q 533 944 518 935 q 556 965 549 954 q 565 979 564 976 l 615 931 q 599 897 615 925 q 547 845 582 869 q 460 821 513 821 z "},"ő":{"ha":729,"x_min":40,"x_max":689,"o":"m 265 781 l 194 813 l 268 1025 l 396 989 l 265 781 m 481 781 l 410 813 l 485 1025 l 613 989 l 481 781 m 364 -15 q 124 79 208 -15 q 40 347 40 174 q 124 615 40 521 q 364 710 208 710 q 605 615 521 710 q 689 347 689 521 q 602 80 689 175 q 364 -15 515 -15 m 364 76 q 437 103 410 76 q 476 188 464 129 q 489 347 489 246 q 476 507 489 449 q 438 591 464 565 q 364 617 411 617 q 290 591 317 617 q 251 507 264 565 q 239 349 239 449 q 251 188 239 247 q 291 103 264 129 q 364 76 318 76 z "},"ō":{"ha":729,"x_min":40,"x_max":689,"o":"m 215 867 l 215 947 l 513 947 l 513 867 l 215 867 m 364 -15 q 124 79 208 -15 q 40 347 40 174 q 124 615 40 521 q 364 710 208 710 q 605 615 521 710 q 689 347 689 521 q 602 80 689 175 q 364 -15 515 -15 m 364 76 q 437 103 410 76 q 476 188 464 129 q 489 347 489 246 q 476 507 489 449 q 438 591 464 565 q 364 617 411 617 q 290 591 317 617 q 251 507 264 565 q 239 349 239 449 q 251 188 239 247 q 291 103 264 129 q 364 76 318 76 z "},"ø":{"ha":735,"x_min":40,"x_max":689,"o":"m 99 -239 l 199 21 q 81 144 121 61 q 40 347 40 228 q 124 615 40 521 q 364 710 208 710 q 463 699 414 710 l 542 903 l 622 888 l 536 668 q 650 545 611 626 q 689 347 689 464 q 602 80 689 175 q 364 -15 515 -15 q 274 -6 322 -15 l 178 -254 l 99 -239 m 425 601 q 364 617 403 617 q 290 591 317 617 q 251 507 264 565 q 239 349 239 449 q 256 167 239 229 l 425 601 m 364 76 q 437 103 410 76 q 476 188 464 129 q 489 347 489 246 q 475 511 489 454 l 310 88 q 364 76 331 76 z "},"õ":{"ha":729,"x_min":40,"x_max":689,"o":"m 444 821 q 390 829 414 821 q 328 856 365 838 q 276 879 299 871 q 229 888 254 888 q 189 874 207 888 q 161 844 171 860 q 149 825 151 829 l 99 875 q 119 913 99 881 q 178 972 140 944 q 269 1000 217 1000 q 334 990 307 1000 q 394 963 361 981 q 442 942 424 949 q 481 935 460 935 q 518 944 503 935 q 541 965 533 954 q 550 979 549 976 l 600 931 q 583 897 600 925 q 532 845 567 869 q 444 821 497 821 m 364 -15 q 124 79 208 -15 q 40 347 40 174 q 124 615 40 521 q 364 710 208 710 q 605 615 521 710 q 689 347 689 521 q 602 80 689 175 q 364 -15 515 -15 m 364 76 q 437 103 410 76 q 476 188 464 129 q 489 347 489 246 q 476 507 489 449 q 438 591 464 565 q 364 617 411 617 q 290 591 317 617 q 251 507 264 565 q 239 349 239 449 q 251 188 239 247 q 291 103 264 129 q 364 76 318 76 z "},"œ":{"ha":1111,"x_min":40,"x_max":1074,"o":"m 364 -15 q 124 79 208 -15 q 40 347 40 174 q 124 615 40 521 q 364 710 208 710 q 592 628 506 710 q 801 708 672 708 q 1002 627 931 708 q 1074 394 1074 546 q 1069 336 1074 360 q 1063 307 1064 313 l 689 307 q 726 130 690 182 q 840 78 761 78 q 924 98 888 78 q 981 142 960 118 q 1001 169 1001 167 l 1064 121 q 1035 81 1064 115 q 952 15 1007 46 q 818 -15 897 -15 q 585 63 667 -15 q 364 -15 503 -15 m 901 397 l 901 429 q 879 577 901 535 q 801 619 857 619 q 740 600 763 619 q 704 533 717 581 q 689 397 692 485 l 901 397 m 364 76 q 437 103 410 76 q 476 188 464 129 q 489 347 489 246 q 476 507 489 449 q 438 591 464 565 q 364 617 411 617 q 290 591 317 617 q 251 507 264 565 q 239 349 239 449 q 251 188 239 247 q 291 103 264 129 q 364 76 318 76 z "},"p":{"ha":757,"x_min":83,"x_max":715,"o":"m 83 694 l 232 694 l 257 632 l 261 632 q 285 655 261 635 q 350 692 308 675 q 450 710 392 710 q 644 615 574 710 q 715 361 715 521 q 682 163 715 249 q 587 31 649 78 q 440 -15 525 -15 q 349 -3 386 -15 q 292 22 311 8 q 272 38 272 35 l 268 38 l 268 -347 l 83 -353 l 83 694 m 371 90 q 455 115 424 90 q 501 198 486 140 q 517 357 517 256 q 502 506 517 453 q 459 581 488 560 q 385 601 431 601 q 326 589 351 601 q 285 563 300 576 q 268 542 271 549 l 268 136 q 282 122 271 132 q 316 101 293 111 q 371 90 339 90 z "},"þ":{"ha":754,"x_min":81,"x_max":714,"o":"m 81 1036 l 265 1047 l 265 649 l 271 649 q 289 669 271 651 q 344 701 307 686 q 438 715 382 715 q 582 671 519 715 q 679 546 644 626 q 714 361 714 465 q 637 84 714 189 q 424 -21 560 -21 q 265 25 326 -21 l 265 -347 l 81 -353 l 81 1036 m 375 85 q 483 147 451 85 q 515 357 515 208 q 502 507 515 453 q 460 584 489 561 q 382 607 431 607 q 303 580 333 607 q 265 535 272 553 l 265 136 q 278 120 265 133 q 315 96 290 107 q 375 85 339 85 z "},"q":{"ha":757,"x_min":42,"x_max":672,"o":"m 488 50 l 482 50 q 464 31 482 47 q 409 -1 446 14 q 317 -15 372 -15 q 172 28 235 -15 q 76 149 110 71 q 42 332 42 228 q 78 530 42 444 q 181 663 115 615 q 332 710 247 710 q 422 697 383 710 q 483 669 461 683 q 506 651 506 654 l 507 651 l 549 694 l 672 694 l 672 -347 l 488 -353 l 488 50 m 379 93 q 453 114 428 93 q 488 151 479 135 l 488 560 q 452 588 478 572 q 385 604 426 604 q 275 547 311 604 q 239 338 239 489 q 256 184 239 238 q 302 112 272 131 q 379 93 332 93 z "},"r":{"ha":493,"x_min":83,"x_max":492,"o":"m 83 694 l 214 694 l 244 578 l 250 578 q 261 619 250 586 q 302 681 272 651 q 382 710 332 710 q 445 701 410 710 q 492 690 481 693 l 475 561 q 426 572 464 564 q 360 581 388 581 q 308 562 328 581 q 278 522 288 543 q 268 497 268 501 l 268 0 l 83 0 l 83 694 z "},"ŕ":{"ha":493,"x_min":83,"x_max":492,"o":"m 294 790 l 215 803 l 313 1014 l 463 971 l 294 790 m 83 694 l 214 694 l 244 578 l 250 578 q 261 619 250 586 q 302 681 272 651 q 382 710 332 710 q 445 701 410 710 q 492 690 481 693 l 475 561 q 426 572 464 564 q 360 581 388 581 q 308 562 328 581 q 278 522 288 543 q 268 497 268 501 l 268 0 l 83 0 l 83 694 z "},"ř":{"ha":493,"x_min":76,"x_max":493,"o":"m 236 794 l 76 986 l 135 1035 l 285 906 l 435 1035 l 493 981 l 333 794 l 236 794 m 83 694 l 214 694 l 244 578 l 250 578 q 261 619 250 586 q 302 681 272 651 q 382 710 332 710 q 445 701 410 710 q 492 690 481 693 l 475 561 q 426 572 464 564 q 360 581 388 581 q 308 562 328 581 q 278 522 288 543 q 268 497 268 501 l 268 0 l 83 0 l 83 694 z "},"ŗ":{"ha":493,"x_min":83,"x_max":492,"o":"m 83 694 l 214 694 l 244 578 l 250 578 q 261 619 250 586 q 302 681 272 651 q 382 710 332 710 q 445 701 410 710 q 492 690 481 693 l 475 561 q 426 572 464 564 q 360 581 388 581 q 308 562 328 581 q 278 522 288 543 q 268 497 268 501 l 268 0 l 83 0 l 83 694 m 92 -428 q 158 -342 135 -387 q 182 -253 182 -297 l 181 -236 l 171 -236 q 113 -214 138 -236 q 86 -150 86 -189 q 113 -86 86 -112 q 171 -64 135 -64 q 231 -86 207 -64 l 236 -93 q 272 -201 272 -135 q 233 -348 272 -272 q 132 -471 194 -424 l 92 -428 z "},"s":{"ha":579,"x_min":33,"x_max":539,"o":"m 278 -15 q 143 8 197 -15 q 61 57 89 31 q 33 89 33 83 l 85 161 q 107 136 85 158 q 163 95 129 114 q 239 76 197 76 q 318 103 290 76 q 346 172 346 129 q 317 238 346 214 q 229 289 288 263 q 142 337 175 315 q 86 397 110 358 q 63 494 63 435 q 133 653 63 597 q 308 710 204 710 q 397 699 353 710 q 471 676 442 688 q 508 661 500 665 l 483 568 q 451 585 476 572 q 391 608 426 597 q 326 619 356 619 q 260 599 283 619 q 236 543 236 578 q 267 476 236 501 q 363 421 299 450 q 454 370 419 393 q 514 308 489 347 q 539 211 539 269 q 472 47 539 110 q 278 -15 404 -15 z "},"ś":{"ha":579,"x_min":33,"x_max":539,"o":"m 329 790 l 250 803 l 347 1014 l 497 971 l 329 790 m 278 -15 q 143 8 197 -15 q 61 57 89 31 q 33 89 33 83 l 85 161 q 107 136 85 158 q 163 95 129 114 q 239 76 197 76 q 318 103 290 76 q 346 172 346 129 q 317 238 346 214 q 229 289 288 263 q 142 337 175 315 q 86 397 110 358 q 63 494 63 435 q 133 653 63 597 q 308 710 204 710 q 397 699 353 710 q 471 676 442 688 q 508 661 500 665 l 483 568 q 451 585 476 572 q 391 608 426 597 q 326 619 356 619 q 260 599 283 619 q 236 543 236 578 q 267 476 236 501 q 363 421 299 450 q 454 370 419 393 q 514 308 489 347 q 539 211 539 269 q 472 47 539 110 q 278 -15 404 -15 z "},"š":{"ha":579,"x_min":33,"x_max":539,"o":"m 243 794 l 83 986 l 142 1035 l 292 906 l 442 1035 l 500 981 l 340 794 l 243 794 m 278 -15 q 143 8 197 -15 q 61 57 89 31 q 33 89 33 83 l 85 161 q 107 136 85 158 q 163 95 129 114 q 239 76 197 76 q 318 103 290 76 q 346 172 346 129 q 317 238 346 214 q 229 289 288 263 q 142 337 175 315 q 86 397 110 358 q 63 494 63 435 q 133 653 63 597 q 308 710 204 710 q 397 699 353 710 q 471 676 442 688 q 508 661 500 665 l 483 568 q 451 585 476 572 q 391 608 426 597 q 326 619 356 619 q 260 599 283 619 q 236 543 236 578 q 267 476 236 501 q 363 421 299 450 q 454 370 419 393 q 514 308 489 347 q 539 211 539 269 q 472 47 539 110 q 278 -15 404 -15 z "},"ş":{"ha":579,"x_min":33,"x_max":539,"o":"m 265 -349 q 190 -335 219 -349 q 146 -304 160 -321 q 132 -285 132 -287 l 168 -244 q 180 -257 171 -247 q 206 -276 189 -267 q 244 -285 222 -285 q 314 -206 314 -285 q 292 -159 314 -172 q 251 -142 271 -146 q 231 -136 231 -137 l 246 -14 q 128 14 175 -8 q 57 60 81 36 q 33 89 33 85 l 85 161 q 107 136 85 158 q 163 95 129 114 q 239 76 197 76 q 318 103 290 76 q 346 172 346 129 q 317 238 346 214 q 229 289 288 263 q 142 337 175 315 q 86 397 110 358 q 63 494 63 435 q 133 653 63 597 q 308 710 204 710 q 397 699 353 710 q 471 676 442 688 q 508 661 500 665 l 483 568 q 451 585 476 572 q 391 608 426 597 q 326 619 356 619 q 260 599 283 619 q 236 543 236 578 q 267 476 236 501 q 363 421 299 450 q 454 370 419 393 q 514 308 489 347 q 539 211 539 269 q 479 54 539 115 q 307 -14 419 -7 l 300 -81 q 333 -94 300 -82 q 395 -133 367 -106 q 424 -208 424 -161 q 383 -310 424 -272 q 265 -349 342 -349 z "},"ß":{"ha":779,"x_min":83,"x_max":739,"o":"m 458 -15 q 378 -8 410 -15 q 330 6 346 -1 q 314 15 314 14 l 335 103 q 347 97 338 101 q 374 88 356 92 q 415 83 392 83 q 508 138 475 83 q 540 328 540 192 q 524 493 540 436 q 467 572 507 550 q 356 594 428 594 l 356 694 q 386 703 356 690 q 441 747 417 715 q 465 833 465 778 q 443 932 465 901 q 372 963 421 963 q 292 910 315 963 q 268 728 268 858 l 268 0 l 83 0 l 83 728 q 163 976 83 897 q 383 1056 242 1056 q 580 1001 508 1056 q 651 850 651 946 q 521 663 651 725 q 739 329 739 601 q 666 66 739 147 q 458 -15 593 -15 z "},"ſ":{"ha":351,"x_min":83,"x_max":458,"o":"m 83 793 q 135 987 83 918 q 303 1056 186 1056 q 372 1045 338 1056 q 430 1024 407 1035 q 458 1008 453 1013 l 435 929 q 414 940 431 932 q 374 955 397 947 q 333 963 351 963 q 283 924 299 963 q 267 772 267 885 l 267 0 l 83 0 l 83 793 z "},"t":{"ha":490,"x_min":42,"x_max":446,"o":"m 301 -15 q 156 33 203 -15 q 108 197 108 82 l 108 588 l 42 588 l 42 671 l 110 690 l 199 925 l 293 925 l 293 694 l 446 694 l 446 588 l 293 588 l 293 244 q 299 145 293 179 q 319 98 306 111 q 358 85 333 85 q 408 90 386 85 q 431 97 431 96 l 442 18 q 426 8 442 17 q 380 -8 411 0 q 301 -15 349 -15 z "},"ť":{"ha":490,"x_min":42,"x_max":558,"o":"m 465 767 l 399 772 l 433 1111 l 558 1092 l 465 767 m 301 -15 q 156 33 203 -15 q 108 197 108 82 l 108 588 l 42 588 l 42 671 l 110 690 l 199 925 l 293 925 l 293 694 l 446 694 l 446 588 l 293 588 l 293 244 q 299 145 293 179 q 319 98 306 111 q 358 85 333 85 q 408 90 386 85 q 431 97 431 96 l 442 18 q 426 8 442 17 q 380 -8 411 0 q 301 -15 349 -15 z "},"ț":{"ha":490,"x_min":42,"x_max":446,"o":"m 301 -15 q 156 33 203 -15 q 108 197 108 82 l 108 588 l 42 588 l 42 671 l 110 690 l 199 925 l 293 925 l 293 694 l 446 694 l 446 588 l 293 588 l 293 244 q 299 145 293 179 q 319 98 306 111 q 358 85 333 85 q 408 90 386 85 q 431 97 431 96 l 442 18 q 426 8 442 17 q 380 -8 411 0 q 301 -15 349 -15 m 174 -428 q 240 -342 217 -387 q 264 -253 264 -297 l 263 -236 l 253 -236 q 194 -214 219 -236 q 168 -150 168 -189 q 194 -86 168 -112 q 253 -64 217 -64 q 313 -86 289 -64 l 318 -93 q 354 -201 354 -135 q 315 -348 354 -272 q 214 -471 276 -424 l 174 -428 z "},"u":{"ha":747,"x_min":78,"x_max":663,"o":"m 292 -15 q 131 42 185 -15 q 78 222 78 100 l 78 694 l 263 694 l 263 261 q 285 135 263 169 q 357 100 307 100 q 417 112 390 100 q 458 136 443 124 q 478 153 474 149 l 478 694 l 663 694 l 663 0 l 514 0 l 488 61 l 485 61 q 463 38 485 58 q 397 1 440 18 q 292 -15 354 -15 z "},"ú":{"ha":747,"x_min":78,"x_max":663,"o":"m 390 790 l 311 803 l 408 1014 l 558 971 l 390 790 m 292 -15 q 131 42 185 -15 q 78 222 78 100 l 78 694 l 263 694 l 263 261 q 285 135 263 169 q 357 100 307 100 q 417 112 390 100 q 458 136 443 124 q 478 153 474 149 l 478 694 l 663 694 l 663 0 l 514 0 l 488 61 l 485 61 q 463 38 485 58 q 397 1 440 18 q 292 -15 354 -15 z "},"û":{"ha":747,"x_min":78,"x_max":663,"o":"m 229 814 l 189 876 l 325 1046 l 422 1046 l 557 876 l 518 814 l 374 932 l 229 814 m 292 -15 q 131 42 185 -15 q 78 222 78 100 l 78 694 l 263 694 l 263 261 q 285 135 263 169 q 357 100 307 100 q 417 112 390 100 q 458 136 443 124 q 478 153 474 149 l 478 694 l 663 694 l 663 0 l 514 0 l 488 61 l 485 61 q 463 38 485 58 q 397 1 440 18 q 292 -15 354 -15 z "},"ü":{"ha":747,"x_min":78,"x_max":663,"o":"m 242 808 q 178 833 206 808 q 150 906 150 861 q 178 978 150 949 q 242 1001 206 1001 q 306 978 278 1001 q 333 906 333 946 q 306 833 333 864 q 242 808 279 808 m 500 808 q 436 833 461 808 q 408 906 408 861 q 436 978 408 949 q 500 1001 463 1001 q 564 978 536 1001 q 592 906 592 946 q 564 833 592 864 q 500 808 538 808 m 292 -15 q 131 42 185 -15 q 78 222 78 100 l 78 694 l 263 694 l 263 261 q 285 135 263 169 q 357 100 307 100 q 417 112 390 100 q 458 136 443 124 q 478 153 474 149 l 478 694 l 663 694 l 663 0 l 514 0 l 488 61 l 485 61 q 463 38 485 58 q 397 1 440 18 q 292 -15 354 -15 z "},"ụ":{"ha":747,"x_min":78,"x_max":663,"o":"m 292 -15 q 131 42 185 -15 q 78 222 78 100 l 78 694 l 263 694 l 263 261 q 285 135 263 169 q 357 100 307 100 q 417 112 390 100 q 458 136 443 124 q 478 153 474 149 l 478 694 l 663 694 l 663 0 l 514 0 l 488 61 l 485 61 q 463 38 485 58 q 397 1 440 18 q 292 -15 354 -15 m 374 -292 q 340 -285 357 -292 q 310 -268 322 -279 q 282 -200 282 -240 q 310 -132 282 -162 q 374 -107 335 -107 q 436 -132 411 -107 q 464 -200 464 -160 q 436 -268 464 -242 q 374 -292 410 -292 z "},"ù":{"ha":747,"x_min":78,"x_max":663,"o":"m 358 797 l 179 976 l 326 1025 l 444 821 l 358 797 m 292 -15 q 131 42 185 -15 q 78 222 78 100 l 78 694 l 263 694 l 263 261 q 285 135 263 169 q 357 100 307 100 q 417 112 390 100 q 458 136 443 124 q 478 153 474 149 l 478 694 l 663 694 l 663 0 l 514 0 l 488 61 l 485 61 q 463 38 485 58 q 397 1 440 18 q 292 -15 354 -15 z "},"ủ":{"ha":747,"x_min":78,"x_max":663,"o":"m 292 -15 q 131 42 185 -15 q 78 222 78 100 l 78 694 l 263 694 l 263 261 q 285 135 263 169 q 357 100 307 100 q 417 112 390 100 q 458 136 443 124 q 478 153 474 149 l 478 694 l 663 694 l 663 0 l 514 0 l 488 61 l 485 61 q 463 38 485 58 q 397 1 440 18 q 292 -15 354 -15 m 328 775 q 326 804 326 785 q 332 822 326 815 q 351 842 338 829 q 372 862 365 853 q 379 886 379 871 q 325 942 379 942 q 294 936 308 942 q 273 925 281 931 q 264 918 265 919 l 218 997 q 236 1008 222 1000 q 274 1023 250 1015 q 325 1031 297 1031 q 476 903 476 1031 q 465 860 476 876 q 433 824 454 843 q 414 804 419 811 q 408 788 408 797 l 408 776 l 328 775 z "},"ư":{"ha":747,"x_min":78,"x_max":806,"o":"m 806 818 q 768 692 806 744 q 663 618 731 639 l 663 0 l 514 0 l 488 61 l 485 61 q 463 38 485 58 q 397 1 440 18 q 292 -15 354 -15 q 131 42 185 -15 q 78 222 78 100 l 78 694 l 263 694 l 263 261 q 285 135 263 169 q 357 100 307 100 q 417 112 390 100 q 458 136 443 124 q 478 153 474 149 l 478 694 l 586 694 q 658 723 633 694 q 685 818 683 751 l 806 818 z "},"ứ":{"ha":747,"x_min":78,"x_max":806,"o":"m 806 818 q 768 692 806 744 q 663 618 731 639 l 663 0 l 514 0 l 488 61 l 485 61 q 463 38 485 58 q 397 1 440 18 q 292 -15 354 -15 q 131 42 185 -15 q 78 222 78 100 l 78 694 l 263 694 l 263 261 q 285 135 263 169 q 357 100 307 100 q 417 112 390 100 q 458 136 443 124 q 478 153 474 149 l 478 694 l 586 694 q 658 723 633 694 q 685 818 683 751 l 806 818 m 329 790 l 250 803 l 347 1014 l 497 971 l 329 790 z "},"ự":{"ha":747,"x_min":78,"x_max":806,"o":"m 806 818 q 768 692 806 744 q 663 618 731 639 l 663 0 l 514 0 l 488 61 l 485 61 q 463 38 485 58 q 397 1 440 18 q 292 -15 354 -15 q 131 42 185 -15 q 78 222 78 100 l 78 694 l 263 694 l 263 261 q 285 135 263 169 q 357 100 307 100 q 417 112 390 100 q 458 136 443 124 q 478 153 474 149 l 478 694 l 586 694 q 658 723 633 694 q 685 818 683 751 l 806 818 m 374 -292 q 340 -285 357 -292 q 310 -268 322 -279 q 282 -200 282 -240 q 310 -132 282 -162 q 374 -107 335 -107 q 436 -132 411 -107 q 464 -200 464 -160 q 436 -268 464 -242 q 374 -292 410 -292 z "},"ừ":{"ha":747,"x_min":78,"x_max":806,"o":"m 806 818 q 768 692 806 744 q 663 618 731 639 l 663 0 l 514 0 l 488 61 l 485 61 q 463 38 485 58 q 397 1 440 18 q 292 -15 354 -15 q 131 42 185 -15 q 78 222 78 100 l 78 694 l 263 694 l 263 261 q 285 135 263 169 q 357 100 307 100 q 417 112 390 100 q 458 136 443 124 q 478 153 474 149 l 478 694 l 586 694 q 658 723 633 694 q 685 818 683 751 l 806 818 m 419 797 l 240 976 l 388 1025 l 506 821 l 419 797 z "},"ử":{"ha":747,"x_min":78,"x_max":806,"o":"m 806 818 q 768 692 806 744 q 663 618 731 639 l 663 0 l 514 0 l 488 61 l 485 61 q 463 38 485 58 q 397 1 440 18 q 292 -15 354 -15 q 131 42 185 -15 q 78 222 78 100 l 78 694 l 263 694 l 263 261 q 285 135 263 169 q 357 100 307 100 q 417 112 390 100 q 458 136 443 124 q 478 153 474 149 l 478 694 l 586 694 q 658 723 633 694 q 685 818 683 751 l 806 818 m 328 775 q 326 804 326 785 q 332 822 326 815 q 351 842 338 829 q 372 862 365 853 q 379 886 379 871 q 325 942 379 942 q 294 936 308 942 q 273 925 281 931 q 264 918 265 919 l 218 997 q 236 1008 222 1000 q 274 1023 250 1015 q 325 1031 297 1031 q 476 903 476 1031 q 465 860 476 876 q 433 824 454 843 q 414 804 419 811 q 408 788 408 797 l 408 776 l 328 775 z "},"ữ":{"ha":747,"x_min":78,"x_max":806,"o":"m 806 818 q 768 692 806 744 q 663 618 731 639 l 663 0 l 514 0 l 488 61 l 485 61 q 463 38 485 58 q 397 1 440 18 q 292 -15 354 -15 q 131 42 185 -15 q 78 222 78 100 l 78 694 l 263 694 l 263 261 q 285 135 263 169 q 357 100 307 100 q 417 112 390 100 q 458 136 443 124 q 478 153 474 149 l 478 694 l 586 694 q 658 723 633 694 q 685 818 683 751 l 806 818 m 468 821 q 413 829 438 821 q 351 856 389 838 q 300 879 322 871 q 253 888 278 888 q 213 874 231 888 q 185 844 194 860 q 172 825 175 829 l 122 875 q 143 913 122 881 q 202 972 164 944 q 293 1000 240 1000 q 358 990 331 1000 q 418 963 385 981 q 465 942 447 949 q 504 935 483 935 q 542 944 526 935 q 565 965 557 954 q 574 979 572 976 l 624 931 q 607 897 624 925 q 556 845 590 869 q 468 821 521 821 z "},"ű":{"ha":747,"x_min":78,"x_max":663,"o":"m 289 781 l 218 813 l 292 1025 l 419 989 l 289 781 m 504 781 l 433 813 l 508 1025 l 636 989 l 504 781 m 292 -15 q 131 42 185 -15 q 78 222 78 100 l 78 694 l 263 694 l 263 261 q 285 135 263 169 q 357 100 307 100 q 417 112 390 100 q 458 136 443 124 q 478 153 474 149 l 478 694 l 663 694 l 663 0 l 514 0 l 488 61 l 485 61 q 463 38 485 58 q 397 1 440 18 q 292 -15 354 -15 z "},"ū":{"ha":747,"x_min":78,"x_max":663,"o":"m 235 867 l 235 947 l 532 947 l 532 867 l 235 867 m 292 -15 q 131 42 185 -15 q 78 222 78 100 l 78 694 l 263 694 l 263 261 q 285 135 263 169 q 357 100 307 100 q 417 112 390 100 q 458 136 443 124 q 478 153 474 149 l 478 694 l 663 694 l 663 0 l 514 0 l 488 61 l 485 61 q 463 38 485 58 q 397 1 440 18 q 292 -15 354 -15 z "},"ų":{"ha":747,"x_min":78,"x_max":663,"o":"m 615 -347 q 449 -313 510 -347 q 388 -185 388 -279 q 424 -81 388 -128 q 513 1 460 -33 l 488 61 l 485 61 q 463 38 485 58 q 397 1 440 18 q 292 -15 354 -15 q 131 42 185 -15 q 78 222 78 100 l 78 694 l 263 694 l 263 261 q 285 135 263 169 q 357 100 307 100 q 417 112 390 100 q 458 136 443 124 q 478 153 474 149 l 478 694 l 663 694 l 663 0 l 606 0 q 540 -62 569 -21 q 510 -171 510 -103 q 534 -256 510 -233 q 615 -279 558 -279 l 615 -347 z "},"ů":{"ha":747,"x_min":78,"x_max":663,"o":"m 374 761 q 267 801 307 761 q 228 911 228 840 q 269 1020 228 981 q 374 1060 310 1060 q 478 1019 436 1060 q 519 911 519 979 q 479 801 519 842 q 374 761 439 761 m 374 821 q 433 844 411 821 q 456 913 456 867 q 433 978 456 956 q 374 1001 410 1001 q 315 978 338 1001 q 292 913 292 956 q 314 844 292 867 q 374 821 336 821 m 292 -15 q 131 42 185 -15 q 78 222 78 100 l 78 694 l 263 694 l 263 261 q 285 135 263 169 q 357 100 307 100 q 417 112 390 100 q 458 136 443 124 q 478 153 474 149 l 478 694 l 663 694 l 663 0 l 514 0 l 488 61 l 485 61 q 463 38 485 58 q 397 1 440 18 q 292 -15 354 -15 z "},"ũ":{"ha":747,"x_min":78,"x_max":663,"o":"m 292 -15 q 131 42 185 -15 q 78 222 78 100 l 78 694 l 263 694 l 263 261 q 285 135 263 169 q 357 100 307 100 q 417 112 390 100 q 458 136 443 124 q 478 153 474 149 l 478 694 l 663 694 l 663 0 l 514 0 l 488 61 l 485 61 q 463 38 485 58 q 397 1 440 18 q 292 -15 354 -15 m 468 821 q 413 829 438 821 q 351 856 389 838 q 300 879 322 871 q 253 888 278 888 q 213 874 231 888 q 185 844 194 860 q 172 825 175 829 l 122 875 q 143 913 122 881 q 202 972 164 944 q 293 1000 240 1000 q 358 990 331 1000 q 418 963 385 981 q 465 942 447 949 q 504 935 483 935 q 542 944 526 935 q 565 965 557 954 q 574 979 572 976 l 624 931 q 607 897 624 925 q 556 845 590 869 q 468 821 521 821 z "},"v":{"ha":656,"x_min":7,"x_max":649,"o":"m 250 0 l 7 694 l 231 694 l 367 200 l 372 200 l 528 694 l 649 694 l 403 0 l 250 0 z "},"w":{"ha":972,"x_min":8,"x_max":964,"o":"m 207 0 l 8 694 l 218 694 l 319 232 l 324 232 l 456 694 l 582 694 l 728 232 l 732 232 l 844 694 l 964 694 l 760 0 l 613 0 l 488 453 l 488 454 l 483 454 l 354 0 l 207 0 z "},"x":{"ha":657,"x_min":13,"x_max":644,"o":"m 13 0 l 226 336 l 24 694 l 244 694 l 360 449 l 490 694 l 617 694 l 424 379 l 644 0 l 424 0 l 293 260 l 142 0 l 13 0 z "},"y":{"ha":668,"x_min":10,"x_max":661,"o":"m 139 -362 q 83 -358 107 -362 q 46 -348 58 -353 q 31 -342 33 -343 l 46 -233 q 74 -242 51 -236 q 118 -249 96 -249 q 219 -199 181 -249 q 306 -28 258 -150 l 10 694 l 233 694 l 403 200 l 546 694 l 661 694 l 421 -15 q 340 -207 378 -133 q 253 -322 301 -281 q 139 -362 204 -362 z "},"ý":{"ha":668,"x_min":10,"x_max":661,"o":"m 365 790 l 286 803 l 383 1014 l 533 971 l 365 790 m 139 -362 q 83 -358 107 -362 q 46 -348 58 -353 q 31 -342 33 -343 l 46 -233 q 74 -242 51 -236 q 118 -249 96 -249 q 219 -199 181 -249 q 306 -28 258 -150 l 10 694 l 233 694 l 403 200 l 546 694 l 661 694 l 421 -15 q 340 -207 378 -133 q 253 -322 301 -281 q 139 -362 204 -362 z "},"ÿ":{"ha":668,"x_min":10,"x_max":661,"o":"m 217 808 q 153 833 181 808 q 125 906 125 861 q 153 978 125 949 q 217 1001 181 1001 q 281 978 253 1001 q 308 906 308 946 q 281 833 308 864 q 217 808 253 808 m 475 808 q 411 833 436 808 q 383 906 383 861 q 411 978 383 949 q 475 1001 438 1001 q 539 978 511 1001 q 567 906 567 946 q 539 833 567 864 q 475 808 513 808 m 139 -362 q 83 -358 107 -362 q 46 -348 58 -353 q 31 -342 33 -343 l 46 -233 q 74 -242 51 -236 q 118 -249 96 -249 q 219 -199 181 -249 q 306 -28 258 -150 l 10 694 l 233 694 l 403 200 l 546 694 l 661 694 l 421 -15 q 340 -207 378 -133 q 253 -322 301 -281 q 139 -362 204 -362 z "},"ỵ":{"ha":668,"x_min":10,"x_max":661,"o":"m 381 -119 q 397 -132 389 -124 q 425 -200 425 -160 q 397 -268 425 -242 q 335 -292 371 -292 q 292 -282 311 -292 q 139 -362 226 -362 q 83 -358 107 -362 q 46 -348 58 -353 q 31 -342 33 -343 l 46 -233 q 74 -242 51 -236 q 118 -249 96 -249 q 219 -199 181 -249 q 306 -28 258 -150 l 10 694 l 233 694 l 403 200 l 546 694 l 661 694 l 421 -15 q 381 -119 392 -93 z "},"ỳ":{"ha":668,"x_min":10,"x_max":661,"o":"m 139 -362 q 83 -358 107 -362 q 46 -348 58 -353 q 31 -342 33 -343 l 46 -233 q 74 -242 51 -236 q 118 -249 96 -249 q 219 -199 181 -249 q 306 -28 258 -150 l 10 694 l 233 694 l 403 200 l 546 694 l 661 694 l 421 -15 q 340 -207 378 -133 q 253 -322 301 -281 q 139 -362 204 -362 m 381 797 l 201 976 l 349 1025 l 467 821 l 381 797 z "},"ỷ":{"ha":668,"x_min":10,"x_max":661,"o":"m 139 -362 q 83 -358 107 -362 q 46 -348 58 -353 q 31 -342 33 -343 l 46 -233 q 74 -242 51 -236 q 118 -249 96 -249 q 219 -199 181 -249 q 306 -28 258 -150 l 10 694 l 233 694 l 403 200 l 546 694 l 661 694 l 421 -15 q 340 -207 378 -133 q 253 -322 301 -281 q 139 -362 204 -362 m 289 775 q 288 804 288 785 q 293 822 288 815 q 313 842 299 829 q 333 862 326 853 q 340 886 340 871 q 286 942 340 942 q 256 936 269 942 q 234 925 242 931 q 225 918 226 919 l 179 997 q 197 1008 183 1000 q 235 1023 211 1015 q 286 1031 258 1031 q 438 903 438 1031 q 426 860 438 876 q 394 824 415 843 q 375 804 381 811 q 369 788 369 797 l 369 776 l 289 775 z "},"ỹ":{"ha":668,"x_min":10,"x_max":661,"o":"m 139 -362 q 83 -358 107 -362 q 46 -348 58 -353 q 31 -342 33 -343 l 46 -233 q 74 -242 51 -236 q 118 -249 96 -249 q 219 -199 181 -249 q 306 -28 258 -150 l 10 694 l 233 694 l 403 200 l 546 694 l 661 694 l 421 -15 q 340 -207 378 -133 q 253 -322 301 -281 q 139 -362 204 -362 m 429 821 q 374 829 399 821 q 313 856 350 838 q 261 879 283 871 q 214 888 239 888 q 174 874 192 888 q 146 844 156 860 q 133 825 136 829 l 83 875 q 104 913 83 881 q 163 972 125 944 q 254 1000 201 1000 q 319 990 292 1000 q 379 963 346 981 q 426 942 408 949 q 465 935 444 935 q 503 944 488 935 q 526 965 518 954 q 535 979 533 976 l 585 931 q 568 897 585 925 q 517 845 551 869 q 429 821 482 821 z "},"z":{"ha":603,"x_min":36,"x_max":565,"o":"m 36 0 l 36 83 l 354 600 l 63 600 l 58 694 l 565 694 l 565 611 l 250 94 l 553 94 l 556 0 l 36 0 z "},"ź":{"ha":603,"x_min":36,"x_max":565,"o":"m 332 790 l 253 803 l 350 1014 l 500 971 l 332 790 m 36 0 l 36 83 l 354 600 l 63 600 l 58 694 l 565 694 l 565 611 l 250 94 l 553 94 l 556 0 l 36 0 z "},"ž":{"ha":603,"x_min":36,"x_max":565,"o":"m 268 794 l 108 986 l 167 1035 l 317 906 l 467 1035 l 525 981 l 365 794 l 268 794 m 36 0 l 36 83 l 354 600 l 63 600 l 58 694 l 565 694 l 565 611 l 250 94 l 553 94 l 556 0 l 36 0 z "},"ż":{"ha":603,"x_min":36,"x_max":565,"o":"m 317 799 q 243 826 275 799 q 211 906 211 858 q 243 983 211 951 q 317 1011 272 1011 q 388 985 360 1011 q 418 906 418 953 q 388 825 418 857 q 317 799 357 799 m 36 0 l 36 83 l 354 600 l 63 600 l 58 694 l 565 694 l 565 611 l 250 94 l 553 94 l 556 0 l 36 0 z "},"ﬁ":{"ha":799,"x_min":51,"x_max":724,"o":"m 117 588 l 51 588 l 51 671 l 117 690 l 117 793 q 174 988 117 919 q 367 1056 231 1056 q 551 986 456 1056 q 622 1011 581 1011 q 693 985 665 1011 q 724 906 724 953 q 693 825 724 857 q 622 799 663 799 q 549 826 581 799 q 517 906 517 858 l 517 917 q 403 960 453 960 q 341 944 363 960 q 310 890 319 929 q 301 772 301 850 l 301 694 l 478 694 l 478 588 l 301 588 l 301 0 l 117 0 l 117 588 m 529 0 l 529 694 l 714 694 l 714 0 l 529 0 z "},"ﬂ":{"ha":811,"x_min":49,"x_max":726,"o":"m 117 588 l 49 588 l 49 671 l 117 690 l 117 793 q 172 985 117 914 q 326 1056 226 1056 q 542 1008 421 1056 l 542 1036 l 726 1047 l 726 0 l 542 0 l 542 914 q 378 963 428 963 q 332 947 349 963 q 308 890 315 931 q 301 772 301 849 l 301 694 l 475 694 l 475 588 l 301 588 l 301 0 l 117 0 l 117 588 z "},"ª":{"ha":574,"x_min":39,"x_max":501,"o":"m 204 426 q 81 465 124 426 q 39 574 39 504 q 131 712 39 668 q 338 764 222 756 l 338 771 q 317 853 338 828 q 250 879 297 879 q 186 866 215 879 q 140 839 157 853 q 118 821 122 825 l 83 869 q 105 894 83 874 q 171 931 126 914 q 282 949 215 949 q 446 903 390 949 q 501 758 501 857 l 501 444 l 375 444 l 342 500 q 306 452 336 478 q 204 426 276 426 m 268 510 q 320 526 306 510 q 338 560 335 543 l 338 704 q 233 669 267 696 q 200 589 200 643 q 217 530 200 550 q 268 510 235 510 z "},"º":{"ha":610,"x_min":40,"x_max":568,"o":"m 304 426 q 107 495 174 426 q 40 688 40 564 q 108 880 40 811 q 304 949 175 949 q 501 880 435 949 q 568 688 568 811 q 499 496 568 565 q 304 426 431 426 m 304 496 q 373 541 353 496 q 393 688 393 586 q 373 832 393 788 q 304 876 353 876 q 236 832 257 876 q 215 689 215 788 q 236 542 215 588 q 304 496 257 496 z "},"Ԯ":{"ha":910,"x_min":33,"x_max":878,"o":"m 703 0 l 574 0 l 574 803 l 382 803 q 310 190 381 393 q 108 -14 239 -14 q 54 -9 75 -14 q 33 -3 33 -4 l 40 119 q 57 115 44 118 q 82 113 69 113 q 226 298 179 113 q 272 903 272 483 l 765 903 l 765 100 l 878 100 l 839 -243 l 735 -243 l 703 0 z "},"Ԩ":{"ha":932,"x_min":-111,"x_max":825,"o":"m 68 -299 q -34 -286 6 -299 q -92 -259 -74 -274 q -111 -242 -111 -244 l -69 -161 q -56 -174 -67 -164 q -23 -192 -44 -183 q 26 -200 -1 -200 q 104 -155 79 -200 q 129 14 129 -110 l 129 903 l 321 903 l 321 508 l 633 508 l 633 903 l 825 903 l 825 0 l 633 0 l 633 411 l 321 411 l 321 14 q 259 -228 321 -158 q 68 -299 197 -299 z "},"А":{"ha":844,"x_min":26,"x_max":819,"o":"m 26 0 l 326 903 l 539 903 l 819 0 l 617 0 l 539 253 l 225 253 l 143 0 l 26 0 m 253 340 l 513 340 l 389 765 l 386 765 l 253 340 z "},"Б":{"ha":768,"x_min":107,"x_max":718,"o":"m 107 903 l 614 903 l 614 803 l 300 803 l 300 557 l 358 557 q 624 490 531 557 q 718 290 718 424 q 628 76 718 153 q 364 0 538 0 l 107 0 l 107 903 m 361 90 q 482 133 444 90 q 519 285 519 176 q 481 430 519 390 q 360 469 443 469 l 300 469 l 300 90 l 361 90 z "},"В":{"ha":790,"x_min":107,"x_max":740,"o":"m 107 903 l 382 903 q 560 870 489 903 q 667 784 632 838 q 701 668 701 731 q 663 550 701 599 q 567 471 625 501 q 693 392 646 446 q 740 260 740 338 q 651 71 740 142 q 389 0 561 0 l 107 0 l 107 903 m 413 501 q 483 538 451 501 q 514 657 514 575 q 476 775 514 738 q 376 813 439 813 l 299 813 l 299 501 l 413 501 m 385 90 q 503 134 460 90 q 546 267 546 178 q 422 418 546 418 l 299 418 l 299 90 l 385 90 z "},"Г":{"ha":608,"x_min":107,"x_max":610,"o":"m 107 0 l 107 903 l 610 903 l 610 803 l 299 803 l 299 0 l 107 0 z "},"Ѓ":{"ha":608,"x_min":107,"x_max":610,"o":"m 107 0 l 107 903 l 610 903 l 610 803 l 299 803 l 299 0 l 107 0 m 371 999 l 292 1011 l 389 1222 l 539 1179 l 371 999 z "},"Ґ":{"ha":583,"x_min":107,"x_max":583,"o":"m 107 0 l 107 903 l 440 903 l 479 1042 l 572 1042 l 583 797 l 299 797 l 299 0 l 107 0 z "},"Д":{"ha":897,"x_min":32,"x_max":865,"o":"m 32 100 l 125 100 q 208 399 183 222 q 232 903 232 576 l 753 903 l 753 100 l 865 100 l 832 -243 l 724 -243 l 693 0 l 199 0 l 143 -243 l 47 -243 l 32 100 m 561 100 l 561 803 l 344 803 q 317 376 342 535 q 239 100 292 217 l 561 100 z "},"Е":{"ha":728,"x_min":107,"x_max":668,"o":"m 107 0 l 107 903 l 649 903 l 649 803 l 299 803 l 299 506 l 607 506 l 607 408 l 299 408 l 299 100 l 668 100 l 668 0 l 107 0 z "},"Ѐ":{"ha":728,"x_min":107,"x_max":668,"o":"m 107 0 l 107 903 l 649 903 l 649 803 l 299 803 l 299 506 l 607 506 l 607 408 l 299 408 l 299 100 l 668 100 l 668 0 l 107 0 m 438 1006 l 258 1185 l 406 1233 l 524 1029 l 438 1006 z "},"Ё":{"ha":728,"x_min":107,"x_max":668,"o":"m 107 0 l 107 903 l 649 903 l 649 803 l 299 803 l 299 506 l 607 506 l 607 408 l 299 408 l 299 100 l 668 100 l 668 0 l 107 0 m 263 1017 q 199 1042 225 1017 q 171 1114 171 1069 q 199 1186 171 1157 q 263 1210 226 1210 q 326 1186 299 1210 q 354 1114 354 1154 q 326 1042 354 1072 q 263 1017 299 1017 m 521 1017 q 457 1042 482 1017 q 429 1114 429 1069 q 457 1186 429 1157 q 521 1210 483 1210 q 585 1186 557 1210 q 613 1114 613 1154 q 585 1042 613 1072 q 521 1017 557 1017 z "},"Ж":{"ha":1243,"x_min":29,"x_max":1214,"o":"m 29 0 l 289 528 l 69 903 l 207 903 l 392 561 l 515 561 l 515 903 l 707 903 l 707 561 l 815 561 l 1032 903 l 1169 903 l 925 558 l 1214 0 l 990 0 l 776 461 l 707 461 l 707 0 l 515 0 l 515 460 l 436 460 l 254 0 l 29 0 z "},"З":{"ha":710,"x_min":17,"x_max":661,"o":"m 318 -15 q 143 17 210 -15 q 47 85 76 49 q 17 129 17 121 l 75 201 q 102 167 75 197 q 178 113 129 138 q 294 88 228 88 q 446 257 446 88 q 416 381 446 346 q 325 415 386 415 l 192 404 l 192 511 l 338 499 q 402 542 375 500 q 429 669 429 583 q 399 785 429 751 q 297 819 368 819 q 215 806 258 819 q 142 778 172 793 q 103 760 111 764 l 85 854 q 125 872 85 856 q 221 903 165 889 q 335 917 276 917 q 556 853 478 917 q 633 679 633 789 q 592 549 633 601 q 489 465 551 497 q 661 254 661 424 q 618 114 661 175 q 497 19 575 53 q 318 -15 418 -15 z "},"И":{"ha":939,"x_min":107,"x_max":832,"o":"m 107 0 l 107 903 l 299 903 l 299 304 l 289 214 l 292 214 l 642 872 l 654 903 l 832 903 l 832 0 l 640 0 l 640 583 l 649 683 l 647 683 l 299 31 l 288 0 l 107 0 z "},"Й":{"ha":939,"x_min":107,"x_max":832,"o":"m 107 0 l 107 903 l 299 903 l 299 304 l 289 214 l 292 214 l 642 872 l 654 903 l 832 903 l 832 0 l 640 0 l 640 583 l 649 683 l 647 683 l 299 31 l 288 0 l 107 0 m 468 969 q 286 1031 324 969 q 249 1140 249 1093 l 393 1153 l 393 1136 q 390 1126 392 1133 q 388 1108 388 1118 q 406 1070 388 1086 q 468 1054 424 1054 q 532 1070 514 1054 q 550 1108 550 1086 q 548 1126 550 1118 q 544 1136 546 1133 l 544 1153 l 689 1140 q 651 1031 689 1093 q 468 969 613 969 z "},"Ѝ":{"ha":939,"x_min":107,"x_max":832,"o":"m 107 0 l 107 903 l 299 903 l 299 304 l 289 214 l 292 214 l 642 872 l 654 903 l 832 903 l 832 0 l 640 0 l 640 583 l 649 683 l 647 683 l 299 31 l 288 0 l 107 0 m 515 1006 l 336 1185 l 483 1233 l 601 1029 l 515 1006 z "},"Ҋ":{"ha":983,"x_min":107,"x_max":951,"o":"m 713 -243 l 757 0 l 640 0 l 640 583 l 649 683 l 647 683 l 299 31 l 288 0 l 107 0 l 107 903 l 299 903 l 299 304 l 289 214 l 292 214 l 642 872 l 654 903 l 832 903 l 832 100 l 951 100 l 951 69 l 815 -243 l 713 -243 z "},"К":{"ha":869,"x_min":107,"x_max":843,"o":"m 107 0 l 107 903 l 299 903 l 299 485 l 381 544 l 646 903 l 779 903 l 506 550 l 843 0 l 600 0 l 358 406 l 299 364 l 299 0 l 107 0 z "},"Ќ":{"ha":869,"x_min":107,"x_max":843,"o":"m 107 0 l 107 903 l 299 903 l 299 485 l 381 544 l 646 903 l 779 903 l 506 550 l 843 0 l 600 0 l 358 406 l 299 364 l 299 0 l 107 0 m 390 999 l 311 1011 l 408 1222 l 558 1179 l 390 999 z "},"Л":{"ha":872,"x_min":33,"x_max":765,"o":"m 108 -14 q 54 -9 75 -14 q 33 -3 33 -4 l 40 119 q 57 115 44 118 q 82 113 69 113 q 226 298 179 113 q 272 903 272 483 l 765 903 l 765 0 l 574 0 l 574 803 l 382 803 q 310 190 381 393 q 108 -14 239 -14 z "},"М":{"ha":1189,"x_min":107,"x_max":1082,"o":"m 107 0 l 118 903 l 350 903 l 603 238 l 608 238 l 857 903 l 1072 903 l 1082 0 l 894 0 l 885 683 l 881 683 l 629 0 l 486 0 l 235 683 l 231 683 l 226 0 l 107 0 z "},"Н":{"ha":910,"x_min":107,"x_max":803,"o":"m 107 0 l 107 903 l 299 903 l 299 508 l 611 508 l 611 903 l 803 903 l 803 0 l 611 0 l 611 411 l 299 411 l 299 0 l 107 0 z "},"О":{"ha":921,"x_min":50,"x_max":871,"o":"m 458 -15 q 156 109 263 -15 q 50 450 50 233 q 156 792 50 667 q 458 917 263 917 q 763 791 656 917 q 871 450 871 665 q 763 110 871 235 q 458 -15 656 -15 m 458 83 q 612 170 565 83 q 658 450 658 257 q 611 729 658 642 q 458 817 564 817 q 308 729 354 817 q 261 450 261 642 q 307 170 261 257 q 458 83 353 83 z "},"П":{"ha":889,"x_min":107,"x_max":782,"o":"m 107 0 l 107 903 l 782 903 l 782 0 l 590 0 l 590 803 l 299 803 l 299 0 l 107 0 z "},"Р":{"ha":740,"x_min":107,"x_max":708,"o":"m 107 903 l 383 903 q 623 826 538 903 q 708 597 708 749 q 661 418 708 489 q 540 315 614 347 q 388 282 467 282 l 299 282 l 299 0 l 107 0 l 107 903 m 365 371 q 468 419 435 371 q 501 589 501 467 q 468 763 501 713 q 365 813 435 813 l 299 813 l 299 371 l 365 371 z "},"С":{"ha":800,"x_min":50,"x_max":786,"o":"m 468 -15 q 157 108 264 -15 q 50 444 50 231 q 99 693 50 586 q 240 858 147 800 q 461 917 333 917 q 587 901 525 917 q 694 866 649 885 q 739 846 739 847 l 719 744 q 672 766 710 750 q 583 797 635 782 q 485 813 531 813 q 358 778 407 813 q 285 664 310 743 q 261 451 261 585 q 318 172 261 256 q 494 89 375 89 q 612 117 561 89 q 694 180 663 146 q 725 218 725 214 l 786 151 q 749 101 786 144 q 642 22 713 58 q 468 -15 571 -15 z "},"Т":{"ha":717,"x_min":19,"x_max":697,"o":"m 263 0 l 263 803 l 19 803 l 19 903 l 697 903 l 697 803 l 456 803 l 456 0 l 263 0 z "},"У":{"ha":828,"x_min":32,"x_max":797,"o":"m 246 -15 q 175 -8 206 -15 q 128 8 144 0 q 108 19 113 17 l 133 136 q 151 126 138 133 q 190 113 165 119 q 246 107 215 107 q 335 126 299 107 q 404 201 371 146 l 32 903 l 257 903 l 501 400 l 506 400 l 669 903 l 797 903 l 557 278 q 421 53 496 122 q 246 -15 346 -15 z "},"Ў":{"ha":828,"x_min":32,"x_max":797,"o":"m 246 -15 q 175 -8 206 -15 q 128 8 144 0 q 108 19 113 17 l 133 136 q 151 126 138 133 q 190 113 165 119 q 246 107 215 107 q 335 126 299 107 q 404 201 371 146 l 32 903 l 257 903 l 501 400 l 506 400 l 669 903 l 797 903 l 557 278 q 421 53 496 122 q 246 -15 346 -15 m 468 969 q 286 1031 324 969 q 249 1140 249 1093 l 393 1153 l 393 1136 q 390 1126 392 1133 q 388 1108 388 1118 q 406 1070 388 1086 q 468 1054 424 1054 q 532 1070 514 1054 q 550 1108 550 1086 q 548 1126 550 1118 q 544 1136 546 1133 l 544 1153 l 689 1140 q 651 1031 689 1093 q 468 969 613 969 z "},"Ф":{"ha":1067,"x_min":35,"x_max":1033,"o":"m 438 93 q 144 192 253 97 q 35 457 35 288 q 143 719 35 626 q 438 817 251 813 l 438 903 l 629 903 l 629 817 q 924 719 814 813 q 1033 458 1033 626 q 923 193 1033 289 q 629 93 813 97 l 629 0 l 438 0 l 438 93 m 438 732 q 284 659 331 726 q 238 457 238 592 q 284 253 238 322 q 438 179 331 185 l 438 732 m 629 179 q 782 254 735 185 q 829 458 829 324 q 782 659 829 592 q 629 732 735 726 l 629 179 z "},"Х":{"ha":807,"x_min":11,"x_max":796,"o":"m 11 0 l 292 439 l 24 903 l 264 903 l 431 579 l 435 579 l 628 903 l 764 903 l 500 486 l 796 0 l 557 0 l 364 344 l 360 344 l 156 0 l 11 0 z "},"Ч":{"ha":814,"x_min":71,"x_max":707,"o":"m 514 369 q 495 356 514 369 q 424 327 476 342 q 307 313 371 313 q 127 385 183 313 q 71 582 71 458 l 71 903 l 264 903 l 264 606 q 276 494 264 533 q 312 439 288 454 q 378 424 336 424 q 458 435 422 424 q 514 458 493 447 l 514 903 l 707 903 l 707 0 l 514 0 l 514 369 z "},"Ц":{"ha":926,"x_min":107,"x_max":894,"o":"m 751 -243 l 719 0 l 107 0 l 107 903 l 299 903 l 299 100 l 590 100 l 590 903 l 782 903 l 782 100 l 894 100 l 856 -243 l 751 -243 z "},"Ш":{"ha":1208,"x_min":107,"x_max":1101,"o":"m 107 0 l 107 903 l 299 903 l 299 100 l 508 100 l 508 903 l 700 903 l 700 100 l 908 100 l 908 903 l 1101 903 l 1101 0 l 107 0 z "},"Щ":{"ha":1242,"x_min":107,"x_max":1207,"o":"m 1067 -243 l 1036 0 l 107 0 l 107 903 l 299 903 l 299 100 l 508 100 l 508 903 l 700 903 l 700 100 l 908 100 l 908 903 l 1101 903 l 1101 100 l 1207 100 l 1172 -243 l 1067 -243 z "},"Џ":{"ha":889,"x_min":107,"x_max":782,"o":"m 394 -283 l 361 0 l 107 0 l 107 903 l 299 903 l 299 100 l 590 100 l 590 903 l 782 903 l 782 0 l 529 0 l 501 -283 l 394 -283 z "},"Ь":{"ha":768,"x_min":107,"x_max":718,"o":"m 107 903 l 299 903 l 299 557 l 364 557 q 626 490 535 557 q 718 290 718 424 q 630 76 718 151 q 369 0 542 0 l 107 0 l 107 903 m 365 90 q 483 135 447 90 q 519 285 519 181 q 482 428 519 388 q 364 469 444 469 l 299 469 l 299 90 l 365 90 z "},"Ъ":{"ha":894,"x_min":19,"x_max":844,"o":"m 233 803 l 19 803 l 19 903 l 425 903 l 425 557 l 490 557 q 753 490 661 557 q 844 290 844 424 q 756 76 844 151 q 496 0 668 0 l 233 0 l 233 803 m 492 90 q 610 135 574 90 q 646 285 646 181 q 608 428 646 388 q 490 469 571 469 l 425 469 l 425 90 l 492 90 z "},"Ы":{"ha":1118,"x_min":107,"x_max":1011,"o":"m 107 903 l 299 903 l 299 557 l 364 557 q 626 490 535 557 q 718 290 718 424 q 630 76 718 151 q 369 0 542 0 l 107 0 l 107 903 m 819 0 l 819 903 l 1011 903 l 1011 0 l 819 0 m 365 90 q 483 135 447 90 q 519 285 519 181 q 482 428 519 388 q 364 469 444 469 l 299 469 l 299 90 l 365 90 z "},"Љ":{"ha":1235,"x_min":33,"x_max":1185,"o":"m 108 -14 q 54 -9 75 -14 q 33 -3 33 -4 l 40 119 q 57 115 44 118 q 82 113 69 113 q 226 298 179 113 q 272 903 272 483 l 765 903 l 765 557 l 831 557 q 1093 490 1001 557 q 1185 290 1185 424 q 1097 76 1185 151 q 836 0 1008 0 l 574 0 l 574 803 l 382 803 q 310 190 381 393 q 108 -14 239 -14 m 832 90 q 950 135 914 90 q 986 285 986 181 q 949 428 986 388 q 831 469 911 469 l 765 469 l 765 90 l 832 90 z "},"Њ":{"ha":1271,"x_min":107,"x_max":1221,"o":"m 107 903 l 299 903 l 299 508 l 610 508 l 610 903 l 803 903 l 803 557 l 867 557 q 1129 490 1038 557 q 1221 290 1221 424 q 1133 76 1221 151 q 872 0 1044 0 l 610 0 l 610 411 l 299 411 l 299 0 l 107 0 l 107 903 m 868 90 q 986 135 950 90 q 1022 285 1022 181 q 985 428 1022 388 q 867 469 947 469 l 803 469 l 803 90 l 868 90 z "},"Ѕ":{"ha":683,"x_min":43,"x_max":635,"o":"m 317 -15 q 164 9 225 -15 q 73 61 103 33 q 43 94 43 89 l 96 175 q 123 149 96 172 q 197 107 150 126 q 304 88 243 88 q 406 122 369 88 q 442 214 442 157 q 422 277 442 250 q 374 323 403 304 q 294 371 346 342 q 185 438 228 406 q 111 521 142 469 q 81 647 81 572 q 118 790 81 729 q 222 884 156 851 q 374 917 289 917 q 478 903 429 917 q 562 872 528 889 q 596 853 596 854 l 574 758 q 540 777 567 763 q 471 806 513 792 q 386 819 429 819 q 301 790 333 819 q 269 707 269 760 q 307 614 269 649 q 422 538 344 579 q 533 469 492 500 q 605 387 575 439 q 635 257 635 335 q 592 111 635 172 q 478 17 550 50 q 317 -15 406 -15 z "},"Є":{"ha":814,"x_min":50,"x_max":788,"o":"m 469 -15 q 160 104 269 -15 q 50 436 50 224 q 98 686 50 578 q 237 856 146 794 q 453 917 328 917 q 578 901 517 917 q 683 866 639 885 q 726 846 726 847 l 707 744 q 661 766 697 750 q 574 797 625 782 q 476 813 522 813 q 321 738 372 813 q 264 492 269 664 l 663 492 l 663 394 l 263 394 q 326 156 268 222 q 497 89 383 89 q 614 117 563 89 q 697 180 665 146 q 728 218 728 214 l 788 151 q 751 101 788 144 q 643 22 714 58 q 469 -15 572 -15 z "},"Э":{"ha":783,"x_min":15,"x_max":733,"o":"m 331 -15 q 156 13 226 -15 q 51 74 86 42 q 15 113 15 107 l 71 196 q 99 165 71 192 q 176 114 128 138 q 288 90 224 90 q 451 160 394 90 q 515 403 507 229 l 139 403 l 139 501 l 515 501 q 493 694 513 628 q 430 788 474 761 q 306 814 386 814 q 215 800 260 814 q 140 772 169 786 q 103 753 111 757 l 85 850 q 124 869 85 851 q 218 902 164 888 q 328 917 272 917 q 634 796 535 917 q 733 456 733 675 q 684 209 733 315 q 543 44 635 103 q 331 -15 451 -15 z "},"І":{"ha":407,"x_min":107,"x_max":299,"o":"m 107 0 l 107 903 l 299 903 l 299 0 l 107 0 z "},"Ї":{"ha":407,"x_min":-17,"x_max":425,"o":"m 107 0 l 107 903 l 299 903 l 299 0 l 107 0 m 75 1017 q 11 1042 38 1017 q -17 1114 -17 1069 q 11 1186 -17 1157 q 75 1210 39 1210 q 139 1186 111 1210 q 167 1114 167 1154 q 139 1042 167 1072 q 75 1017 111 1017 m 333 1017 q 269 1042 294 1017 q 242 1114 242 1069 q 269 1186 242 1157 q 333 1210 296 1210 q 397 1186 369 1210 q 425 1114 425 1154 q 397 1042 425 1072 q 333 1017 369 1017 z "},"Ј":{"ha":533,"x_min":6,"x_max":438,"o":"m 185 -15 q 83 -3 122 -15 q 24 24 43 10 q 6 42 6 39 l 47 122 q 61 110 50 119 q 94 92 72 100 q 143 83 115 83 q 221 128 196 83 q 246 297 246 174 l 246 903 l 438 903 l 438 297 q 376 55 438 125 q 185 -15 314 -15 z "},"Ћ":{"ha":965,"x_min":19,"x_max":869,"o":"m 233 804 l 19 804 l 19 903 l 640 903 l 640 804 l 426 804 l 426 494 l 429 494 q 455 516 429 497 q 527 551 481 535 q 638 567 574 567 q 815 504 761 567 q 869 322 869 442 l 869 0 l 676 0 l 676 285 q 666 392 676 356 q 632 440 656 428 q 564 453 608 453 q 478 434 514 453 q 426 399 443 415 l 426 0 l 233 0 l 233 804 z "},"Ю":{"ha":1282,"x_min":107,"x_max":1232,"o":"m 819 -15 q 530 96 635 -15 q 414 403 425 207 l 299 403 l 299 0 l 107 0 l 107 903 l 299 903 l 299 500 l 414 500 q 530 806 425 694 q 819 917 635 917 q 1043 860 950 917 q 1184 697 1136 803 q 1232 450 1232 592 q 1124 110 1232 235 q 819 -15 1015 -15 m 819 79 q 972 169 925 79 q 1019 450 1019 260 q 972 731 1019 639 q 819 822 924 822 q 666 730 715 822 q 617 450 617 638 q 665 170 617 261 q 819 79 714 79 z "},"Я":{"ha":803,"x_min":50,"x_max":696,"o":"m 238 372 q 116 464 163 401 q 69 619 69 526 q 153 830 69 757 q 368 903 236 903 l 696 903 l 696 0 l 503 0 l 503 349 l 400 349 l 247 0 l 50 0 l 238 372 m 503 444 l 503 811 l 375 811 q 292 764 322 811 q 263 624 263 717 q 292 489 263 533 q 376 444 322 444 l 503 444 z "},"Ђ":{"ha":926,"x_min":19,"x_max":869,"o":"m 635 -15 q 568 -7 596 -15 q 526 12 540 1 q 513 24 513 22 l 539 93 q 549 86 540 92 q 569 76 557 81 q 597 71 582 71 q 652 101 631 71 q 676 224 674 132 l 676 285 q 666 392 676 356 q 632 440 656 428 q 564 453 608 453 q 478 434 514 453 q 426 399 443 415 l 426 0 l 233 0 l 233 804 l 19 804 l 19 903 l 640 903 l 640 804 l 426 804 l 426 494 l 429 494 q 455 516 429 497 q 527 551 481 535 q 638 567 574 567 q 815 504 761 567 q 869 322 869 442 l 869 288 q 811 51 869 118 q 635 -15 753 -15 z "},"Ѣ":{"ha":858,"x_min":19,"x_max":810,"o":"m 197 701 l 19 701 l 19 807 l 197 807 l 197 903 l 390 903 l 390 807 l 629 807 l 629 701 l 390 701 l 390 556 l 463 556 q 810 290 810 556 q 725 76 810 151 q 468 0 640 0 l 197 0 l 197 701 m 465 90 q 578 135 546 90 q 611 285 611 179 q 578 428 611 389 q 464 467 544 467 l 390 467 l 390 90 l 465 90 z "},"Ѫ":{"ha":1057,"x_min":29,"x_max":1028,"o":"m 29 106 q 122 457 29 356 q 368 561 215 558 l 151 903 l 896 903 l 676 561 l 679 561 q 933 460 838 561 q 1028 106 1028 360 l 1028 0 l 858 0 l 858 108 q 831 327 858 250 q 755 434 804 404 q 625 467 706 464 l 625 0 l 432 0 l 432 467 q 302 434 351 464 q 226 327 253 404 q 199 108 199 250 l 199 0 l 29 0 l 29 106 m 563 556 l 718 806 l 419 806 l 563 556 z "},"Ѳ":{"ha":921,"x_min":50,"x_max":871,"o":"m 458 917 q 763 791 656 917 q 871 450 871 665 q 763 110 871 235 q 458 -15 656 -15 q 156 109 263 -15 q 50 450 50 233 q 156 792 50 667 q 458 917 263 917 m 458 817 q 314 739 361 817 q 261 494 267 661 l 658 494 q 605 739 653 661 q 458 817 557 817 m 458 83 q 606 160 558 83 q 658 408 653 238 l 261 408 q 313 160 267 238 q 458 83 358 83 z "},"Ѵ":{"ha":835,"x_min":13,"x_max":849,"o":"m 790 917 q 849 906 819 917 l 842 775 q 807 781 825 781 q 647 572 701 781 l 496 0 l 283 0 l 13 903 l 215 903 l 429 183 l 435 183 l 575 701 q 790 917 633 917 z "},"Ғ":{"ha":608,"x_min":46,"x_max":610,"o":"m 610 803 l 299 803 l 299 494 l 421 494 l 421 408 l 299 408 l 299 0 l 107 0 l 107 408 l 46 408 l 46 494 l 107 494 l 107 903 l 610 903 l 610 803 z "},"Ҕ":{"ha":817,"x_min":107,"x_max":758,"o":"m 485 610 q 634 577 575 610 q 726 456 693 544 q 758 203 758 367 q 678 -181 758 -64 q 474 -299 597 -299 q 401 -293 429 -299 q 342 -271 374 -287 l 375 -185 q 443 -200 401 -200 q 499 -169 476 -200 q 534 -49 521 -137 q 547 203 547 39 q 534 383 547 319 q 493 471 521 446 q 419 496 465 496 q 299 454 358 496 l 299 0 l 107 0 l 107 903 l 610 903 l 610 803 l 299 803 l 299 554 q 485 610 406 610 z "},"Җ":{"ha":1250,"x_min":29,"x_max":1250,"o":"m 1163 100 l 1250 100 l 1211 -243 l 1107 -243 l 1075 0 l 990 0 l 776 461 l 707 461 l 707 0 l 515 0 l 515 460 l 436 460 l 254 0 l 29 0 l 289 528 l 69 903 l 207 903 l 392 561 l 515 561 l 515 903 l 707 903 l 707 561 l 815 561 l 1032 903 l 1169 903 l 925 558 l 1163 100 z "},"Ҙ":{"ha":710,"x_min":17,"x_max":661,"o":"m 661 254 q 593 84 661 154 q 411 -7 525 14 l 376 -243 l 272 -243 l 242 -10 q 113 32 163 1 q 40 93 63 63 q 17 129 17 124 l 75 201 q 102 167 75 197 q 178 113 129 138 q 294 88 228 88 q 446 257 446 88 q 416 381 446 346 q 325 415 386 415 l 192 404 l 192 511 l 338 499 q 402 542 375 500 q 429 669 429 583 q 399 785 429 751 q 297 819 368 819 q 215 806 258 819 q 142 778 172 793 q 103 760 111 764 l 85 854 q 125 872 85 856 q 221 903 165 889 q 335 917 276 917 q 556 853 478 917 q 633 679 633 789 q 592 549 633 601 q 489 465 551 497 q 661 254 661 424 z "},"Қ":{"ha":860,"x_min":107,"x_max":860,"o":"m 782 100 l 860 100 l 821 -243 l 717 -243 l 685 0 l 600 0 l 358 406 l 299 364 l 299 0 l 107 0 l 107 903 l 299 903 l 299 485 l 381 544 l 646 903 l 779 903 l 506 550 l 782 100 z "},"Ҝ":{"ha":911,"x_min":107,"x_max":885,"o":"m 547 550 l 885 0 l 642 0 l 400 406 l 397 404 l 397 282 l 339 282 l 339 363 l 299 335 l 299 0 l 107 0 l 107 903 l 299 903 l 299 454 l 339 483 l 339 657 l 397 657 l 397 526 l 422 544 l 688 903 l 821 903 l 547 550 z "},"Ҟ":{"ha":874,"x_min":-39,"x_max":857,"o":"m 299 485 l 394 544 l 660 903 l 793 903 l 519 550 l 857 0 l 614 0 l 372 406 l 299 364 l 299 0 l 107 0 l 107 685 l -39 685 l -39 785 l 107 785 l 107 903 l 299 903 l 299 785 l 440 785 l 440 685 l 299 685 l 299 485 z "},"Ҡ":{"ha":1025,"x_min":19,"x_max":999,"o":"m 661 550 l 999 0 l 756 0 l 514 406 l 454 364 l 454 0 l 263 0 l 263 803 l 19 803 l 19 903 l 454 903 l 454 485 l 536 544 l 801 903 l 935 903 l 661 550 z "},"Ң":{"ha":947,"x_min":107,"x_max":915,"o":"m 803 100 l 915 100 l 876 -243 l 772 -243 l 740 0 l 611 0 l 611 411 l 299 411 l 299 0 l 107 0 l 107 903 l 299 903 l 299 508 l 611 508 l 611 903 l 803 903 l 803 100 z "},"Ҧ":{"ha":1300,"x_min":107,"x_max":1242,"o":"m 957 -299 q 885 -293 913 -299 q 825 -271 857 -287 l 858 -185 q 926 -200 885 -200 q 982 -169 960 -200 q 1017 -49 1004 -137 q 1031 203 1031 39 q 1017 383 1031 319 q 976 471 1004 446 q 903 496 949 496 q 782 454 842 496 l 782 0 l 590 0 l 590 803 l 299 803 l 299 0 l 107 0 l 107 903 l 782 903 l 782 554 q 968 610 889 610 q 1117 577 1058 610 q 1209 456 1176 544 q 1242 203 1242 367 q 1161 -181 1242 -64 q 957 -299 1081 -299 z "},"Ԥ":{"ha":926,"x_min":107,"x_max":894,"o":"m 782 100 l 894 100 l 856 -243 l 751 -243 l 719 0 l 590 0 l 590 803 l 299 803 l 299 0 l 107 0 l 107 903 l 782 903 l 782 100 z "},"Ҩ":{"ha":1038,"x_min":50,"x_max":988,"o":"m 988 43 q 897 0 950 15 q 785 -15 844 -15 q 624 17 693 -15 q 547 -8 593 0 q 460 -15 501 -15 q 156 108 263 -15 q 50 442 50 232 q 150 787 50 668 q 422 917 250 906 l 422 813 q 300 710 339 797 q 261 442 261 622 q 315 165 261 246 q 465 83 369 83 q 528 90 504 83 q 399 431 399 239 q 478 703 399 618 q 679 789 558 789 q 888 708 811 789 q 965 444 965 628 q 917 240 965 336 q 786 99 869 144 q 851 92 825 92 q 901 98 878 92 q 957 121 924 104 l 988 43 m 596 431 q 619 258 596 340 q 678 153 642 176 q 738 272 717 192 q 758 429 758 353 q 741 631 758 572 q 679 690 724 690 q 615 625 633 690 q 596 431 596 560 z "},"Ҫ":{"ha":800,"x_min":50,"x_max":786,"o":"m 786 151 q 758 111 786 146 q 676 41 729 76 q 546 -8 624 6 l 511 -243 l 407 -243 l 376 -8 q 133 138 217 18 q 50 444 50 257 q 99 693 50 586 q 240 858 147 800 q 461 917 333 917 q 587 901 525 917 q 694 866 649 885 q 739 846 739 847 l 719 744 q 672 766 710 750 q 583 797 635 782 q 485 813 531 813 q 358 778 407 813 q 285 664 310 743 q 261 451 261 585 q 318 172 261 256 q 494 89 375 89 q 612 117 561 89 q 694 180 663 146 q 725 218 725 214 l 786 151 z "},"Ҭ":{"ha":717,"x_min":19,"x_max":697,"o":"m 425 -243 l 393 0 l 263 0 l 263 803 l 19 803 l 19 903 l 697 903 l 697 803 l 456 803 l 456 100 l 568 100 l 529 -243 l 425 -243 z "},"Ү":{"ha":726,"x_min":-10,"x_max":735,"o":"m 271 0 l 271 349 l -10 903 l 206 903 l 404 493 l 407 493 l 601 903 l 735 903 l 464 369 l 464 0 l 271 0 z "},"Ұ":{"ha":726,"x_min":-10,"x_max":735,"o":"m 735 903 l 474 389 l 553 389 l 553 303 l 464 303 l 464 0 l 271 0 l 271 303 l 178 303 l 178 389 l 250 389 l -10 903 l 206 903 l 404 493 l 407 493 l 601 903 l 735 903 z "},"Ҳ":{"ha":879,"x_min":11,"x_max":847,"o":"m 704 -243 l 672 0 l 557 0 l 364 344 l 360 344 l 156 0 l 11 0 l 292 439 l 24 903 l 264 903 l 431 579 l 435 579 l 628 903 l 764 903 l 500 486 l 735 100 l 847 100 l 808 -243 l 704 -243 z "},"Ҷ":{"ha":850,"x_min":71,"x_max":818,"o":"m 818 100 l 779 -243 l 675 -243 l 643 0 l 514 0 l 514 369 q 495 356 514 369 q 424 327 476 342 q 307 313 371 313 q 127 385 183 313 q 71 582 71 458 l 71 903 l 264 903 l 264 606 q 276 494 264 533 q 312 439 288 454 q 378 424 336 424 q 458 435 422 424 q 514 458 493 447 l 514 903 l 707 903 l 707 100 l 818 100 z "},"Ҹ":{"ha":814,"x_min":71,"x_max":707,"o":"m 707 903 l 707 0 l 514 0 l 514 369 q 493 355 513 369 q 421 326 474 340 l 421 193 l 363 193 l 363 315 q 307 313 329 313 q 127 385 183 313 q 71 582 71 458 l 71 903 l 264 903 l 264 606 q 287 467 264 507 q 363 424 310 428 l 363 568 l 421 568 l 421 426 q 514 458 474 436 l 514 903 l 707 903 z "},"Һ":{"ha":814,"x_min":107,"x_max":743,"o":"m 300 533 q 319 547 300 533 q 390 576 338 561 q 507 590 443 590 q 687 517 631 590 q 743 321 743 444 l 743 0 l 550 0 l 550 297 q 538 409 550 369 q 502 464 526 449 q 436 479 478 479 q 356 467 392 479 q 300 444 321 456 l 300 0 l 107 0 l 107 903 l 300 903 l 300 533 z "},"Ԧ":{"ha":833,"x_min":71,"x_max":819,"o":"m 644 0 l 514 0 l 514 297 q 502 409 514 369 q 466 464 490 449 q 400 479 442 479 q 320 467 356 479 q 264 444 285 456 l 264 0 l 71 0 l 71 903 l 264 903 l 264 533 q 283 547 264 533 q 354 576 301 561 q 471 590 407 590 q 651 517 594 590 q 707 321 707 444 l 707 100 l 819 100 l 781 -243 l 676 -243 l 644 0 z "},"Ҽ":{"ha":1090,"x_min":0,"x_max":1040,"o":"m 161 679 q 172 591 164 624 q 201 535 179 558 q 267 506 222 513 q 390 805 285 693 q 667 917 496 917 q 867 863 783 917 q 996 711 951 810 q 1040 478 1040 613 q 1039 408 1040 421 l 476 408 q 544 163 482 236 q 718 89 606 89 q 836 117 783 89 q 922 180 889 146 q 956 218 956 214 l 1015 151 q 976 101 1015 144 q 865 22 938 58 q 690 -15 793 -15 q 383 98 496 -15 q 264 411 271 211 q 69 475 132 419 q 0 647 6 531 l 161 679 m 842 506 q 788 745 842 674 q 657 817 735 817 q 528 745 579 817 q 478 506 478 674 l 842 506 z "},"Ҿ":{"ha":1090,"x_min":0,"x_max":1040,"o":"m 589 -6 q 354 131 439 22 q 264 411 269 239 q 69 475 132 419 q 0 647 6 531 l 161 679 q 172 591 164 624 q 201 535 179 558 q 267 506 222 513 q 390 805 285 693 q 667 917 496 917 q 867 863 783 917 q 996 711 951 810 q 1040 478 1040 613 q 1039 408 1040 421 l 476 408 q 544 163 482 236 q 718 89 606 89 q 836 117 783 89 q 922 180 889 146 q 956 218 956 214 l 1015 151 q 984 110 1015 146 q 895 38 953 74 q 756 -10 838 1 l 729 -283 l 622 -283 l 589 -6 m 842 506 q 788 745 842 674 q 657 817 735 817 q 528 745 579 817 q 478 506 478 674 l 842 506 z "},"Ӏ":{"ha":407,"x_min":107,"x_max":299,"o":"m 107 0 l 107 903 l 299 903 l 299 0 l 107 0 z "},"Ӂ":{"ha":1243,"x_min":29,"x_max":1214,"o":"m 29 0 l 289 528 l 69 903 l 207 903 l 392 561 l 515 561 l 515 903 l 707 903 l 707 561 l 815 561 l 1032 903 l 1169 903 l 925 558 l 1214 0 l 990 0 l 776 461 l 707 461 l 707 0 l 515 0 l 515 460 l 436 460 l 254 0 l 29 0 m 606 969 q 424 1031 461 969 q 386 1140 386 1093 l 531 1153 l 531 1136 q 527 1126 529 1133 q 525 1108 525 1118 q 543 1070 525 1086 q 606 1054 561 1054 q 669 1070 651 1054 q 688 1108 688 1086 q 685 1126 688 1118 q 682 1136 683 1133 l 682 1153 l 826 1140 q 788 1031 826 1093 q 606 969 750 969 z "},"Ӄ":{"ha":836,"x_min":107,"x_max":801,"o":"m 583 -242 q 638 -136 638 -208 q 572 60 638 -72 q 358 392 507 193 l 299 350 l 299 0 l 107 0 l 107 903 l 299 903 l 299 471 l 381 531 l 646 903 l 779 903 l 506 536 q 743 167 685 292 q 801 -28 801 43 q 771 -165 801 -99 q 647 -299 740 -232 l 583 -242 z "},"Ӆ":{"ha":917,"x_min":33,"x_max":885,"o":"m 690 0 l 574 0 l 574 803 l 382 803 q 310 190 381 393 q 108 -14 239 -14 q 54 -9 75 -14 q 33 -3 33 -4 l 40 119 q 57 115 44 118 q 82 113 69 113 q 226 298 179 113 q 272 903 272 483 l 765 903 l 765 100 l 885 100 l 885 69 l 749 -243 l 646 -243 l 690 0 z "},"Ӈ":{"ha":910,"x_min":107,"x_max":803,"o":"m 550 -299 q 448 -286 488 -299 q 390 -259 408 -274 q 371 -242 371 -244 l 413 -161 q 426 -174 415 -164 q 459 -192 438 -183 q 508 -200 481 -200 q 586 -155 561 -200 q 611 14 611 -110 l 611 411 l 299 411 l 299 0 l 107 0 l 107 903 l 299 903 l 299 508 l 611 508 l 611 903 l 803 903 l 803 14 q 741 -228 803 -158 q 550 -299 679 -299 z "},"Ӊ":{"ha":954,"x_min":107,"x_max":922,"o":"m 683 -243 l 728 0 l 611 0 l 611 411 l 299 411 l 299 0 l 107 0 l 107 903 l 299 903 l 299 508 l 611 508 l 611 903 l 803 903 l 803 100 l 922 100 l 922 69 l 786 -243 l 683 -243 z "},"Ӌ":{"ha":814,"x_min":71,"x_max":818,"o":"m 818 100 l 779 -243 l 675 -243 l 643 0 l 514 0 l 514 369 q 495 356 514 369 q 424 327 476 342 q 307 313 371 313 q 127 385 183 313 q 71 582 71 458 l 71 903 l 264 903 l 264 606 q 276 494 264 533 q 312 439 288 454 q 378 424 336 424 q 458 435 422 424 q 514 458 493 447 l 514 903 l 707 903 l 707 100 l 818 100 z "},"Ӎ":{"ha":1232,"x_min":107,"x_max":1200,"o":"m 961 -243 l 1006 0 l 894 0 l 885 683 l 881 683 l 629 0 l 486 0 l 235 683 l 231 683 l 226 0 l 107 0 l 118 903 l 350 903 l 603 238 l 608 238 l 857 903 l 1072 903 l 1081 100 l 1200 100 l 1200 69 l 1064 -243 l 961 -243 z "},"Ӑ":{"ha":844,"x_min":26,"x_max":819,"o":"m 26 0 l 326 903 l 539 903 l 819 0 l 617 0 l 539 253 l 225 253 l 143 0 l 26 0 m 253 340 l 513 340 l 389 765 l 386 765 l 253 340 m 421 969 q 239 1031 276 969 q 201 1140 201 1093 l 346 1153 l 346 1136 q 342 1126 344 1133 q 340 1108 340 1118 q 358 1070 340 1086 q 421 1054 376 1054 q 485 1070 467 1054 q 503 1108 503 1086 q 501 1126 503 1118 q 497 1136 499 1133 l 497 1153 l 642 1140 q 603 1031 642 1093 q 421 969 565 969 z "},"Ӓ":{"ha":844,"x_min":26,"x_max":819,"o":"m 26 0 l 326 903 l 539 903 l 819 0 l 617 0 l 539 253 l 225 253 l 143 0 l 26 0 m 253 340 l 513 340 l 389 765 l 386 765 l 253 340 m 293 1017 q 229 1042 256 1017 q 201 1114 201 1069 q 229 1186 201 1157 q 293 1210 257 1210 q 357 1186 329 1210 q 385 1114 385 1154 q 357 1042 385 1072 q 293 1017 329 1017 m 551 1017 q 488 1042 513 1017 q 460 1114 460 1069 q 488 1186 460 1157 q 551 1210 514 1210 q 615 1186 588 1210 q 643 1114 643 1154 q 615 1042 643 1072 q 551 1017 588 1017 z "},"Ӗ":{"ha":728,"x_min":107,"x_max":668,"o":"m 107 0 l 107 903 l 649 903 l 649 803 l 299 803 l 299 506 l 607 506 l 607 408 l 299 408 l 299 100 l 668 100 l 668 0 l 107 0 m 390 969 q 208 1031 246 969 q 171 1140 171 1093 l 315 1153 l 315 1136 q 312 1126 314 1133 q 310 1108 310 1118 q 328 1070 310 1086 q 390 1054 346 1054 q 454 1070 436 1054 q 472 1108 472 1086 q 470 1126 472 1118 q 467 1136 468 1133 l 467 1153 l 611 1140 q 573 1031 611 1093 q 390 969 535 969 z "},"Ә":{"ha":807,"x_min":50,"x_max":757,"o":"m 381 917 q 658 807 558 917 q 757 464 757 697 q 713 199 757 308 q 590 35 669 90 q 403 -19 510 -19 q 142 86 235 -19 q 50 388 50 192 q 53 444 50 419 q 60 483 57 469 q 65 500 64 497 l 549 500 q 526 683 546 615 q 464 783 506 751 q 353 814 422 814 q 245 783 292 814 q 172 718 199 753 q 144 678 144 683 l 63 740 q 99 794 63 749 q 207 878 136 839 q 381 917 278 917 m 232 383 l 232 342 q 276 144 232 206 q 389 82 319 82 q 503 148 464 82 q 549 383 542 214 l 232 383 z "},"Ӛ":{"ha":807,"x_min":50,"x_max":757,"o":"m 381 917 q 658 807 558 917 q 757 464 757 697 q 713 199 757 308 q 590 35 669 90 q 403 -19 510 -19 q 142 86 235 -19 q 50 388 50 192 q 53 444 50 419 q 60 483 57 469 q 65 500 64 497 l 549 500 q 526 683 546 615 q 464 783 506 751 q 353 814 422 814 q 245 783 292 814 q 172 718 199 753 q 144 678 144 683 l 63 740 q 99 794 63 749 q 207 878 136 839 q 381 917 278 917 m 232 383 l 232 342 q 276 144 232 206 q 389 82 319 82 q 503 148 464 82 q 549 383 542 214 l 232 383 m 272 1017 q 208 1042 235 1017 q 181 1114 181 1069 q 208 1186 181 1157 q 272 1210 236 1210 q 336 1186 308 1210 q 364 1114 364 1154 q 336 1042 364 1072 q 272 1017 308 1017 m 531 1017 q 467 1042 492 1017 q 439 1114 439 1069 q 467 1186 439 1157 q 531 1210 493 1210 q 594 1186 567 1210 q 622 1114 622 1154 q 594 1042 622 1072 q 531 1017 567 1017 z "},"Ӝ":{"ha":1243,"x_min":29,"x_max":1214,"o":"m 29 0 l 289 528 l 69 903 l 207 903 l 392 561 l 515 561 l 515 903 l 707 903 l 707 561 l 815 561 l 1032 903 l 1169 903 l 925 558 l 1214 0 l 990 0 l 776 461 l 707 461 l 707 0 l 515 0 l 515 460 l 436 460 l 254 0 l 29 0 m 478 1017 q 414 1042 440 1017 q 386 1114 386 1069 q 414 1186 386 1157 q 478 1210 442 1210 q 542 1186 514 1210 q 569 1114 569 1154 q 542 1042 569 1072 q 478 1017 514 1017 m 736 1017 q 672 1042 697 1017 q 644 1114 644 1069 q 672 1186 644 1157 q 736 1210 699 1210 q 800 1186 772 1210 q 828 1114 828 1154 q 800 1042 828 1072 q 736 1017 772 1017 z "},"Ӟ":{"ha":710,"x_min":17,"x_max":661,"o":"m 318 -15 q 143 17 210 -15 q 47 85 76 49 q 17 129 17 121 l 75 201 q 102 167 75 197 q 178 113 129 138 q 294 88 228 88 q 446 257 446 88 q 416 381 446 346 q 325 415 386 415 l 192 404 l 192 511 l 338 499 q 402 542 375 500 q 429 669 429 583 q 399 785 429 751 q 297 819 368 819 q 215 806 258 819 q 142 778 172 793 q 103 760 111 764 l 85 854 q 125 872 85 856 q 221 903 165 889 q 335 917 276 917 q 556 853 478 917 q 633 679 633 789 q 592 549 633 601 q 489 465 551 497 q 661 254 661 424 q 618 114 661 175 q 497 19 575 53 q 318 -15 418 -15 m 206 1017 q 142 1042 168 1017 q 114 1114 114 1069 q 142 1186 114 1157 q 206 1210 169 1210 q 269 1186 242 1210 q 297 1114 297 1154 q 269 1042 297 1072 q 206 1017 242 1017 m 464 1017 q 400 1042 425 1017 q 372 1114 372 1069 q 400 1186 372 1157 q 464 1210 426 1210 q 528 1186 500 1210 q 556 1114 556 1154 q 528 1042 556 1072 q 464 1017 500 1017 z "},"Ӡ":{"ha":728,"x_min":35,"x_max":679,"o":"m 475 536 q 636 443 593 511 q 679 275 679 375 q 635 128 679 194 q 513 24 592 63 q 336 -15 435 -15 q 161 17 228 -15 q 65 85 94 49 q 35 129 35 121 l 93 201 q 120 167 93 197 q 197 113 147 138 q 313 88 246 88 q 423 137 382 88 q 464 278 464 186 q 433 415 464 369 q 343 460 401 460 l 176 449 l 176 556 l 274 551 l 422 803 l 81 803 l 81 903 l 661 903 l 661 819 l 475 536 z "},"Ӣ":{"ha":939,"x_min":107,"x_max":832,"o":"m 107 0 l 107 903 l 299 903 l 299 304 l 289 214 l 292 214 l 642 872 l 654 903 l 832 903 l 832 0 l 640 0 l 640 583 l 649 683 l 647 683 l 299 31 l 288 0 l 107 0 m 321 1075 l 321 1156 l 618 1156 l 618 1075 l 321 1075 z "},"Ӥ":{"ha":939,"x_min":107,"x_max":832,"o":"m 107 0 l 107 903 l 299 903 l 299 304 l 289 214 l 292 214 l 642 872 l 654 903 l 832 903 l 832 0 l 640 0 l 640 583 l 649 683 l 647 683 l 299 31 l 288 0 l 107 0 m 340 1017 q 276 1042 303 1017 q 249 1114 249 1069 q 276 1186 249 1157 q 340 1210 304 1210 q 404 1186 376 1210 q 432 1114 432 1154 q 404 1042 432 1072 q 340 1017 376 1017 m 599 1017 q 535 1042 560 1017 q 507 1114 507 1069 q 535 1186 507 1157 q 599 1210 561 1210 q 663 1186 635 1210 q 690 1114 690 1154 q 663 1042 690 1072 q 599 1017 635 1017 z "},"Ӧ":{"ha":921,"x_min":50,"x_max":871,"o":"m 458 -15 q 156 109 263 -15 q 50 450 50 233 q 156 792 50 667 q 458 917 263 917 q 763 791 656 917 q 871 450 871 665 q 763 110 871 235 q 458 -15 656 -15 m 458 83 q 612 170 565 83 q 658 450 658 257 q 611 729 658 642 q 458 817 564 817 q 308 729 354 817 q 261 450 261 642 q 307 170 261 257 q 458 83 353 83 m 332 1017 q 268 1042 294 1017 q 240 1114 240 1069 q 268 1186 240 1157 q 332 1210 296 1210 q 396 1186 368 1210 q 424 1114 424 1154 q 396 1042 424 1072 q 332 1017 368 1017 m 590 1017 q 526 1042 551 1017 q 499 1114 499 1069 q 526 1186 499 1157 q 590 1210 553 1210 q 654 1186 626 1210 q 682 1114 682 1154 q 654 1042 682 1072 q 590 1017 626 1017 z "},"Ө":{"ha":921,"x_min":50,"x_max":871,"o":"m 458 917 q 763 791 656 917 q 871 450 871 665 q 763 110 871 235 q 458 -15 656 -15 q 156 109 263 -15 q 50 450 50 233 q 156 792 50 667 q 458 917 263 917 m 458 817 q 314 739 361 817 q 261 494 267 661 l 658 494 q 605 739 653 661 q 458 817 557 817 m 458 83 q 606 160 558 83 q 658 408 653 238 l 261 408 q 313 160 267 238 q 458 83 358 83 z "},"Ӫ":{"ha":921,"x_min":50,"x_max":871,"o":"m 458 917 q 763 791 656 917 q 871 450 871 665 q 763 110 871 235 q 458 -15 656 -15 q 156 109 263 -15 q 50 450 50 233 q 156 792 50 667 q 458 917 263 917 m 458 817 q 314 739 361 817 q 261 494 267 661 l 658 494 q 605 739 653 661 q 458 817 557 817 m 458 83 q 606 160 558 83 q 658 408 653 238 l 261 408 q 313 160 267 238 q 458 83 358 83 m 332 1017 q 268 1042 294 1017 q 240 1114 240 1069 q 268 1186 240 1157 q 332 1210 296 1210 q 396 1186 368 1210 q 424 1114 424 1154 q 396 1042 424 1072 q 332 1017 368 1017 m 590 1017 q 526 1042 551 1017 q 499 1114 499 1069 q 526 1186 499 1157 q 590 1210 553 1210 q 654 1186 626 1210 q 682 1114 682 1154 q 654 1042 682 1072 q 590 1017 626 1017 z "},"Ӭ":{"ha":783,"x_min":15,"x_max":733,"o":"m 331 -15 q 156 13 226 -15 q 51 74 86 42 q 15 113 15 107 l 71 196 q 99 165 71 192 q 176 114 128 138 q 288 90 224 90 q 451 160 394 90 q 515 403 507 229 l 139 403 l 139 501 l 515 501 q 493 694 513 628 q 430 788 474 761 q 306 814 386 814 q 215 800 260 814 q 140 772 169 786 q 103 753 111 757 l 85 850 q 124 869 85 851 q 218 902 164 888 q 328 917 272 917 q 634 796 535 917 q 733 456 733 675 q 684 209 733 315 q 543 44 635 103 q 331 -15 451 -15 m 235 1017 q 171 1042 197 1017 q 143 1114 143 1069 q 171 1186 143 1157 q 235 1210 199 1210 q 299 1186 271 1210 q 326 1114 326 1154 q 299 1042 326 1072 q 235 1017 271 1017 m 493 1017 q 429 1042 454 1017 q 401 1114 401 1069 q 429 1186 401 1157 q 493 1210 456 1210 q 557 1186 529 1210 q 585 1114 585 1154 q 557 1042 585 1072 q 493 1017 529 1017 z "},"Ӯ":{"ha":828,"x_min":32,"x_max":797,"o":"m 246 -15 q 175 -8 206 -15 q 128 8 144 0 q 108 19 113 17 l 133 136 q 151 126 138 133 q 190 113 165 119 q 246 107 215 107 q 335 126 299 107 q 404 201 371 146 l 32 903 l 257 903 l 501 400 l 506 400 l 669 903 l 797 903 l 557 278 q 421 53 496 122 q 246 -15 346 -15 m 321 1075 l 321 1156 l 618 1156 l 618 1075 l 321 1075 z "},"Ӱ":{"ha":828,"x_min":32,"x_max":797,"o":"m 246 -15 q 175 -8 206 -15 q 128 8 144 0 q 108 19 113 17 l 133 136 q 151 126 138 133 q 190 113 165 119 q 246 107 215 107 q 335 126 299 107 q 404 201 371 146 l 32 903 l 257 903 l 501 400 l 506 400 l 669 903 l 797 903 l 557 278 q 421 53 496 122 q 246 -15 346 -15 m 340 1017 q 276 1042 303 1017 q 249 1114 249 1069 q 276 1186 249 1157 q 340 1210 304 1210 q 404 1186 376 1210 q 432 1114 432 1154 q 404 1042 432 1072 q 340 1017 376 1017 m 599 1017 q 535 1042 560 1017 q 507 1114 507 1069 q 535 1186 507 1157 q 599 1210 561 1210 q 663 1186 635 1210 q 690 1114 690 1154 q 663 1042 690 1072 q 599 1017 635 1017 z "},"Ӳ":{"ha":828,"x_min":32,"x_max":797,"o":"m 246 -15 q 175 -8 206 -15 q 128 8 144 0 q 108 19 113 17 l 133 136 q 151 126 138 133 q 190 113 165 119 q 246 107 215 107 q 335 126 299 107 q 404 201 371 146 l 32 903 l 257 903 l 501 400 l 506 400 l 669 903 l 797 903 l 557 278 q 421 53 496 122 q 246 -15 346 -15 m 376 989 l 306 1021 l 379 1233 l 507 1197 l 376 989 m 592 989 l 521 1021 l 596 1233 l 724 1197 l 592 989 z "},"Ӵ":{"ha":814,"x_min":71,"x_max":707,"o":"m 514 369 q 495 356 514 369 q 424 327 476 342 q 307 313 371 313 q 127 385 183 313 q 71 582 71 458 l 71 903 l 264 903 l 264 606 q 276 494 264 533 q 312 439 288 454 q 378 424 336 424 q 458 435 422 424 q 514 458 493 447 l 514 903 l 707 903 l 707 0 l 514 0 l 514 369 m 257 1017 q 193 1042 219 1017 q 165 1114 165 1069 q 193 1186 165 1157 q 257 1210 221 1210 q 321 1186 293 1210 q 349 1114 349 1154 q 321 1042 349 1072 q 257 1017 293 1017 m 515 1017 q 451 1042 476 1017 q 424 1114 424 1069 q 451 1186 424 1157 q 515 1210 478 1210 q 579 1186 551 1210 q 607 1114 607 1154 q 579 1042 607 1072 q 515 1017 551 1017 z "},"Ӷ":{"ha":608,"x_min":107,"x_max":610,"o":"m 610 803 l 299 803 l 299 100 l 411 100 l 372 -243 l 268 -243 l 236 0 l 107 0 l 107 903 l 610 903 l 610 803 z "},"Ӹ":{"ha":1118,"x_min":107,"x_max":1011,"o":"m 107 903 l 299 903 l 299 557 l 364 557 q 626 490 535 557 q 718 290 718 424 q 630 76 718 151 q 369 0 542 0 l 107 0 l 107 903 m 819 0 l 819 903 l 1011 903 l 1011 0 l 819 0 m 365 90 q 483 135 447 90 q 519 285 519 181 q 482 428 519 388 q 364 469 444 469 l 299 469 l 299 90 l 365 90 m 431 1017 q 367 1042 393 1017 q 339 1114 339 1069 q 367 1186 339 1157 q 431 1210 394 1210 q 494 1186 467 1210 q 522 1114 522 1154 q 494 1042 522 1072 q 431 1017 467 1017 m 689 1017 q 625 1042 650 1017 q 597 1114 597 1069 q 625 1186 597 1157 q 689 1210 651 1210 q 753 1186 725 1210 q 781 1114 781 1154 q 753 1042 781 1072 q 689 1017 725 1017 z "},"Ӻ":{"ha":706,"x_min":14,"x_max":683,"o":"m 226 -250 q 173 -243 192 -250 q 153 -236 154 -236 l 156 -157 q 175 -160 160 -158 q 210 -162 190 -162 q 275 -131 251 -162 q 299 -11 299 -99 l 299 0 l 135 0 l 135 372 l 14 372 l 14 469 l 135 469 l 135 903 l 683 903 l 683 803 l 326 803 l 326 469 l 565 469 l 565 372 l 326 372 l 326 100 l 439 100 l 439 13 q 381 -188 439 -126 q 226 -250 324 -250 z "},"Ӽ":{"ha":771,"x_min":11,"x_max":764,"o":"m 535 -242 q 589 -136 589 -208 q 542 18 589 -86 q 364 344 494 122 l 360 344 l 156 0 l 11 0 l 292 439 l 24 903 l 264 903 l 431 579 l 435 579 l 628 903 l 764 903 l 500 486 q 665 215 611 311 q 735 69 718 119 q 753 -28 753 18 q 722 -165 753 -99 q 599 -299 692 -232 l 535 -242 z "},"Ӿ":{"ha":807,"x_min":11,"x_max":796,"o":"m 97 511 l 250 511 l 24 903 l 264 903 l 431 579 l 435 579 l 628 903 l 764 903 l 515 511 l 694 511 l 694 417 l 542 417 l 796 0 l 557 0 l 364 344 l 360 344 l 156 0 l 11 0 l 278 417 l 97 417 l 97 511 z "},"Ԑ":{"ha":738,"x_min":76,"x_max":721,"o":"m 393 -15 q 159 52 242 -15 q 76 240 76 119 q 124 390 76 333 q 249 465 171 446 q 142 544 181 497 q 104 669 104 592 q 183 848 104 779 q 403 917 261 917 q 517 903 461 917 q 613 872 572 889 q 653 854 653 856 l 635 760 q 596 778 626 764 q 522 806 565 793 q 440 819 479 819 q 340 781 371 819 q 308 660 308 743 q 335 537 308 574 q 400 499 361 500 l 546 511 l 546 404 l 413 415 q 323 374 354 415 q 292 243 292 333 q 331 121 292 154 q 443 88 369 88 q 559 113 510 88 q 635 167 608 138 q 663 201 663 197 l 721 129 q 604 32 681 79 q 393 -15 528 -15 z "},"Ԓ":{"ha":872,"x_min":33,"x_max":765,"o":"m 513 -299 q 410 -286 450 -299 q 352 -259 371 -274 q 333 -242 333 -244 l 375 -161 q 389 -174 378 -164 q 422 -192 400 -183 q 471 -200 443 -200 q 549 -155 524 -200 q 574 14 574 -110 l 574 803 l 382 803 q 310 190 381 393 q 108 -14 239 -14 q 54 -9 75 -14 q 33 -3 33 -4 l 40 119 q 57 115 44 118 q 82 113 69 113 q 226 298 179 113 q 272 903 272 483 l 765 903 l 765 14 q 703 -228 765 -158 q 513 -299 642 -299 z "},"Ԛ":{"ha":921,"x_min":50,"x_max":871,"o":"m 725 -274 q 531 -197 624 -274 q 392 -11 438 -121 q 138 131 226 10 q 50 450 50 253 q 156 792 50 667 q 458 917 263 917 q 764 796 657 917 q 871 460 871 675 q 793 156 871 278 q 572 -1 715 33 q 760 -187 664 -187 q 799 -179 778 -187 l 807 -260 q 725 -274 769 -274 m 458 83 q 611 172 564 83 q 658 450 658 261 q 610 727 658 638 q 458 817 563 817 q 308 728 356 817 q 261 450 261 639 q 307 172 261 260 q 458 83 353 83 z "},"Ԝ":{"ha":1213,"x_min":13,"x_max":1199,"o":"m 253 0 l 13 903 l 217 903 l 383 219 l 386 219 l 571 903 l 725 903 l 915 224 l 919 224 l 1076 903 l 1199 903 l 963 0 l 799 0 l 610 667 l 607 667 l 419 0 l 253 0 z "},"Ҍ":{"ha":826,"x_min":19,"x_max":776,"o":"m 422 557 q 685 490 593 557 q 776 290 776 424 q 688 76 776 151 q 428 0 600 0 l 165 0 l 165 685 l 19 685 l 19 785 l 165 785 l 165 903 l 357 903 l 357 785 l 510 785 l 510 685 l 357 685 l 357 557 l 422 557 m 424 90 q 542 135 506 90 q 578 285 578 181 q 540 428 578 388 q 422 469 503 469 l 357 469 l 357 90 l 424 90 z "},"Ҏ":{"ha":740,"x_min":107,"x_max":708,"o":"m 107 903 l 383 903 q 623 826 538 903 q 708 597 708 749 q 665 426 708 494 q 551 319 622 357 l 615 210 l 533 164 l 461 289 q 388 282 419 282 l 299 282 l 299 0 l 107 0 l 107 903 m 481 443 q 501 589 501 493 q 468 763 501 713 q 365 813 435 813 l 299 813 l 299 371 l 365 371 q 411 376 393 371 l 342 497 l 422 544 l 481 443 z "},"а":{"ha":713,"x_min":38,"x_max":686,"o":"m 251 -15 q 96 33 154 -15 q 38 167 38 82 q 152 344 38 289 q 419 411 267 399 l 419 451 q 393 581 419 546 q 304 617 367 617 q 238 606 275 617 q 174 582 201 594 q 139 565 147 569 l 121 654 q 160 672 129 658 q 240 697 192 685 q 336 710 288 710 q 535 655 467 710 q 604 467 604 600 l 604 151 q 633 78 604 78 q 660 82 644 78 q 681 88 675 86 l 686 15 q 653 6 679 13 q 592 -8 626 -1 q 532 -15 558 -15 q 469 5 492 -15 q 440 71 447 25 l 433 71 q 415 45 433 67 q 356 4 396 24 q 251 -15 315 -15 m 313 78 q 370 94 346 78 q 407 131 394 111 q 419 154 419 151 l 419 338 q 278 294 326 328 q 231 190 231 260 q 253 106 231 135 q 313 78 275 78 z "},"б":{"ha":731,"x_min":43,"x_max":689,"o":"m 365 -15 q 123 90 203 -15 q 43 382 43 196 q 66 686 43 558 q 170 909 89 814 q 414 1025 251 1004 l 608 1050 l 615 868 l 464 857 q 215 759 290 844 q 140 511 139 674 l 151 511 q 188 593 160 547 q 267 674 215 639 q 394 710 319 710 q 611 617 533 710 q 689 351 689 524 q 602 82 689 179 q 365 -15 515 -15 m 365 76 q 462 139 433 76 q 490 351 490 201 q 478 509 490 451 q 439 592 465 567 q 365 618 413 618 q 271 557 300 618 q 242 374 242 496 q 269 144 242 211 q 365 76 297 76 z "},"в":{"ha":693,"x_min":83,"x_max":653,"o":"m 83 694 l 349 694 q 563 644 496 694 q 629 508 629 593 q 507 356 629 404 q 610 301 568 339 q 653 203 653 263 q 583 53 653 106 q 351 0 514 0 l 83 0 l 83 694 m 369 385 q 390 391 369 382 q 428 426 411 400 q 444 499 444 451 q 346 611 444 611 l 268 611 l 268 385 l 369 385 m 347 83 q 436 118 408 83 q 464 211 464 153 q 357 319 464 319 l 268 319 l 268 83 l 347 83 z "},"г":{"ha":517,"x_min":83,"x_max":501,"o":"m 83 0 l 83 694 l 501 694 l 501 593 l 268 593 l 268 0 l 83 0 z "},"ѓ":{"ha":517,"x_min":83,"x_max":501,"o":"m 83 0 l 83 694 l 501 694 l 501 593 l 268 593 l 268 0 l 83 0 m 283 790 l 204 803 l 301 1014 l 451 971 l 283 790 z "},"ґ":{"ha":488,"x_min":83,"x_max":482,"o":"m 83 0 l 83 694 l 343 694 l 379 883 l 472 883 l 482 593 l 268 593 l 268 0 l 83 0 z "},"д":{"ha":738,"x_min":10,"x_max":722,"o":"m 10 99 l 101 99 q 158 346 144 211 q 172 694 172 481 l 624 694 l 624 99 l 722 99 l 701 -206 l 614 -206 l 582 0 l 154 0 l 113 -206 l 24 -206 l 10 99 m 439 99 l 439 596 l 275 596 q 263 316 274 432 q 218 99 251 200 l 439 99 z "},"е":{"ha":658,"x_min":40,"x_max":621,"o":"m 365 -15 q 126 70 211 -15 q 40 335 40 156 q 124 612 40 515 q 349 708 207 708 q 549 627 478 708 q 621 394 621 546 q 616 336 621 360 q 610 307 611 313 l 236 307 q 273 130 238 182 q 388 78 308 78 q 471 98 435 78 q 528 142 507 118 q 549 169 549 167 l 611 121 q 583 81 611 115 q 499 15 554 46 q 365 -15 444 -15 m 449 397 l 449 429 q 426 577 449 535 q 349 619 404 619 q 287 600 310 619 q 251 533 264 581 q 236 397 239 485 l 449 397 z "},"ѐ":{"ha":658,"x_min":40,"x_max":621,"o":"m 365 -15 q 126 70 211 -15 q 40 335 40 156 q 124 612 40 515 q 349 708 207 708 q 549 627 478 708 q 621 394 621 546 q 616 336 621 360 q 610 307 611 313 l 236 307 q 273 130 238 182 q 388 78 308 78 q 471 98 435 78 q 528 142 507 118 q 549 169 549 167 l 611 121 q 583 81 611 115 q 499 15 554 46 q 365 -15 444 -15 m 449 397 l 449 429 q 426 577 449 535 q 349 619 404 619 q 287 600 310 619 q 251 533 264 581 q 236 397 239 485 l 449 397 m 403 797 l 224 976 l 371 1025 l 489 821 l 403 797 z "}}}
